M48
; DRILL file {KiCad 9.0.6-1.fc43app1} date 2025-12-27T19:53:47+0100
; FORMAT={-:-/ absolute / metric / decimal}
; #@! TF.CreationDate,2025-12-27T19:53:47+01:00
; #@! TF.GenerationSoftware,Kicad,Pcbnew,9.0.6-1.fc43app1
; #@! TF.FileFunction,Plated,1,2,PTH
FMAT,2
METRIC
; #@! TA.AperFunction,Plated,PTH,ComponentDrill
T1C0.500
; #@! TA.AperFunction,Plated,PTH,ViaDrill
T2C0.600
; #@! TA.AperFunction,Plated,PTH,ComponentDrill
T3C1.000
; #@! TA.AperFunction,Plated,PTH,ComponentDrill
T4C1.200
; #@! TA.AperFunction,Plated,PTH,ComponentDrill
T5C1.500
; #@! TA.AperFunction,Plated,PTH,ComponentDrill
T6C3.200
%
G90
G05
T1
X108.436Y-80.216
X108.436Y-122.216
X109.139Y-78.519
X109.139Y-81.914
X109.139Y-120.519
X109.139Y-123.914
X110.837Y-77.816
X110.837Y-82.617
X110.837Y-119.816
X110.837Y-124.616
X112.534Y-78.519
X112.534Y-81.914
X112.534Y-120.519
X112.534Y-123.914
X113.236Y-80.216
X113.236Y-122.216
X214.436Y-80.216
X214.436Y-122.216
X215.139Y-78.519
X215.139Y-81.914
X215.139Y-120.519
X215.139Y-123.914
X216.837Y-77.816
X216.837Y-82.617
X216.837Y-119.816
X216.837Y-124.616
X218.534Y-78.519
X218.534Y-81.914
X218.534Y-120.519
X218.534Y-123.914
X219.236Y-80.216
X219.236Y-122.216
T2
X158.957Y-107.648
X199.088Y-107.14
T3
X110.697Y-88.344
X110.697Y-98.504
X110.697Y-108.156
X131.524Y-118.825
X137.112Y-79.709
X146.256Y-79.709
X156.924Y-79.709
X156.924Y-118.825
X204.677Y-97.996
X204.677Y-104.093
X204.677Y-110.188
T4
X150.828Y-91.004
X150.828Y-98.504
T5
X114.636Y-88.344
X114.636Y-98.504
X114.636Y-108.664
X137.237Y-88.344
X137.237Y-98.504
X137.237Y-108.664
T6
X110.837Y-80.216
X110.837Y-122.216
X216.837Y-80.216
X216.837Y-122.216
M30
