%TF.GenerationSoftware,KiCad,Pcbnew,9.0.6-1.fc43app1*%
%TF.CreationDate,2025-12-27T19:53:41+01:00*%
%TF.ProjectId,VuMeterBoard,56754d65-7465-4724-926f-6172642e6b69,rev?*%
%TF.SameCoordinates,Original*%
%TF.FileFunction,Soldermask,Bot*%
%TF.FilePolarity,Negative*%
%FSLAX46Y46*%
G04 Gerber Fmt 4.6, Leading zero omitted, Abs format (unit mm)*
G04 Created by KiCad (PCBNEW 9.0.6-1.fc43app1) date 2025-12-27 19:53:41*
%MOMM*%
%LPD*%
G01*
G04 APERTURE LIST*
G04 Aperture macros list*
%AMRoundRect*
0 Rectangle with rounded corners*
0 $1 Rounding radius*
0 $2 $3 $4 $5 $6 $7 $8 $9 X,Y pos of 4 corners*
0 Add a 4 corners polygon primitive as box body*
4,1,4,$2,$3,$4,$5,$6,$7,$8,$9,$2,$3,0*
0 Add four circle primitives for the rounded corners*
1,1,$1+$1,$2,$3*
1,1,$1+$1,$4,$5*
1,1,$1+$1,$6,$7*
1,1,$1+$1,$8,$9*
0 Add four rect primitives between the rounded corners*
20,1,$1+$1,$2,$3,$4,$5,0*
20,1,$1+$1,$4,$5,$6,$7,0*
20,1,$1+$1,$6,$7,$8,$9,0*
20,1,$1+$1,$8,$9,$2,$3,0*%
G04 Aperture macros list end*
%ADD10C,0.800000*%
%ADD11C,6.400000*%
%ADD12RoundRect,0.250001X0.949999X-0.949999X0.949999X0.949999X-0.949999X0.949999X-0.949999X-0.949999X0*%
%ADD13C,2.400000*%
%ADD14R,1.700000X1.700000*%
%ADD15C,3.000000*%
G04 APERTURE END LIST*
D10*
%TO.C,H4*%
X214436500Y-122216500D03*
X215139444Y-120519444D03*
X215139444Y-123913556D03*
X216836500Y-119816500D03*
D11*
X216836500Y-122216500D03*
D10*
X216836500Y-124616500D03*
X218533556Y-120519444D03*
X218533556Y-123913556D03*
X219236500Y-122216500D03*
%TD*%
%TO.C,H3*%
X108436500Y-122216500D03*
X109139444Y-120519444D03*
X109139444Y-123913556D03*
X110836500Y-119816500D03*
D11*
X110836500Y-122216500D03*
D10*
X110836500Y-124616500D03*
X112533556Y-120519444D03*
X112533556Y-123913556D03*
X113236500Y-122216500D03*
%TD*%
%TO.C,H2*%
X214436500Y-80216500D03*
X215139444Y-78519444D03*
X215139444Y-81913556D03*
X216836500Y-77816500D03*
D11*
X216836500Y-80216500D03*
D10*
X216836500Y-82616500D03*
X218533556Y-78519444D03*
X218533556Y-81913556D03*
X219236500Y-80216500D03*
%TD*%
%TO.C,H1*%
X108436500Y-80216500D03*
X109139444Y-78519444D03*
X109139444Y-81913556D03*
X110836500Y-77816500D03*
D11*
X110836500Y-80216500D03*
D10*
X110836500Y-82616500D03*
X112533556Y-78519444D03*
X112533556Y-81913556D03*
X113236500Y-80216500D03*
%TD*%
D12*
%TO.C,C5*%
X150828500Y-98504500D03*
D13*
X150828500Y-91004500D03*
%TD*%
D14*
%TO.C,J8*%
X156924500Y-79708500D03*
%TD*%
%TO.C,J10*%
X204676500Y-104092500D03*
%TD*%
D15*
%TO.C,F006*%
X114636500Y-108664500D03*
X137236500Y-108664500D03*
%TD*%
D14*
%TO.C,J4*%
X110696500Y-98504500D03*
%TD*%
%TO.C,J11*%
X204676500Y-97996500D03*
%TD*%
%TO.C,J3*%
X146256500Y-79708500D03*
%TD*%
%TO.C,J5*%
X131524500Y-118824500D03*
%TD*%
%TO.C,J6*%
X110696500Y-108156500D03*
%TD*%
%TO.C,J1*%
X137112500Y-79708500D03*
%TD*%
D15*
%TO.C,F002*%
X114636500Y-88344500D03*
X137236500Y-88344500D03*
%TD*%
%TO.C,F003*%
X114636500Y-98504500D03*
X137236500Y-98504500D03*
%TD*%
D14*
%TO.C,J7*%
X156924500Y-118824500D03*
%TD*%
%TO.C,J9*%
X204676500Y-110188500D03*
%TD*%
%TO.C,J2*%
X110696500Y-88344500D03*
%TD*%
M02*
