%TF.GenerationSoftware,KiCad,Pcbnew,9.0.6-1.fc43app1*%
%TF.CreationDate,2025-12-27T19:53:40+01:00*%
%TF.ProjectId,VuMeterBoard,56754d65-7465-4724-926f-6172642e6b69,rev?*%
%TF.SameCoordinates,Original*%
%TF.FileFunction,Legend,Top*%
%TF.FilePolarity,Positive*%
%FSLAX46Y46*%
G04 Gerber Fmt 4.6, Leading zero omitted, Abs format (unit mm)*
G04 Created by KiCad (PCBNEW 9.0.6-1.fc43app1) date 2025-12-27 19:53:40*
%MOMM*%
%LPD*%
G01*
G04 APERTURE LIST*
%ADD10C,0.250000*%
%ADD11C,0.150000*%
%ADD12C,0.000000*%
%ADD13C,0.120000*%
G04 APERTURE END LIST*
D10*
X208190496Y-110561119D02*
X207857163Y-110084928D01*
X207619068Y-110561119D02*
X207619068Y-109561119D01*
X207619068Y-109561119D02*
X208000020Y-109561119D01*
X208000020Y-109561119D02*
X208095258Y-109608738D01*
X208095258Y-109608738D02*
X208142877Y-109656357D01*
X208142877Y-109656357D02*
X208190496Y-109751595D01*
X208190496Y-109751595D02*
X208190496Y-109894452D01*
X208190496Y-109894452D02*
X208142877Y-109989690D01*
X208142877Y-109989690D02*
X208095258Y-110037309D01*
X208095258Y-110037309D02*
X208000020Y-110084928D01*
X208000020Y-110084928D02*
X207619068Y-110084928D01*
X208142877Y-103512738D02*
X208047639Y-103465119D01*
X208047639Y-103465119D02*
X207904782Y-103465119D01*
X207904782Y-103465119D02*
X207761925Y-103512738D01*
X207761925Y-103512738D02*
X207666687Y-103607976D01*
X207666687Y-103607976D02*
X207619068Y-103703214D01*
X207619068Y-103703214D02*
X207571449Y-103893690D01*
X207571449Y-103893690D02*
X207571449Y-104036547D01*
X207571449Y-104036547D02*
X207619068Y-104227023D01*
X207619068Y-104227023D02*
X207666687Y-104322261D01*
X207666687Y-104322261D02*
X207761925Y-104417500D01*
X207761925Y-104417500D02*
X207904782Y-104465119D01*
X207904782Y-104465119D02*
X208000020Y-104465119D01*
X208000020Y-104465119D02*
X208142877Y-104417500D01*
X208142877Y-104417500D02*
X208190496Y-104369880D01*
X208190496Y-104369880D02*
X208190496Y-104036547D01*
X208190496Y-104036547D02*
X208000020Y-104036547D01*
X208619068Y-104465119D02*
X208619068Y-103465119D01*
X208619068Y-103465119D02*
X209190496Y-104465119D01*
X209190496Y-104465119D02*
X209190496Y-103465119D01*
X209666687Y-104465119D02*
X209666687Y-103465119D01*
X209666687Y-103465119D02*
X209904782Y-103465119D01*
X209904782Y-103465119D02*
X210047639Y-103512738D01*
X210047639Y-103512738D02*
X210142877Y-103607976D01*
X210142877Y-103607976D02*
X210190496Y-103703214D01*
X210190496Y-103703214D02*
X210238115Y-103893690D01*
X210238115Y-103893690D02*
X210238115Y-104036547D01*
X210238115Y-104036547D02*
X210190496Y-104227023D01*
X210190496Y-104227023D02*
X210142877Y-104322261D01*
X210142877Y-104322261D02*
X210047639Y-104417500D01*
X210047639Y-104417500D02*
X209904782Y-104465119D01*
X209904782Y-104465119D02*
X209666687Y-104465119D01*
X208095258Y-98369119D02*
X207619068Y-98369119D01*
X207619068Y-98369119D02*
X207619068Y-97369119D01*
D11*
X197397833Y-103944080D02*
X197350214Y-103991700D01*
X197350214Y-103991700D02*
X197207357Y-104039319D01*
X197207357Y-104039319D02*
X197112119Y-104039319D01*
X197112119Y-104039319D02*
X196969262Y-103991700D01*
X196969262Y-103991700D02*
X196874024Y-103896461D01*
X196874024Y-103896461D02*
X196826405Y-103801223D01*
X196826405Y-103801223D02*
X196778786Y-103610747D01*
X196778786Y-103610747D02*
X196778786Y-103467890D01*
X196778786Y-103467890D02*
X196826405Y-103277414D01*
X196826405Y-103277414D02*
X196874024Y-103182176D01*
X196874024Y-103182176D02*
X196969262Y-103086938D01*
X196969262Y-103086938D02*
X197112119Y-103039319D01*
X197112119Y-103039319D02*
X197207357Y-103039319D01*
X197207357Y-103039319D02*
X197350214Y-103086938D01*
X197350214Y-103086938D02*
X197397833Y-103134557D01*
X198254976Y-103039319D02*
X198064500Y-103039319D01*
X198064500Y-103039319D02*
X197969262Y-103086938D01*
X197969262Y-103086938D02*
X197921643Y-103134557D01*
X197921643Y-103134557D02*
X197826405Y-103277414D01*
X197826405Y-103277414D02*
X197778786Y-103467890D01*
X197778786Y-103467890D02*
X197778786Y-103848842D01*
X197778786Y-103848842D02*
X197826405Y-103944080D01*
X197826405Y-103944080D02*
X197874024Y-103991700D01*
X197874024Y-103991700D02*
X197969262Y-104039319D01*
X197969262Y-104039319D02*
X198159738Y-104039319D01*
X198159738Y-104039319D02*
X198254976Y-103991700D01*
X198254976Y-103991700D02*
X198302595Y-103944080D01*
X198302595Y-103944080D02*
X198350214Y-103848842D01*
X198350214Y-103848842D02*
X198350214Y-103610747D01*
X198350214Y-103610747D02*
X198302595Y-103515509D01*
X198302595Y-103515509D02*
X198254976Y-103467890D01*
X198254976Y-103467890D02*
X198159738Y-103420271D01*
X198159738Y-103420271D02*
X197969262Y-103420271D01*
X197969262Y-103420271D02*
X197874024Y-103467890D01*
X197874024Y-103467890D02*
X197826405Y-103515509D01*
X197826405Y-103515509D02*
X197778786Y-103610747D01*
X150661833Y-85148080D02*
X150614214Y-85195700D01*
X150614214Y-85195700D02*
X150471357Y-85243319D01*
X150471357Y-85243319D02*
X150376119Y-85243319D01*
X150376119Y-85243319D02*
X150233262Y-85195700D01*
X150233262Y-85195700D02*
X150138024Y-85100461D01*
X150138024Y-85100461D02*
X150090405Y-85005223D01*
X150090405Y-85005223D02*
X150042786Y-84814747D01*
X150042786Y-84814747D02*
X150042786Y-84671890D01*
X150042786Y-84671890D02*
X150090405Y-84481414D01*
X150090405Y-84481414D02*
X150138024Y-84386176D01*
X150138024Y-84386176D02*
X150233262Y-84290938D01*
X150233262Y-84290938D02*
X150376119Y-84243319D01*
X150376119Y-84243319D02*
X150471357Y-84243319D01*
X150471357Y-84243319D02*
X150614214Y-84290938D01*
X150614214Y-84290938D02*
X150661833Y-84338557D01*
X151566595Y-84243319D02*
X151090405Y-84243319D01*
X151090405Y-84243319D02*
X151042786Y-84719509D01*
X151042786Y-84719509D02*
X151090405Y-84671890D01*
X151090405Y-84671890D02*
X151185643Y-84624271D01*
X151185643Y-84624271D02*
X151423738Y-84624271D01*
X151423738Y-84624271D02*
X151518976Y-84671890D01*
X151518976Y-84671890D02*
X151566595Y-84719509D01*
X151566595Y-84719509D02*
X151614214Y-84814747D01*
X151614214Y-84814747D02*
X151614214Y-85052842D01*
X151614214Y-85052842D02*
X151566595Y-85148080D01*
X151566595Y-85148080D02*
X151518976Y-85195700D01*
X151518976Y-85195700D02*
X151423738Y-85243319D01*
X151423738Y-85243319D02*
X151185643Y-85243319D01*
X151185643Y-85243319D02*
X151090405Y-85195700D01*
X151090405Y-85195700D02*
X151042786Y-85148080D01*
X160990833Y-97434080D02*
X160943214Y-97481700D01*
X160943214Y-97481700D02*
X160800357Y-97529319D01*
X160800357Y-97529319D02*
X160705119Y-97529319D01*
X160705119Y-97529319D02*
X160562262Y-97481700D01*
X160562262Y-97481700D02*
X160467024Y-97386461D01*
X160467024Y-97386461D02*
X160419405Y-97291223D01*
X160419405Y-97291223D02*
X160371786Y-97100747D01*
X160371786Y-97100747D02*
X160371786Y-96957890D01*
X160371786Y-96957890D02*
X160419405Y-96767414D01*
X160419405Y-96767414D02*
X160467024Y-96672176D01*
X160467024Y-96672176D02*
X160562262Y-96576938D01*
X160562262Y-96576938D02*
X160705119Y-96529319D01*
X160705119Y-96529319D02*
X160800357Y-96529319D01*
X160800357Y-96529319D02*
X160943214Y-96576938D01*
X160943214Y-96576938D02*
X160990833Y-96624557D01*
X161943214Y-97529319D02*
X161371786Y-97529319D01*
X161657500Y-97529319D02*
X161657500Y-96529319D01*
X161657500Y-96529319D02*
X161562262Y-96672176D01*
X161562262Y-96672176D02*
X161467024Y-96767414D01*
X161467024Y-96767414D02*
X161371786Y-96815033D01*
X165306595Y-102531319D02*
X165306595Y-103340842D01*
X165306595Y-103340842D02*
X165354214Y-103436080D01*
X165354214Y-103436080D02*
X165401833Y-103483700D01*
X165401833Y-103483700D02*
X165497071Y-103531319D01*
X165497071Y-103531319D02*
X165687547Y-103531319D01*
X165687547Y-103531319D02*
X165782785Y-103483700D01*
X165782785Y-103483700D02*
X165830404Y-103436080D01*
X165830404Y-103436080D02*
X165878023Y-103340842D01*
X165878023Y-103340842D02*
X165878023Y-102531319D01*
X166878023Y-103531319D02*
X166306595Y-103531319D01*
X166592309Y-103531319D02*
X166592309Y-102531319D01*
X166592309Y-102531319D02*
X166497071Y-102674176D01*
X166497071Y-102674176D02*
X166401833Y-102769414D01*
X166401833Y-102769414D02*
X166306595Y-102817033D01*
X141454405Y-111659319D02*
X141454405Y-110659319D01*
X141454405Y-110659319D02*
X141692500Y-110659319D01*
X141692500Y-110659319D02*
X141835357Y-110706938D01*
X141835357Y-110706938D02*
X141930595Y-110802176D01*
X141930595Y-110802176D02*
X141978214Y-110897414D01*
X141978214Y-110897414D02*
X142025833Y-111087890D01*
X142025833Y-111087890D02*
X142025833Y-111230747D01*
X142025833Y-111230747D02*
X141978214Y-111421223D01*
X141978214Y-111421223D02*
X141930595Y-111516461D01*
X141930595Y-111516461D02*
X141835357Y-111611700D01*
X141835357Y-111611700D02*
X141692500Y-111659319D01*
X141692500Y-111659319D02*
X141454405Y-111659319D01*
X142359167Y-110659319D02*
X142978214Y-110659319D01*
X142978214Y-110659319D02*
X142644881Y-111040271D01*
X142644881Y-111040271D02*
X142787738Y-111040271D01*
X142787738Y-111040271D02*
X142882976Y-111087890D01*
X142882976Y-111087890D02*
X142930595Y-111135509D01*
X142930595Y-111135509D02*
X142978214Y-111230747D01*
X142978214Y-111230747D02*
X142978214Y-111468842D01*
X142978214Y-111468842D02*
X142930595Y-111564080D01*
X142930595Y-111564080D02*
X142882976Y-111611700D01*
X142882976Y-111611700D02*
X142787738Y-111659319D01*
X142787738Y-111659319D02*
X142502024Y-111659319D01*
X142502024Y-111659319D02*
X142406786Y-111611700D01*
X142406786Y-111611700D02*
X142359167Y-111564080D01*
X156591166Y-76783319D02*
X156591166Y-77497604D01*
X156591166Y-77497604D02*
X156543547Y-77640461D01*
X156543547Y-77640461D02*
X156448309Y-77735700D01*
X156448309Y-77735700D02*
X156305452Y-77783319D01*
X156305452Y-77783319D02*
X156210214Y-77783319D01*
X157210214Y-77211890D02*
X157114976Y-77164271D01*
X157114976Y-77164271D02*
X157067357Y-77116652D01*
X157067357Y-77116652D02*
X157019738Y-77021414D01*
X157019738Y-77021414D02*
X157019738Y-76973795D01*
X157019738Y-76973795D02*
X157067357Y-76878557D01*
X157067357Y-76878557D02*
X157114976Y-76830938D01*
X157114976Y-76830938D02*
X157210214Y-76783319D01*
X157210214Y-76783319D02*
X157400690Y-76783319D01*
X157400690Y-76783319D02*
X157495928Y-76830938D01*
X157495928Y-76830938D02*
X157543547Y-76878557D01*
X157543547Y-76878557D02*
X157591166Y-76973795D01*
X157591166Y-76973795D02*
X157591166Y-77021414D01*
X157591166Y-77021414D02*
X157543547Y-77116652D01*
X157543547Y-77116652D02*
X157495928Y-77164271D01*
X157495928Y-77164271D02*
X157400690Y-77211890D01*
X157400690Y-77211890D02*
X157210214Y-77211890D01*
X157210214Y-77211890D02*
X157114976Y-77259509D01*
X157114976Y-77259509D02*
X157067357Y-77307128D01*
X157067357Y-77307128D02*
X157019738Y-77402366D01*
X157019738Y-77402366D02*
X157019738Y-77592842D01*
X157019738Y-77592842D02*
X157067357Y-77688080D01*
X157067357Y-77688080D02*
X157114976Y-77735700D01*
X157114976Y-77735700D02*
X157210214Y-77783319D01*
X157210214Y-77783319D02*
X157400690Y-77783319D01*
X157400690Y-77783319D02*
X157495928Y-77735700D01*
X157495928Y-77735700D02*
X157543547Y-77688080D01*
X157543547Y-77688080D02*
X157591166Y-77592842D01*
X157591166Y-77592842D02*
X157591166Y-77402366D01*
X157591166Y-77402366D02*
X157543547Y-77307128D01*
X157543547Y-77307128D02*
X157495928Y-77259509D01*
X157495928Y-77259509D02*
X157400690Y-77211890D01*
X172950833Y-105911080D02*
X172903214Y-105958700D01*
X172903214Y-105958700D02*
X172760357Y-106006319D01*
X172760357Y-106006319D02*
X172665119Y-106006319D01*
X172665119Y-106006319D02*
X172522262Y-105958700D01*
X172522262Y-105958700D02*
X172427024Y-105863461D01*
X172427024Y-105863461D02*
X172379405Y-105768223D01*
X172379405Y-105768223D02*
X172331786Y-105577747D01*
X172331786Y-105577747D02*
X172331786Y-105434890D01*
X172331786Y-105434890D02*
X172379405Y-105244414D01*
X172379405Y-105244414D02*
X172427024Y-105149176D01*
X172427024Y-105149176D02*
X172522262Y-105053938D01*
X172522262Y-105053938D02*
X172665119Y-105006319D01*
X172665119Y-105006319D02*
X172760357Y-105006319D01*
X172760357Y-105006319D02*
X172903214Y-105053938D01*
X172903214Y-105053938D02*
X172950833Y-105101557D01*
X173807976Y-105339652D02*
X173807976Y-106006319D01*
X173569881Y-104958700D02*
X173331786Y-105672985D01*
X173331786Y-105672985D02*
X173950833Y-105672985D01*
X195810833Y-96354319D02*
X195477500Y-95878128D01*
X195239405Y-96354319D02*
X195239405Y-95354319D01*
X195239405Y-95354319D02*
X195620357Y-95354319D01*
X195620357Y-95354319D02*
X195715595Y-95401938D01*
X195715595Y-95401938D02*
X195763214Y-95449557D01*
X195763214Y-95449557D02*
X195810833Y-95544795D01*
X195810833Y-95544795D02*
X195810833Y-95687652D01*
X195810833Y-95687652D02*
X195763214Y-95782890D01*
X195763214Y-95782890D02*
X195715595Y-95830509D01*
X195715595Y-95830509D02*
X195620357Y-95878128D01*
X195620357Y-95878128D02*
X195239405Y-95878128D01*
X196667976Y-95687652D02*
X196667976Y-96354319D01*
X196429881Y-95306700D02*
X196191786Y-96020985D01*
X196191786Y-96020985D02*
X196810833Y-96020985D01*
X203866976Y-101167319D02*
X203866976Y-101881604D01*
X203866976Y-101881604D02*
X203819357Y-102024461D01*
X203819357Y-102024461D02*
X203724119Y-102119700D01*
X203724119Y-102119700D02*
X203581262Y-102167319D01*
X203581262Y-102167319D02*
X203486024Y-102167319D01*
X204866976Y-102167319D02*
X204295548Y-102167319D01*
X204581262Y-102167319D02*
X204581262Y-101167319D01*
X204581262Y-101167319D02*
X204486024Y-101310176D01*
X204486024Y-101310176D02*
X204390786Y-101405414D01*
X204390786Y-101405414D02*
X204295548Y-101453033D01*
X205486024Y-101167319D02*
X205581262Y-101167319D01*
X205581262Y-101167319D02*
X205676500Y-101214938D01*
X205676500Y-101214938D02*
X205724119Y-101262557D01*
X205724119Y-101262557D02*
X205771738Y-101357795D01*
X205771738Y-101357795D02*
X205819357Y-101548271D01*
X205819357Y-101548271D02*
X205819357Y-101786366D01*
X205819357Y-101786366D02*
X205771738Y-101976842D01*
X205771738Y-101976842D02*
X205724119Y-102072080D01*
X205724119Y-102072080D02*
X205676500Y-102119700D01*
X205676500Y-102119700D02*
X205581262Y-102167319D01*
X205581262Y-102167319D02*
X205486024Y-102167319D01*
X205486024Y-102167319D02*
X205390786Y-102119700D01*
X205390786Y-102119700D02*
X205343167Y-102072080D01*
X205343167Y-102072080D02*
X205295548Y-101976842D01*
X205295548Y-101976842D02*
X205247929Y-101786366D01*
X205247929Y-101786366D02*
X205247929Y-101548271D01*
X205247929Y-101548271D02*
X205295548Y-101357795D01*
X205295548Y-101357795D02*
X205343167Y-101262557D01*
X205343167Y-101262557D02*
X205390786Y-101214938D01*
X205390786Y-101214938D02*
X205486024Y-101167319D01*
X110982285Y-112707009D02*
X110648952Y-112707009D01*
X110648952Y-113230819D02*
X110648952Y-112230819D01*
X110648952Y-112230819D02*
X111125142Y-112230819D01*
X111696571Y-112230819D02*
X111791809Y-112230819D01*
X111791809Y-112230819D02*
X111887047Y-112278438D01*
X111887047Y-112278438D02*
X111934666Y-112326057D01*
X111934666Y-112326057D02*
X111982285Y-112421295D01*
X111982285Y-112421295D02*
X112029904Y-112611771D01*
X112029904Y-112611771D02*
X112029904Y-112849866D01*
X112029904Y-112849866D02*
X111982285Y-113040342D01*
X111982285Y-113040342D02*
X111934666Y-113135580D01*
X111934666Y-113135580D02*
X111887047Y-113183200D01*
X111887047Y-113183200D02*
X111791809Y-113230819D01*
X111791809Y-113230819D02*
X111696571Y-113230819D01*
X111696571Y-113230819D02*
X111601333Y-113183200D01*
X111601333Y-113183200D02*
X111553714Y-113135580D01*
X111553714Y-113135580D02*
X111506095Y-113040342D01*
X111506095Y-113040342D02*
X111458476Y-112849866D01*
X111458476Y-112849866D02*
X111458476Y-112611771D01*
X111458476Y-112611771D02*
X111506095Y-112421295D01*
X111506095Y-112421295D02*
X111553714Y-112326057D01*
X111553714Y-112326057D02*
X111601333Y-112278438D01*
X111601333Y-112278438D02*
X111696571Y-112230819D01*
X112648952Y-112230819D02*
X112744190Y-112230819D01*
X112744190Y-112230819D02*
X112839428Y-112278438D01*
X112839428Y-112278438D02*
X112887047Y-112326057D01*
X112887047Y-112326057D02*
X112934666Y-112421295D01*
X112934666Y-112421295D02*
X112982285Y-112611771D01*
X112982285Y-112611771D02*
X112982285Y-112849866D01*
X112982285Y-112849866D02*
X112934666Y-113040342D01*
X112934666Y-113040342D02*
X112887047Y-113135580D01*
X112887047Y-113135580D02*
X112839428Y-113183200D01*
X112839428Y-113183200D02*
X112744190Y-113230819D01*
X112744190Y-113230819D02*
X112648952Y-113230819D01*
X112648952Y-113230819D02*
X112553714Y-113183200D01*
X112553714Y-113183200D02*
X112506095Y-113135580D01*
X112506095Y-113135580D02*
X112458476Y-113040342D01*
X112458476Y-113040342D02*
X112410857Y-112849866D01*
X112410857Y-112849866D02*
X112410857Y-112611771D01*
X112410857Y-112611771D02*
X112458476Y-112421295D01*
X112458476Y-112421295D02*
X112506095Y-112326057D01*
X112506095Y-112326057D02*
X112553714Y-112278438D01*
X112553714Y-112278438D02*
X112648952Y-112230819D01*
X113839428Y-112230819D02*
X113648952Y-112230819D01*
X113648952Y-112230819D02*
X113553714Y-112278438D01*
X113553714Y-112278438D02*
X113506095Y-112326057D01*
X113506095Y-112326057D02*
X113410857Y-112468914D01*
X113410857Y-112468914D02*
X113363238Y-112659390D01*
X113363238Y-112659390D02*
X113363238Y-113040342D01*
X113363238Y-113040342D02*
X113410857Y-113135580D01*
X113410857Y-113135580D02*
X113458476Y-113183200D01*
X113458476Y-113183200D02*
X113553714Y-113230819D01*
X113553714Y-113230819D02*
X113744190Y-113230819D01*
X113744190Y-113230819D02*
X113839428Y-113183200D01*
X113839428Y-113183200D02*
X113887047Y-113135580D01*
X113887047Y-113135580D02*
X113934666Y-113040342D01*
X113934666Y-113040342D02*
X113934666Y-112802247D01*
X113934666Y-112802247D02*
X113887047Y-112707009D01*
X113887047Y-112707009D02*
X113839428Y-112659390D01*
X113839428Y-112659390D02*
X113744190Y-112611771D01*
X113744190Y-112611771D02*
X113553714Y-112611771D01*
X113553714Y-112611771D02*
X113458476Y-112659390D01*
X113458476Y-112659390D02*
X113410857Y-112707009D01*
X113410857Y-112707009D02*
X113363238Y-112802247D01*
X110363166Y-95579319D02*
X110363166Y-96293604D01*
X110363166Y-96293604D02*
X110315547Y-96436461D01*
X110315547Y-96436461D02*
X110220309Y-96531700D01*
X110220309Y-96531700D02*
X110077452Y-96579319D01*
X110077452Y-96579319D02*
X109982214Y-96579319D01*
X111267928Y-95912652D02*
X111267928Y-96579319D01*
X111029833Y-95531700D02*
X110791738Y-96245985D01*
X110791738Y-96245985D02*
X111410785Y-96245985D01*
X186666833Y-96354319D02*
X186333500Y-95878128D01*
X186095405Y-96354319D02*
X186095405Y-95354319D01*
X186095405Y-95354319D02*
X186476357Y-95354319D01*
X186476357Y-95354319D02*
X186571595Y-95401938D01*
X186571595Y-95401938D02*
X186619214Y-95449557D01*
X186619214Y-95449557D02*
X186666833Y-95544795D01*
X186666833Y-95544795D02*
X186666833Y-95687652D01*
X186666833Y-95687652D02*
X186619214Y-95782890D01*
X186619214Y-95782890D02*
X186571595Y-95830509D01*
X186571595Y-95830509D02*
X186476357Y-95878128D01*
X186476357Y-95878128D02*
X186095405Y-95878128D01*
X187047786Y-95449557D02*
X187095405Y-95401938D01*
X187095405Y-95401938D02*
X187190643Y-95354319D01*
X187190643Y-95354319D02*
X187428738Y-95354319D01*
X187428738Y-95354319D02*
X187523976Y-95401938D01*
X187523976Y-95401938D02*
X187571595Y-95449557D01*
X187571595Y-95449557D02*
X187619214Y-95544795D01*
X187619214Y-95544795D02*
X187619214Y-95640033D01*
X187619214Y-95640033D02*
X187571595Y-95782890D01*
X187571595Y-95782890D02*
X187000167Y-96354319D01*
X187000167Y-96354319D02*
X187619214Y-96354319D01*
X203866976Y-95071319D02*
X203866976Y-95785604D01*
X203866976Y-95785604D02*
X203819357Y-95928461D01*
X203819357Y-95928461D02*
X203724119Y-96023700D01*
X203724119Y-96023700D02*
X203581262Y-96071319D01*
X203581262Y-96071319D02*
X203486024Y-96071319D01*
X204866976Y-96071319D02*
X204295548Y-96071319D01*
X204581262Y-96071319D02*
X204581262Y-95071319D01*
X204581262Y-95071319D02*
X204486024Y-95214176D01*
X204486024Y-95214176D02*
X204390786Y-95309414D01*
X204390786Y-95309414D02*
X204295548Y-95357033D01*
X205819357Y-96071319D02*
X205247929Y-96071319D01*
X205533643Y-96071319D02*
X205533643Y-95071319D01*
X205533643Y-95071319D02*
X205438405Y-95214176D01*
X205438405Y-95214176D02*
X205343167Y-95309414D01*
X205343167Y-95309414D02*
X205247929Y-95357033D01*
X145923166Y-76783319D02*
X145923166Y-77497604D01*
X145923166Y-77497604D02*
X145875547Y-77640461D01*
X145875547Y-77640461D02*
X145780309Y-77735700D01*
X145780309Y-77735700D02*
X145637452Y-77783319D01*
X145637452Y-77783319D02*
X145542214Y-77783319D01*
X146304119Y-76783319D02*
X146923166Y-76783319D01*
X146923166Y-76783319D02*
X146589833Y-77164271D01*
X146589833Y-77164271D02*
X146732690Y-77164271D01*
X146732690Y-77164271D02*
X146827928Y-77211890D01*
X146827928Y-77211890D02*
X146875547Y-77259509D01*
X146875547Y-77259509D02*
X146923166Y-77354747D01*
X146923166Y-77354747D02*
X146923166Y-77592842D01*
X146923166Y-77592842D02*
X146875547Y-77688080D01*
X146875547Y-77688080D02*
X146827928Y-77735700D01*
X146827928Y-77735700D02*
X146732690Y-77783319D01*
X146732690Y-77783319D02*
X146446976Y-77783319D01*
X146446976Y-77783319D02*
X146351738Y-77735700D01*
X146351738Y-77735700D02*
X146304119Y-77688080D01*
X131191166Y-115899319D02*
X131191166Y-116613604D01*
X131191166Y-116613604D02*
X131143547Y-116756461D01*
X131143547Y-116756461D02*
X131048309Y-116851700D01*
X131048309Y-116851700D02*
X130905452Y-116899319D01*
X130905452Y-116899319D02*
X130810214Y-116899319D01*
X132143547Y-115899319D02*
X131667357Y-115899319D01*
X131667357Y-115899319D02*
X131619738Y-116375509D01*
X131619738Y-116375509D02*
X131667357Y-116327890D01*
X131667357Y-116327890D02*
X131762595Y-116280271D01*
X131762595Y-116280271D02*
X132000690Y-116280271D01*
X132000690Y-116280271D02*
X132095928Y-116327890D01*
X132095928Y-116327890D02*
X132143547Y-116375509D01*
X132143547Y-116375509D02*
X132191166Y-116470747D01*
X132191166Y-116470747D02*
X132191166Y-116708842D01*
X132191166Y-116708842D02*
X132143547Y-116804080D01*
X132143547Y-116804080D02*
X132095928Y-116851700D01*
X132095928Y-116851700D02*
X132000690Y-116899319D01*
X132000690Y-116899319D02*
X131762595Y-116899319D01*
X131762595Y-116899319D02*
X131667357Y-116851700D01*
X131667357Y-116851700D02*
X131619738Y-116804080D01*
X192445833Y-112610319D02*
X192112500Y-112134128D01*
X191874405Y-112610319D02*
X191874405Y-111610319D01*
X191874405Y-111610319D02*
X192255357Y-111610319D01*
X192255357Y-111610319D02*
X192350595Y-111657938D01*
X192350595Y-111657938D02*
X192398214Y-111705557D01*
X192398214Y-111705557D02*
X192445833Y-111800795D01*
X192445833Y-111800795D02*
X192445833Y-111943652D01*
X192445833Y-111943652D02*
X192398214Y-112038890D01*
X192398214Y-112038890D02*
X192350595Y-112086509D01*
X192350595Y-112086509D02*
X192255357Y-112134128D01*
X192255357Y-112134128D02*
X191874405Y-112134128D01*
X192779167Y-111610319D02*
X193445833Y-111610319D01*
X193445833Y-111610319D02*
X193017262Y-112610319D01*
X198858405Y-112167319D02*
X198858405Y-111167319D01*
X198858405Y-111167319D02*
X199096500Y-111167319D01*
X199096500Y-111167319D02*
X199239357Y-111214938D01*
X199239357Y-111214938D02*
X199334595Y-111310176D01*
X199334595Y-111310176D02*
X199382214Y-111405414D01*
X199382214Y-111405414D02*
X199429833Y-111595890D01*
X199429833Y-111595890D02*
X199429833Y-111738747D01*
X199429833Y-111738747D02*
X199382214Y-111929223D01*
X199382214Y-111929223D02*
X199334595Y-112024461D01*
X199334595Y-112024461D02*
X199239357Y-112119700D01*
X199239357Y-112119700D02*
X199096500Y-112167319D01*
X199096500Y-112167319D02*
X198858405Y-112167319D01*
X199810786Y-111262557D02*
X199858405Y-111214938D01*
X199858405Y-111214938D02*
X199953643Y-111167319D01*
X199953643Y-111167319D02*
X200191738Y-111167319D01*
X200191738Y-111167319D02*
X200286976Y-111214938D01*
X200286976Y-111214938D02*
X200334595Y-111262557D01*
X200334595Y-111262557D02*
X200382214Y-111357795D01*
X200382214Y-111357795D02*
X200382214Y-111453033D01*
X200382214Y-111453033D02*
X200334595Y-111595890D01*
X200334595Y-111595890D02*
X199763167Y-112167319D01*
X199763167Y-112167319D02*
X200382214Y-112167319D01*
X186666833Y-105056319D02*
X186333500Y-104580128D01*
X186095405Y-105056319D02*
X186095405Y-104056319D01*
X186095405Y-104056319D02*
X186476357Y-104056319D01*
X186476357Y-104056319D02*
X186571595Y-104103938D01*
X186571595Y-104103938D02*
X186619214Y-104151557D01*
X186619214Y-104151557D02*
X186666833Y-104246795D01*
X186666833Y-104246795D02*
X186666833Y-104389652D01*
X186666833Y-104389652D02*
X186619214Y-104484890D01*
X186619214Y-104484890D02*
X186571595Y-104532509D01*
X186571595Y-104532509D02*
X186476357Y-104580128D01*
X186476357Y-104580128D02*
X186095405Y-104580128D01*
X187523976Y-104056319D02*
X187333500Y-104056319D01*
X187333500Y-104056319D02*
X187238262Y-104103938D01*
X187238262Y-104103938D02*
X187190643Y-104151557D01*
X187190643Y-104151557D02*
X187095405Y-104294414D01*
X187095405Y-104294414D02*
X187047786Y-104484890D01*
X187047786Y-104484890D02*
X187047786Y-104865842D01*
X187047786Y-104865842D02*
X187095405Y-104961080D01*
X187095405Y-104961080D02*
X187143024Y-105008700D01*
X187143024Y-105008700D02*
X187238262Y-105056319D01*
X187238262Y-105056319D02*
X187428738Y-105056319D01*
X187428738Y-105056319D02*
X187523976Y-105008700D01*
X187523976Y-105008700D02*
X187571595Y-104961080D01*
X187571595Y-104961080D02*
X187619214Y-104865842D01*
X187619214Y-104865842D02*
X187619214Y-104627747D01*
X187619214Y-104627747D02*
X187571595Y-104532509D01*
X187571595Y-104532509D02*
X187523976Y-104484890D01*
X187523976Y-104484890D02*
X187428738Y-104437271D01*
X187428738Y-104437271D02*
X187238262Y-104437271D01*
X187238262Y-104437271D02*
X187143024Y-104484890D01*
X187143024Y-104484890D02*
X187095405Y-104532509D01*
X187095405Y-104532509D02*
X187047786Y-104627747D01*
X110363166Y-105231319D02*
X110363166Y-105945604D01*
X110363166Y-105945604D02*
X110315547Y-106088461D01*
X110315547Y-106088461D02*
X110220309Y-106183700D01*
X110220309Y-106183700D02*
X110077452Y-106231319D01*
X110077452Y-106231319D02*
X109982214Y-106231319D01*
X111267928Y-105231319D02*
X111077452Y-105231319D01*
X111077452Y-105231319D02*
X110982214Y-105278938D01*
X110982214Y-105278938D02*
X110934595Y-105326557D01*
X110934595Y-105326557D02*
X110839357Y-105469414D01*
X110839357Y-105469414D02*
X110791738Y-105659890D01*
X110791738Y-105659890D02*
X110791738Y-106040842D01*
X110791738Y-106040842D02*
X110839357Y-106136080D01*
X110839357Y-106136080D02*
X110886976Y-106183700D01*
X110886976Y-106183700D02*
X110982214Y-106231319D01*
X110982214Y-106231319D02*
X111172690Y-106231319D01*
X111172690Y-106231319D02*
X111267928Y-106183700D01*
X111267928Y-106183700D02*
X111315547Y-106136080D01*
X111315547Y-106136080D02*
X111363166Y-106040842D01*
X111363166Y-106040842D02*
X111363166Y-105802747D01*
X111363166Y-105802747D02*
X111315547Y-105707509D01*
X111315547Y-105707509D02*
X111267928Y-105659890D01*
X111267928Y-105659890D02*
X111172690Y-105612271D01*
X111172690Y-105612271D02*
X110982214Y-105612271D01*
X110982214Y-105612271D02*
X110886976Y-105659890D01*
X110886976Y-105659890D02*
X110839357Y-105707509D01*
X110839357Y-105707509D02*
X110791738Y-105802747D01*
X172950833Y-95751080D02*
X172903214Y-95798700D01*
X172903214Y-95798700D02*
X172760357Y-95846319D01*
X172760357Y-95846319D02*
X172665119Y-95846319D01*
X172665119Y-95846319D02*
X172522262Y-95798700D01*
X172522262Y-95798700D02*
X172427024Y-95703461D01*
X172427024Y-95703461D02*
X172379405Y-95608223D01*
X172379405Y-95608223D02*
X172331786Y-95417747D01*
X172331786Y-95417747D02*
X172331786Y-95274890D01*
X172331786Y-95274890D02*
X172379405Y-95084414D01*
X172379405Y-95084414D02*
X172427024Y-94989176D01*
X172427024Y-94989176D02*
X172522262Y-94893938D01*
X172522262Y-94893938D02*
X172665119Y-94846319D01*
X172665119Y-94846319D02*
X172760357Y-94846319D01*
X172760357Y-94846319D02*
X172903214Y-94893938D01*
X172903214Y-94893938D02*
X172950833Y-94941557D01*
X173284167Y-94846319D02*
X173903214Y-94846319D01*
X173903214Y-94846319D02*
X173569881Y-95227271D01*
X173569881Y-95227271D02*
X173712738Y-95227271D01*
X173712738Y-95227271D02*
X173807976Y-95274890D01*
X173807976Y-95274890D02*
X173855595Y-95322509D01*
X173855595Y-95322509D02*
X173903214Y-95417747D01*
X173903214Y-95417747D02*
X173903214Y-95655842D01*
X173903214Y-95655842D02*
X173855595Y-95751080D01*
X173855595Y-95751080D02*
X173807976Y-95798700D01*
X173807976Y-95798700D02*
X173712738Y-95846319D01*
X173712738Y-95846319D02*
X173427024Y-95846319D01*
X173427024Y-95846319D02*
X173331786Y-95798700D01*
X173331786Y-95798700D02*
X173284167Y-95751080D01*
X160990833Y-109532080D02*
X160943214Y-109579700D01*
X160943214Y-109579700D02*
X160800357Y-109627319D01*
X160800357Y-109627319D02*
X160705119Y-109627319D01*
X160705119Y-109627319D02*
X160562262Y-109579700D01*
X160562262Y-109579700D02*
X160467024Y-109484461D01*
X160467024Y-109484461D02*
X160419405Y-109389223D01*
X160419405Y-109389223D02*
X160371786Y-109198747D01*
X160371786Y-109198747D02*
X160371786Y-109055890D01*
X160371786Y-109055890D02*
X160419405Y-108865414D01*
X160419405Y-108865414D02*
X160467024Y-108770176D01*
X160467024Y-108770176D02*
X160562262Y-108674938D01*
X160562262Y-108674938D02*
X160705119Y-108627319D01*
X160705119Y-108627319D02*
X160800357Y-108627319D01*
X160800357Y-108627319D02*
X160943214Y-108674938D01*
X160943214Y-108674938D02*
X160990833Y-108722557D01*
X161371786Y-108722557D02*
X161419405Y-108674938D01*
X161419405Y-108674938D02*
X161514643Y-108627319D01*
X161514643Y-108627319D02*
X161752738Y-108627319D01*
X161752738Y-108627319D02*
X161847976Y-108674938D01*
X161847976Y-108674938D02*
X161895595Y-108722557D01*
X161895595Y-108722557D02*
X161943214Y-108817795D01*
X161943214Y-108817795D02*
X161943214Y-108913033D01*
X161943214Y-108913033D02*
X161895595Y-109055890D01*
X161895595Y-109055890D02*
X161324167Y-109627319D01*
X161324167Y-109627319D02*
X161943214Y-109627319D01*
X136779166Y-76783319D02*
X136779166Y-77497604D01*
X136779166Y-77497604D02*
X136731547Y-77640461D01*
X136731547Y-77640461D02*
X136636309Y-77735700D01*
X136636309Y-77735700D02*
X136493452Y-77783319D01*
X136493452Y-77783319D02*
X136398214Y-77783319D01*
X137779166Y-77783319D02*
X137207738Y-77783319D01*
X137493452Y-77783319D02*
X137493452Y-76783319D01*
X137493452Y-76783319D02*
X137398214Y-76926176D01*
X137398214Y-76926176D02*
X137302976Y-77021414D01*
X137302976Y-77021414D02*
X137207738Y-77069033D01*
X193461833Y-96354319D02*
X193128500Y-95878128D01*
X192890405Y-96354319D02*
X192890405Y-95354319D01*
X192890405Y-95354319D02*
X193271357Y-95354319D01*
X193271357Y-95354319D02*
X193366595Y-95401938D01*
X193366595Y-95401938D02*
X193414214Y-95449557D01*
X193414214Y-95449557D02*
X193461833Y-95544795D01*
X193461833Y-95544795D02*
X193461833Y-95687652D01*
X193461833Y-95687652D02*
X193414214Y-95782890D01*
X193414214Y-95782890D02*
X193366595Y-95830509D01*
X193366595Y-95830509D02*
X193271357Y-95878128D01*
X193271357Y-95878128D02*
X192890405Y-95878128D01*
X193795167Y-95354319D02*
X194414214Y-95354319D01*
X194414214Y-95354319D02*
X194080881Y-95735271D01*
X194080881Y-95735271D02*
X194223738Y-95735271D01*
X194223738Y-95735271D02*
X194318976Y-95782890D01*
X194318976Y-95782890D02*
X194366595Y-95830509D01*
X194366595Y-95830509D02*
X194414214Y-95925747D01*
X194414214Y-95925747D02*
X194414214Y-96163842D01*
X194414214Y-96163842D02*
X194366595Y-96259080D01*
X194366595Y-96259080D02*
X194318976Y-96306700D01*
X194318976Y-96306700D02*
X194223738Y-96354319D01*
X194223738Y-96354319D02*
X193938024Y-96354319D01*
X193938024Y-96354319D02*
X193842786Y-96306700D01*
X193842786Y-96306700D02*
X193795167Y-96259080D01*
X110982285Y-92387009D02*
X110648952Y-92387009D01*
X110648952Y-92910819D02*
X110648952Y-91910819D01*
X110648952Y-91910819D02*
X111125142Y-91910819D01*
X111696571Y-91910819D02*
X111791809Y-91910819D01*
X111791809Y-91910819D02*
X111887047Y-91958438D01*
X111887047Y-91958438D02*
X111934666Y-92006057D01*
X111934666Y-92006057D02*
X111982285Y-92101295D01*
X111982285Y-92101295D02*
X112029904Y-92291771D01*
X112029904Y-92291771D02*
X112029904Y-92529866D01*
X112029904Y-92529866D02*
X111982285Y-92720342D01*
X111982285Y-92720342D02*
X111934666Y-92815580D01*
X111934666Y-92815580D02*
X111887047Y-92863200D01*
X111887047Y-92863200D02*
X111791809Y-92910819D01*
X111791809Y-92910819D02*
X111696571Y-92910819D01*
X111696571Y-92910819D02*
X111601333Y-92863200D01*
X111601333Y-92863200D02*
X111553714Y-92815580D01*
X111553714Y-92815580D02*
X111506095Y-92720342D01*
X111506095Y-92720342D02*
X111458476Y-92529866D01*
X111458476Y-92529866D02*
X111458476Y-92291771D01*
X111458476Y-92291771D02*
X111506095Y-92101295D01*
X111506095Y-92101295D02*
X111553714Y-92006057D01*
X111553714Y-92006057D02*
X111601333Y-91958438D01*
X111601333Y-91958438D02*
X111696571Y-91910819D01*
X112648952Y-91910819D02*
X112744190Y-91910819D01*
X112744190Y-91910819D02*
X112839428Y-91958438D01*
X112839428Y-91958438D02*
X112887047Y-92006057D01*
X112887047Y-92006057D02*
X112934666Y-92101295D01*
X112934666Y-92101295D02*
X112982285Y-92291771D01*
X112982285Y-92291771D02*
X112982285Y-92529866D01*
X112982285Y-92529866D02*
X112934666Y-92720342D01*
X112934666Y-92720342D02*
X112887047Y-92815580D01*
X112887047Y-92815580D02*
X112839428Y-92863200D01*
X112839428Y-92863200D02*
X112744190Y-92910819D01*
X112744190Y-92910819D02*
X112648952Y-92910819D01*
X112648952Y-92910819D02*
X112553714Y-92863200D01*
X112553714Y-92863200D02*
X112506095Y-92815580D01*
X112506095Y-92815580D02*
X112458476Y-92720342D01*
X112458476Y-92720342D02*
X112410857Y-92529866D01*
X112410857Y-92529866D02*
X112410857Y-92291771D01*
X112410857Y-92291771D02*
X112458476Y-92101295D01*
X112458476Y-92101295D02*
X112506095Y-92006057D01*
X112506095Y-92006057D02*
X112553714Y-91958438D01*
X112553714Y-91958438D02*
X112648952Y-91910819D01*
X113363238Y-92006057D02*
X113410857Y-91958438D01*
X113410857Y-91958438D02*
X113506095Y-91910819D01*
X113506095Y-91910819D02*
X113744190Y-91910819D01*
X113744190Y-91910819D02*
X113839428Y-91958438D01*
X113839428Y-91958438D02*
X113887047Y-92006057D01*
X113887047Y-92006057D02*
X113934666Y-92101295D01*
X113934666Y-92101295D02*
X113934666Y-92196533D01*
X113934666Y-92196533D02*
X113887047Y-92339390D01*
X113887047Y-92339390D02*
X113315619Y-92910819D01*
X113315619Y-92910819D02*
X113934666Y-92910819D01*
X198858405Y-96927319D02*
X198858405Y-95927319D01*
X198858405Y-95927319D02*
X199096500Y-95927319D01*
X199096500Y-95927319D02*
X199239357Y-95974938D01*
X199239357Y-95974938D02*
X199334595Y-96070176D01*
X199334595Y-96070176D02*
X199382214Y-96165414D01*
X199382214Y-96165414D02*
X199429833Y-96355890D01*
X199429833Y-96355890D02*
X199429833Y-96498747D01*
X199429833Y-96498747D02*
X199382214Y-96689223D01*
X199382214Y-96689223D02*
X199334595Y-96784461D01*
X199334595Y-96784461D02*
X199239357Y-96879700D01*
X199239357Y-96879700D02*
X199096500Y-96927319D01*
X199096500Y-96927319D02*
X198858405Y-96927319D01*
X200382214Y-96927319D02*
X199810786Y-96927319D01*
X200096500Y-96927319D02*
X200096500Y-95927319D01*
X200096500Y-95927319D02*
X200001262Y-96070176D01*
X200001262Y-96070176D02*
X199906024Y-96165414D01*
X199906024Y-96165414D02*
X199810786Y-96213033D01*
X110982285Y-102547009D02*
X110648952Y-102547009D01*
X110648952Y-103070819D02*
X110648952Y-102070819D01*
X110648952Y-102070819D02*
X111125142Y-102070819D01*
X111696571Y-102070819D02*
X111791809Y-102070819D01*
X111791809Y-102070819D02*
X111887047Y-102118438D01*
X111887047Y-102118438D02*
X111934666Y-102166057D01*
X111934666Y-102166057D02*
X111982285Y-102261295D01*
X111982285Y-102261295D02*
X112029904Y-102451771D01*
X112029904Y-102451771D02*
X112029904Y-102689866D01*
X112029904Y-102689866D02*
X111982285Y-102880342D01*
X111982285Y-102880342D02*
X111934666Y-102975580D01*
X111934666Y-102975580D02*
X111887047Y-103023200D01*
X111887047Y-103023200D02*
X111791809Y-103070819D01*
X111791809Y-103070819D02*
X111696571Y-103070819D01*
X111696571Y-103070819D02*
X111601333Y-103023200D01*
X111601333Y-103023200D02*
X111553714Y-102975580D01*
X111553714Y-102975580D02*
X111506095Y-102880342D01*
X111506095Y-102880342D02*
X111458476Y-102689866D01*
X111458476Y-102689866D02*
X111458476Y-102451771D01*
X111458476Y-102451771D02*
X111506095Y-102261295D01*
X111506095Y-102261295D02*
X111553714Y-102166057D01*
X111553714Y-102166057D02*
X111601333Y-102118438D01*
X111601333Y-102118438D02*
X111696571Y-102070819D01*
X112648952Y-102070819D02*
X112744190Y-102070819D01*
X112744190Y-102070819D02*
X112839428Y-102118438D01*
X112839428Y-102118438D02*
X112887047Y-102166057D01*
X112887047Y-102166057D02*
X112934666Y-102261295D01*
X112934666Y-102261295D02*
X112982285Y-102451771D01*
X112982285Y-102451771D02*
X112982285Y-102689866D01*
X112982285Y-102689866D02*
X112934666Y-102880342D01*
X112934666Y-102880342D02*
X112887047Y-102975580D01*
X112887047Y-102975580D02*
X112839428Y-103023200D01*
X112839428Y-103023200D02*
X112744190Y-103070819D01*
X112744190Y-103070819D02*
X112648952Y-103070819D01*
X112648952Y-103070819D02*
X112553714Y-103023200D01*
X112553714Y-103023200D02*
X112506095Y-102975580D01*
X112506095Y-102975580D02*
X112458476Y-102880342D01*
X112458476Y-102880342D02*
X112410857Y-102689866D01*
X112410857Y-102689866D02*
X112410857Y-102451771D01*
X112410857Y-102451771D02*
X112458476Y-102261295D01*
X112458476Y-102261295D02*
X112506095Y-102166057D01*
X112506095Y-102166057D02*
X112553714Y-102118438D01*
X112553714Y-102118438D02*
X112648952Y-102070819D01*
X113315619Y-102070819D02*
X113934666Y-102070819D01*
X113934666Y-102070819D02*
X113601333Y-102451771D01*
X113601333Y-102451771D02*
X113744190Y-102451771D01*
X113744190Y-102451771D02*
X113839428Y-102499390D01*
X113839428Y-102499390D02*
X113887047Y-102547009D01*
X113887047Y-102547009D02*
X113934666Y-102642247D01*
X113934666Y-102642247D02*
X113934666Y-102880342D01*
X113934666Y-102880342D02*
X113887047Y-102975580D01*
X113887047Y-102975580D02*
X113839428Y-103023200D01*
X113839428Y-103023200D02*
X113744190Y-103070819D01*
X113744190Y-103070819D02*
X113458476Y-103070819D01*
X113458476Y-103070819D02*
X113363238Y-103023200D01*
X113363238Y-103023200D02*
X113315619Y-102975580D01*
X181078833Y-105036319D02*
X180745500Y-104560128D01*
X180507405Y-105036319D02*
X180507405Y-104036319D01*
X180507405Y-104036319D02*
X180888357Y-104036319D01*
X180888357Y-104036319D02*
X180983595Y-104083938D01*
X180983595Y-104083938D02*
X181031214Y-104131557D01*
X181031214Y-104131557D02*
X181078833Y-104226795D01*
X181078833Y-104226795D02*
X181078833Y-104369652D01*
X181078833Y-104369652D02*
X181031214Y-104464890D01*
X181031214Y-104464890D02*
X180983595Y-104512509D01*
X180983595Y-104512509D02*
X180888357Y-104560128D01*
X180888357Y-104560128D02*
X180507405Y-104560128D01*
X181983595Y-104036319D02*
X181507405Y-104036319D01*
X181507405Y-104036319D02*
X181459786Y-104512509D01*
X181459786Y-104512509D02*
X181507405Y-104464890D01*
X181507405Y-104464890D02*
X181602643Y-104417271D01*
X181602643Y-104417271D02*
X181840738Y-104417271D01*
X181840738Y-104417271D02*
X181935976Y-104464890D01*
X181935976Y-104464890D02*
X181983595Y-104512509D01*
X181983595Y-104512509D02*
X182031214Y-104607747D01*
X182031214Y-104607747D02*
X182031214Y-104845842D01*
X182031214Y-104845842D02*
X181983595Y-104941080D01*
X181983595Y-104941080D02*
X181935976Y-104988700D01*
X181935976Y-104988700D02*
X181840738Y-105036319D01*
X181840738Y-105036319D02*
X181602643Y-105036319D01*
X181602643Y-105036319D02*
X181507405Y-104988700D01*
X181507405Y-104988700D02*
X181459786Y-104941080D01*
X156591166Y-115899319D02*
X156591166Y-116613604D01*
X156591166Y-116613604D02*
X156543547Y-116756461D01*
X156543547Y-116756461D02*
X156448309Y-116851700D01*
X156448309Y-116851700D02*
X156305452Y-116899319D01*
X156305452Y-116899319D02*
X156210214Y-116899319D01*
X156972119Y-115899319D02*
X157638785Y-115899319D01*
X157638785Y-115899319D02*
X157210214Y-116899319D01*
X204343166Y-107263319D02*
X204343166Y-107977604D01*
X204343166Y-107977604D02*
X204295547Y-108120461D01*
X204295547Y-108120461D02*
X204200309Y-108215700D01*
X204200309Y-108215700D02*
X204057452Y-108263319D01*
X204057452Y-108263319D02*
X203962214Y-108263319D01*
X204866976Y-108263319D02*
X205057452Y-108263319D01*
X205057452Y-108263319D02*
X205152690Y-108215700D01*
X205152690Y-108215700D02*
X205200309Y-108168080D01*
X205200309Y-108168080D02*
X205295547Y-108025223D01*
X205295547Y-108025223D02*
X205343166Y-107834747D01*
X205343166Y-107834747D02*
X205343166Y-107453795D01*
X205343166Y-107453795D02*
X205295547Y-107358557D01*
X205295547Y-107358557D02*
X205247928Y-107310938D01*
X205247928Y-107310938D02*
X205152690Y-107263319D01*
X205152690Y-107263319D02*
X204962214Y-107263319D01*
X204962214Y-107263319D02*
X204866976Y-107310938D01*
X204866976Y-107310938D02*
X204819357Y-107358557D01*
X204819357Y-107358557D02*
X204771738Y-107453795D01*
X204771738Y-107453795D02*
X204771738Y-107691890D01*
X204771738Y-107691890D02*
X204819357Y-107787128D01*
X204819357Y-107787128D02*
X204866976Y-107834747D01*
X204866976Y-107834747D02*
X204962214Y-107882366D01*
X204962214Y-107882366D02*
X205152690Y-107882366D01*
X205152690Y-107882366D02*
X205247928Y-107834747D01*
X205247928Y-107834747D02*
X205295547Y-107787128D01*
X205295547Y-107787128D02*
X205343166Y-107691890D01*
X194794833Y-112610319D02*
X194461500Y-112134128D01*
X194223405Y-112610319D02*
X194223405Y-111610319D01*
X194223405Y-111610319D02*
X194604357Y-111610319D01*
X194604357Y-111610319D02*
X194699595Y-111657938D01*
X194699595Y-111657938D02*
X194747214Y-111705557D01*
X194747214Y-111705557D02*
X194794833Y-111800795D01*
X194794833Y-111800795D02*
X194794833Y-111943652D01*
X194794833Y-111943652D02*
X194747214Y-112038890D01*
X194747214Y-112038890D02*
X194699595Y-112086509D01*
X194699595Y-112086509D02*
X194604357Y-112134128D01*
X194604357Y-112134128D02*
X194223405Y-112134128D01*
X195366262Y-112038890D02*
X195271024Y-111991271D01*
X195271024Y-111991271D02*
X195223405Y-111943652D01*
X195223405Y-111943652D02*
X195175786Y-111848414D01*
X195175786Y-111848414D02*
X195175786Y-111800795D01*
X195175786Y-111800795D02*
X195223405Y-111705557D01*
X195223405Y-111705557D02*
X195271024Y-111657938D01*
X195271024Y-111657938D02*
X195366262Y-111610319D01*
X195366262Y-111610319D02*
X195556738Y-111610319D01*
X195556738Y-111610319D02*
X195651976Y-111657938D01*
X195651976Y-111657938D02*
X195699595Y-111705557D01*
X195699595Y-111705557D02*
X195747214Y-111800795D01*
X195747214Y-111800795D02*
X195747214Y-111848414D01*
X195747214Y-111848414D02*
X195699595Y-111943652D01*
X195699595Y-111943652D02*
X195651976Y-111991271D01*
X195651976Y-111991271D02*
X195556738Y-112038890D01*
X195556738Y-112038890D02*
X195366262Y-112038890D01*
X195366262Y-112038890D02*
X195271024Y-112086509D01*
X195271024Y-112086509D02*
X195223405Y-112134128D01*
X195223405Y-112134128D02*
X195175786Y-112229366D01*
X195175786Y-112229366D02*
X195175786Y-112419842D01*
X195175786Y-112419842D02*
X195223405Y-112515080D01*
X195223405Y-112515080D02*
X195271024Y-112562700D01*
X195271024Y-112562700D02*
X195366262Y-112610319D01*
X195366262Y-112610319D02*
X195556738Y-112610319D01*
X195556738Y-112610319D02*
X195651976Y-112562700D01*
X195651976Y-112562700D02*
X195699595Y-112515080D01*
X195699595Y-112515080D02*
X195747214Y-112419842D01*
X195747214Y-112419842D02*
X195747214Y-112229366D01*
X195747214Y-112229366D02*
X195699595Y-112134128D01*
X195699595Y-112134128D02*
X195651976Y-112086509D01*
X195651976Y-112086509D02*
X195556738Y-112038890D01*
X110363166Y-85419319D02*
X110363166Y-86133604D01*
X110363166Y-86133604D02*
X110315547Y-86276461D01*
X110315547Y-86276461D02*
X110220309Y-86371700D01*
X110220309Y-86371700D02*
X110077452Y-86419319D01*
X110077452Y-86419319D02*
X109982214Y-86419319D01*
X110791738Y-85514557D02*
X110839357Y-85466938D01*
X110839357Y-85466938D02*
X110934595Y-85419319D01*
X110934595Y-85419319D02*
X111172690Y-85419319D01*
X111172690Y-85419319D02*
X111267928Y-85466938D01*
X111267928Y-85466938D02*
X111315547Y-85514557D01*
X111315547Y-85514557D02*
X111363166Y-85609795D01*
X111363166Y-85609795D02*
X111363166Y-85705033D01*
X111363166Y-85705033D02*
X111315547Y-85847890D01*
X111315547Y-85847890D02*
X110744119Y-86419319D01*
X110744119Y-86419319D02*
X111363166Y-86419319D01*
X181078833Y-96354319D02*
X180745500Y-95878128D01*
X180507405Y-96354319D02*
X180507405Y-95354319D01*
X180507405Y-95354319D02*
X180888357Y-95354319D01*
X180888357Y-95354319D02*
X180983595Y-95401938D01*
X180983595Y-95401938D02*
X181031214Y-95449557D01*
X181031214Y-95449557D02*
X181078833Y-95544795D01*
X181078833Y-95544795D02*
X181078833Y-95687652D01*
X181078833Y-95687652D02*
X181031214Y-95782890D01*
X181031214Y-95782890D02*
X180983595Y-95830509D01*
X180983595Y-95830509D02*
X180888357Y-95878128D01*
X180888357Y-95878128D02*
X180507405Y-95878128D01*
X182031214Y-96354319D02*
X181459786Y-96354319D01*
X181745500Y-96354319D02*
X181745500Y-95354319D01*
X181745500Y-95354319D02*
X181650262Y-95497176D01*
X181650262Y-95497176D02*
X181555024Y-95592414D01*
X181555024Y-95592414D02*
X181459786Y-95640033D01*
X188674595Y-103547319D02*
X188674595Y-104356842D01*
X188674595Y-104356842D02*
X188722214Y-104452080D01*
X188722214Y-104452080D02*
X188769833Y-104499700D01*
X188769833Y-104499700D02*
X188865071Y-104547319D01*
X188865071Y-104547319D02*
X189055547Y-104547319D01*
X189055547Y-104547319D02*
X189150785Y-104499700D01*
X189150785Y-104499700D02*
X189198404Y-104452080D01*
X189198404Y-104452080D02*
X189246023Y-104356842D01*
X189246023Y-104356842D02*
X189246023Y-103547319D01*
X189674595Y-103642557D02*
X189722214Y-103594938D01*
X189722214Y-103594938D02*
X189817452Y-103547319D01*
X189817452Y-103547319D02*
X190055547Y-103547319D01*
X190055547Y-103547319D02*
X190150785Y-103594938D01*
X190150785Y-103594938D02*
X190198404Y-103642557D01*
X190198404Y-103642557D02*
X190246023Y-103737795D01*
X190246023Y-103737795D02*
X190246023Y-103833033D01*
X190246023Y-103833033D02*
X190198404Y-103975890D01*
X190198404Y-103975890D02*
X189626976Y-104547319D01*
X189626976Y-104547319D02*
X190246023Y-104547319D01*
D12*
%TO.C,Frog\u002A\u002A*%
G36*
X184209792Y-88560071D02*
G01*
X184182002Y-88587861D01*
X184154212Y-88560071D01*
X184182002Y-88532281D01*
X184209792Y-88560071D01*
G37*
G36*
X183034028Y-89054982D02*
G01*
X183093695Y-89110945D01*
X183081455Y-89143119D01*
X183073685Y-89143660D01*
X183026675Y-89104182D01*
X183009518Y-89079492D01*
X183002967Y-89041459D01*
X183034028Y-89054982D01*
G37*
G36*
X181582516Y-89204514D02*
G01*
X181680908Y-89276769D01*
X181759634Y-89345409D01*
X181751366Y-89359124D01*
X181665061Y-89319112D01*
X181565582Y-89261345D01*
X181437335Y-89195917D01*
X181341759Y-89194528D01*
X181259893Y-89231793D01*
X181129567Y-89287202D01*
X181041740Y-89303931D01*
X181035021Y-89282760D01*
X181112384Y-89231870D01*
X181178352Y-89198970D01*
X181333150Y-89139229D01*
X181453062Y-89138784D01*
X181582516Y-89204514D01*
G37*
G36*
X178969303Y-89576298D02*
G01*
X178956201Y-89616088D01*
X178907902Y-89804241D01*
X178857312Y-90079734D01*
X178807740Y-90418889D01*
X178762494Y-90798028D01*
X178724882Y-91193473D01*
X178711581Y-91366854D01*
X178658603Y-92117183D01*
X178681339Y-91338709D01*
X178701284Y-90927627D01*
X178735012Y-90537722D01*
X178779744Y-90188302D01*
X178832701Y-89898680D01*
X178891105Y-89688164D01*
X178931267Y-89601966D01*
X178974784Y-89539967D01*
X178969303Y-89576298D01*
G37*
G36*
X183595353Y-93014501D02*
G01*
X183573542Y-93189606D01*
X183509191Y-93431533D01*
X183414062Y-93710111D01*
X183299917Y-93995168D01*
X183178518Y-94256532D01*
X183061627Y-94464032D01*
X182995216Y-94553950D01*
X182865671Y-94672349D01*
X182752879Y-94725785D01*
X182681859Y-94702467D01*
X182681439Y-94701797D01*
X182697306Y-94656968D01*
X182753877Y-94646067D01*
X182868587Y-94594329D01*
X182998361Y-94449462D01*
X183134761Y-94226980D01*
X183269348Y-93942402D01*
X183393685Y-93611243D01*
X183486582Y-93298735D01*
X183536136Y-93124757D01*
X183574076Y-93020172D01*
X183593923Y-93001916D01*
X183595353Y-93014501D01*
G37*
G36*
X183761277Y-91224233D02*
G01*
X183778631Y-91374798D01*
X183780831Y-91394644D01*
X183792894Y-91708414D01*
X183767823Y-92042544D01*
X183711402Y-92367895D01*
X183629418Y-92655325D01*
X183527656Y-92875693D01*
X183471852Y-92950881D01*
X183428860Y-92985049D01*
X183434536Y-92937712D01*
X183490510Y-92801914D01*
X183523969Y-92728561D01*
X183591653Y-92569868D01*
X183638558Y-92419117D01*
X183669938Y-92246959D01*
X183691047Y-92024046D01*
X183707138Y-91721029D01*
X183708030Y-91700333D01*
X183720516Y-91414773D01*
X183730192Y-91232328D01*
X183738950Y-91145053D01*
X183748680Y-91145003D01*
X183761277Y-91224233D01*
G37*
G36*
X181522224Y-94064572D02*
G01*
X181761656Y-94070354D01*
X181934833Y-94079069D01*
X182024382Y-94089964D01*
X182031064Y-94097044D01*
X182040494Y-94147366D01*
X182110179Y-94246805D01*
X182217160Y-94370780D01*
X182338476Y-94494707D01*
X182451168Y-94594005D01*
X182532275Y-94644092D01*
X182543859Y-94646067D01*
X182596414Y-94688406D01*
X182597976Y-94701646D01*
X182587355Y-94752304D01*
X182584081Y-94752838D01*
X182527771Y-94731680D01*
X182487733Y-94716091D01*
X182408021Y-94659396D01*
X182285577Y-94545455D01*
X182175856Y-94430324D01*
X181946432Y-94176917D01*
X181285661Y-94168396D01*
X181014477Y-94161038D01*
X180774878Y-94147460D01*
X180594086Y-94129651D01*
X180502932Y-94111176D01*
X180503424Y-94091743D01*
X180610220Y-94076980D01*
X180818549Y-94067205D01*
X181123643Y-94062736D01*
X181233909Y-94062478D01*
X181522224Y-94064572D01*
G37*
G36*
X178791840Y-92450662D02*
G01*
X178840481Y-92681632D01*
X178878766Y-92914295D01*
X178892614Y-93034250D01*
X178945348Y-93315826D01*
X179051489Y-93639597D01*
X179194126Y-93966276D01*
X179356344Y-94256574D01*
X179502824Y-94451790D01*
X179635068Y-94590233D01*
X179726258Y-94659812D01*
X179808136Y-94675668D01*
X179912446Y-94652943D01*
X179919920Y-94650740D01*
X180084697Y-94569249D01*
X180216025Y-94454012D01*
X180334855Y-94331341D01*
X180448567Y-94249128D01*
X180472927Y-94252488D01*
X180426839Y-94318792D01*
X180320301Y-94434268D01*
X180297391Y-94457308D01*
X180080804Y-94644350D01*
X179897468Y-94732896D01*
X179733426Y-94725087D01*
X179574722Y-94623065D01*
X179527080Y-94575496D01*
X179288228Y-94261255D01*
X179082226Y-93861217D01*
X178956005Y-93530090D01*
X178888582Y-93322788D01*
X178839885Y-93142595D01*
X178803445Y-92955780D01*
X178772795Y-92728610D01*
X178741466Y-92427353D01*
X178738356Y-92395082D01*
X178711685Y-92117183D01*
X178791840Y-92450662D01*
G37*
G36*
X181954064Y-77908628D02*
G01*
X181995221Y-77912045D01*
X182876551Y-78027675D01*
X183713309Y-78219708D01*
X184495910Y-78484028D01*
X185214770Y-78816521D01*
X185860305Y-79213072D01*
X186422929Y-79669565D01*
X186670348Y-79919214D01*
X186953097Y-80268594D01*
X187229296Y-80683702D01*
X187472505Y-81120900D01*
X187656280Y-81536551D01*
X187665387Y-81561364D01*
X187741057Y-81852514D01*
X187791877Y-82219371D01*
X187816621Y-82629019D01*
X187814062Y-83048545D01*
X187782976Y-83445033D01*
X187744552Y-83686487D01*
X187512612Y-84551340D01*
X187171827Y-85393915D01*
X186722304Y-86213999D01*
X186164147Y-87011375D01*
X186059289Y-87143632D01*
X185800913Y-87443579D01*
X185486288Y-87776942D01*
X185138961Y-88121297D01*
X184782479Y-88454223D01*
X184440388Y-88753297D01*
X184136234Y-88996097D01*
X184042929Y-89063752D01*
X183836001Y-89211500D01*
X183706466Y-89314762D01*
X183639122Y-89390559D01*
X183618770Y-89455912D01*
X183629800Y-89526349D01*
X183645025Y-89620038D01*
X183663772Y-89789648D01*
X183683996Y-90008512D01*
X183703653Y-90249966D01*
X183720698Y-90487345D01*
X183733087Y-90693983D01*
X183738775Y-90843215D01*
X183735750Y-90908320D01*
X183698507Y-90892198D01*
X183691047Y-90885162D01*
X183673776Y-90816149D01*
X183659703Y-90664075D01*
X183651085Y-90457033D01*
X183649722Y-90371048D01*
X183632289Y-89999163D01*
X183588446Y-89717801D01*
X183519724Y-89532683D01*
X183427654Y-89449528D01*
X183401951Y-89445367D01*
X183299651Y-89479339D01*
X183161974Y-89570240D01*
X183087917Y-89633750D01*
X182883109Y-89826114D01*
X182717572Y-89721101D01*
X182560641Y-89593784D01*
X182399305Y-89419760D01*
X182262954Y-89235097D01*
X182180978Y-89075860D01*
X182174853Y-89055078D01*
X182171248Y-89000455D01*
X182218220Y-89000455D01*
X182228658Y-89048010D01*
X182291675Y-89178911D01*
X182409805Y-89343908D01*
X182553859Y-89509002D01*
X182694646Y-89640189D01*
X182787192Y-89698617D01*
X182907099Y-89725683D01*
X182944770Y-89687698D01*
X182901977Y-89592406D01*
X182780492Y-89447553D01*
X182714706Y-89381743D01*
X182573513Y-89233572D01*
X182471969Y-89103965D01*
X182431297Y-89020141D01*
X182431237Y-89018208D01*
X182456745Y-88916135D01*
X182534624Y-88906422D01*
X182666906Y-88989789D01*
X182855624Y-89166956D01*
X182857961Y-89169367D01*
X183019885Y-89325397D01*
X183139525Y-89419165D01*
X183207451Y-89446467D01*
X183214236Y-89403104D01*
X183163683Y-89305611D01*
X183121140Y-89200378D01*
X183125009Y-89145239D01*
X183112878Y-89079518D01*
X183024413Y-89019793D01*
X182940475Y-88996580D01*
X182842678Y-88952457D01*
X182766734Y-88895377D01*
X182644191Y-88824997D01*
X182480337Y-88775242D01*
X182466905Y-88772902D01*
X182302587Y-88774332D01*
X182220962Y-88848715D01*
X182218220Y-89000455D01*
X182171248Y-89000455D01*
X182164733Y-88901734D01*
X182179854Y-88814192D01*
X182259152Y-88723980D01*
X182400789Y-88698158D01*
X182577275Y-88735636D01*
X182761121Y-88835327D01*
X182763833Y-88837319D01*
X182887834Y-88915870D01*
X182968365Y-88945360D01*
X182987925Y-88926197D01*
X182929019Y-88858789D01*
X182899608Y-88834147D01*
X182779067Y-88745611D01*
X182652521Y-88674878D01*
X182506557Y-88620200D01*
X182327764Y-88579825D01*
X182102729Y-88552004D01*
X181818041Y-88534988D01*
X181460289Y-88527027D01*
X181016059Y-88526372D01*
X180569311Y-88530153D01*
X180158497Y-88583937D01*
X179795794Y-88737295D01*
X179487046Y-88980671D01*
X179326866Y-89135420D01*
X179235543Y-89212617D01*
X179216031Y-89212564D01*
X179271283Y-89135561D01*
X179404251Y-88981908D01*
X179412237Y-88973055D01*
X179568827Y-88816107D01*
X179732418Y-88693077D01*
X179918280Y-88600431D01*
X180141686Y-88534631D01*
X180417907Y-88492140D01*
X180762216Y-88469422D01*
X181189884Y-88462941D01*
X181597539Y-88466988D01*
X181907841Y-88473838D01*
X182132684Y-88484865D01*
X182297769Y-88504086D01*
X182428794Y-88535518D01*
X182551460Y-88583178D01*
X182653556Y-88632050D01*
X182902822Y-88787979D01*
X183086328Y-88985756D01*
X183125985Y-89044409D01*
X183259043Y-89225597D01*
X183359447Y-89302219D01*
X183429013Y-89275387D01*
X183446738Y-89240924D01*
X183489737Y-89172929D01*
X183587992Y-89036749D01*
X183727561Y-88851194D01*
X183894499Y-88635071D01*
X183920741Y-88601558D01*
X184093896Y-88370964D01*
X184242395Y-88154760D01*
X184351271Y-87976032D01*
X184405555Y-87857865D01*
X184407199Y-87851230D01*
X184437285Y-87734724D01*
X184493411Y-87536170D01*
X184568577Y-87279657D01*
X184655787Y-86989274D01*
X184693747Y-86864885D01*
X184777822Y-86585779D01*
X184841378Y-86352530D01*
X184885557Y-86144637D01*
X184911502Y-85941601D01*
X184920356Y-85722923D01*
X184913261Y-85468104D01*
X184891358Y-85156644D01*
X184855792Y-84768044D01*
X184826939Y-84474951D01*
X184758070Y-83939343D01*
X184662476Y-83488306D01*
X184531785Y-83096776D01*
X184357623Y-82739689D01*
X184131619Y-82391981D01*
X184130694Y-82390705D01*
X184003708Y-82210763D01*
X183845733Y-81980010D01*
X183711460Y-81779327D01*
X184154212Y-81779327D01*
X184182002Y-81807117D01*
X184209792Y-81779327D01*
X184182002Y-81751537D01*
X184154212Y-81779327D01*
X183711460Y-81779327D01*
X183685904Y-81741132D01*
X183646487Y-81681200D01*
X183421417Y-81390268D01*
X183542834Y-81390268D01*
X183570624Y-81418058D01*
X183598414Y-81390268D01*
X183570624Y-81362478D01*
X183542834Y-81390268D01*
X183421417Y-81390268D01*
X183350051Y-81298018D01*
X183216155Y-81167948D01*
X183376094Y-81167948D01*
X183403884Y-81195738D01*
X183431674Y-81167948D01*
X183403884Y-81140158D01*
X183376094Y-81167948D01*
X183216155Y-81167948D01*
X183158941Y-81112369D01*
X183542834Y-81112369D01*
X183570624Y-81140158D01*
X183598414Y-81112369D01*
X183570624Y-81084579D01*
X183542834Y-81112369D01*
X183158941Y-81112369D01*
X182995322Y-80953425D01*
X182600049Y-80657348D01*
X182181984Y-80419714D01*
X181758877Y-80250449D01*
X181348478Y-80159481D01*
X180968537Y-80156736D01*
X180930176Y-80162119D01*
X180741137Y-80220489D01*
X180492897Y-80337947D01*
X180208849Y-80499186D01*
X179912387Y-80688901D01*
X179626906Y-80891784D01*
X179375798Y-81092529D01*
X179182458Y-81275831D01*
X179124307Y-81343680D01*
X178777629Y-81805350D01*
X178488631Y-82227643D01*
X178266596Y-82596551D01*
X178172520Y-82779765D01*
X178087242Y-82950491D01*
X178022624Y-83061030D01*
X177989536Y-83093433D01*
X177987386Y-83085454D01*
X178014332Y-82967489D01*
X178088171Y-82786546D01*
X178194397Y-82572309D01*
X178318507Y-82354466D01*
X178421887Y-82196176D01*
X178556896Y-82003008D01*
X178710443Y-81780916D01*
X178795471Y-81656823D01*
X178941372Y-81467279D01*
X179130276Y-81254093D01*
X179311063Y-81073234D01*
X179515014Y-80898535D01*
X179761677Y-80708244D01*
X180027833Y-80518070D01*
X180290263Y-80343723D01*
X180525745Y-80200911D01*
X180711060Y-80105346D01*
X180779786Y-80079568D01*
X180955617Y-80053983D01*
X181207698Y-80048418D01*
X181503391Y-80060540D01*
X181810055Y-80088014D01*
X182095052Y-80128509D01*
X182325743Y-80179689D01*
X182369115Y-80193206D01*
X182647181Y-80299178D01*
X182895342Y-80424932D01*
X183137604Y-80586756D01*
X183397972Y-80800939D01*
X183700453Y-81083767D01*
X183743253Y-81125575D01*
X184194584Y-81607960D01*
X184552430Y-82085961D01*
X184830542Y-82584460D01*
X185042673Y-83128339D01*
X185202576Y-83742480D01*
X185210407Y-83780145D01*
X185296103Y-84233238D01*
X185347402Y-84614011D01*
X185363999Y-84955946D01*
X185345591Y-85292526D01*
X185291873Y-85657232D01*
X185202541Y-86083546D01*
X185188969Y-86142347D01*
X185088349Y-86549042D01*
X184984721Y-86900582D01*
X184867800Y-87217086D01*
X184727303Y-87518671D01*
X184552944Y-87825457D01*
X184334439Y-88157561D01*
X184061503Y-88535102D01*
X183769408Y-88919240D01*
X183644377Y-89087322D01*
X183554770Y-89219475D01*
X183515209Y-89293684D01*
X183515463Y-89301555D01*
X183577870Y-89289755D01*
X183709878Y-89215852D01*
X183896841Y-89090257D01*
X184124110Y-88923381D01*
X184377038Y-88725636D01*
X184640977Y-88507434D01*
X184682221Y-88472203D01*
X185442328Y-87756888D01*
X186097694Y-87005159D01*
X186648928Y-86216074D01*
X187096638Y-85388691D01*
X187441432Y-84522067D01*
X187612086Y-83931480D01*
X187669749Y-83665808D01*
X187705874Y-83405044D01*
X187724090Y-83111351D01*
X187728026Y-82746895D01*
X187727901Y-82724185D01*
X187715992Y-82313550D01*
X187679723Y-81972159D01*
X187609859Y-81664718D01*
X187497164Y-81355931D01*
X187332404Y-81010505D01*
X187228023Y-80813777D01*
X186889375Y-80297877D01*
X186455495Y-79812583D01*
X185940441Y-79368191D01*
X185358270Y-78974997D01*
X184723039Y-78643297D01*
X184048804Y-78383385D01*
X183814264Y-78313497D01*
X182817780Y-78092704D01*
X181810421Y-77975027D01*
X180805379Y-77960873D01*
X179815845Y-78050649D01*
X179164261Y-78169998D01*
X178553342Y-78319940D01*
X178024879Y-78483172D01*
X177550185Y-78671073D01*
X177100575Y-78895021D01*
X176647361Y-79166397D01*
X176639415Y-79171514D01*
X176266630Y-79411862D01*
X176544724Y-80005906D01*
X176652663Y-80245596D01*
X176738127Y-80452949D01*
X176792191Y-80605059D01*
X176806349Y-80677490D01*
X176779867Y-80659670D01*
X176719202Y-80555661D01*
X176632933Y-80381879D01*
X176529640Y-80154741D01*
X176511981Y-80114253D01*
X176404002Y-79871548D01*
X176309581Y-79670958D01*
X176238234Y-79531888D01*
X176199473Y-79473742D01*
X176197619Y-79473120D01*
X176147665Y-79511180D01*
X176038229Y-79615181D01*
X175885258Y-79769411D01*
X175704700Y-79958158D01*
X175697400Y-79965916D01*
X175276049Y-80471198D01*
X174957225Y-80985865D01*
X174732439Y-81524904D01*
X174652080Y-81810643D01*
X174548332Y-82481418D01*
X174551644Y-83180310D01*
X174661825Y-83906212D01*
X174878685Y-84658018D01*
X175202034Y-85434620D01*
X175314222Y-85661434D01*
X175446320Y-85916306D01*
X175545128Y-86091631D01*
X175626902Y-86207372D01*
X175707901Y-86283487D01*
X175804385Y-86339937D01*
X175902758Y-86383973D01*
X176166328Y-86506123D01*
X176381084Y-86624250D01*
X176529483Y-86727456D01*
X176593987Y-86804844D01*
X176595350Y-86814236D01*
X176567002Y-86848340D01*
X176525875Y-86825241D01*
X176445942Y-86774086D01*
X176297587Y-86687137D01*
X176110149Y-86581511D01*
X176072686Y-86560824D01*
X175688972Y-86349662D01*
X175848107Y-86565589D01*
X176194896Y-86994287D01*
X176618818Y-87450613D01*
X177097038Y-87913581D01*
X177606721Y-88362208D01*
X178125032Y-88775510D01*
X178629137Y-89132502D01*
X178671555Y-89160198D01*
X178839256Y-89262893D01*
X178971224Y-89332670D01*
X179039993Y-89355073D01*
X179041184Y-89354727D01*
X179027380Y-89305585D01*
X178960235Y-89181085D01*
X178849372Y-88997476D01*
X178704414Y-88771006D01*
X178619924Y-88643441D01*
X178244928Y-88042184D01*
X177958490Y-87487533D01*
X177755201Y-86966707D01*
X177629650Y-86466931D01*
X177594388Y-86221432D01*
X177566055Y-85975834D01*
X177538426Y-85764698D01*
X177515507Y-85617354D01*
X177505733Y-85571945D01*
X177473274Y-85394615D01*
X177472171Y-85174803D01*
X177504390Y-84900287D01*
X177571896Y-84558844D01*
X177676657Y-84138251D01*
X177816264Y-83641253D01*
X177849951Y-83529729D01*
X177861851Y-83511835D01*
X177855012Y-83593945D01*
X177842821Y-83696832D01*
X177809965Y-83881588D01*
X177753909Y-84117945D01*
X177692349Y-84336001D01*
X177615022Y-84659821D01*
X177577703Y-85014505D01*
X177580042Y-85420733D01*
X177621690Y-85899183D01*
X177660841Y-86197926D01*
X177707553Y-86500849D01*
X177756312Y-86743775D01*
X177817776Y-86959399D01*
X177902602Y-87180421D01*
X178021450Y-87439535D01*
X178151213Y-87702263D01*
X178254281Y-87892392D01*
X178395810Y-88132862D01*
X178560833Y-88400394D01*
X178734382Y-88671709D01*
X178901490Y-88923530D01*
X179047191Y-89132577D01*
X179156516Y-89275571D01*
X179179557Y-89301656D01*
X179234664Y-89333056D01*
X179300671Y-89296297D01*
X179400763Y-89178181D01*
X179404073Y-89173847D01*
X179585480Y-88979327D01*
X179783685Y-88836159D01*
X179982647Y-88745492D01*
X180166321Y-88708475D01*
X180318667Y-88726254D01*
X180423640Y-88799979D01*
X180465200Y-88930798D01*
X180434500Y-89100099D01*
X180334003Y-89298009D01*
X180179747Y-89504886D01*
X180002655Y-89685276D01*
X179833651Y-89803724D01*
X179812385Y-89813351D01*
X179707481Y-89851087D01*
X179631510Y-89846831D01*
X179551390Y-89786428D01*
X179434040Y-89655721D01*
X179428202Y-89648945D01*
X179265778Y-89488374D01*
X179143124Y-89430362D01*
X179117947Y-89431909D01*
X179009261Y-89410691D01*
X178998148Y-89405341D01*
X179318764Y-89405341D01*
X179349982Y-89471536D01*
X179418026Y-89466901D01*
X179484476Y-89402431D01*
X179504876Y-89352084D01*
X179568836Y-89253468D01*
X179696672Y-89134109D01*
X179851992Y-89021250D01*
X179998406Y-88942139D01*
X180080217Y-88921340D01*
X180149278Y-88954334D01*
X180136158Y-89046756D01*
X180045620Y-89188766D01*
X179882422Y-89370524D01*
X179845163Y-89407221D01*
X179676430Y-89588245D01*
X179589201Y-89720678D01*
X179583013Y-89797711D01*
X179657406Y-89812536D01*
X179811920Y-89758344D01*
X179867084Y-89731116D01*
X180011973Y-89617612D01*
X180166009Y-89437253D01*
X180300181Y-89227591D01*
X180366129Y-89085155D01*
X180386521Y-88921232D01*
X180321911Y-88807218D01*
X180191581Y-88754525D01*
X180014809Y-88774567D01*
X179912594Y-88816672D01*
X179793315Y-88896540D01*
X179649145Y-89018674D01*
X179505785Y-89157596D01*
X179388937Y-89287829D01*
X179324302Y-89383894D01*
X179318764Y-89405341D01*
X178998148Y-89405341D01*
X178830431Y-89324596D01*
X178594555Y-89182419D01*
X178314731Y-88992953D01*
X178004054Y-88764994D01*
X177675624Y-88507336D01*
X177401258Y-88279217D01*
X176956498Y-87890563D01*
X176587747Y-87545978D01*
X176279034Y-87227114D01*
X176014388Y-86915622D01*
X175777837Y-86593153D01*
X175553412Y-86241358D01*
X175405150Y-85985926D01*
X175008961Y-85195590D01*
X174720881Y-84423956D01*
X174541070Y-83671849D01*
X174469686Y-82940092D01*
X174506890Y-82229508D01*
X174590367Y-81775201D01*
X174786041Y-81188007D01*
X175083000Y-80628572D01*
X175473328Y-80103891D01*
X175949108Y-79620960D01*
X176502422Y-79186774D01*
X177125354Y-78808329D01*
X177809985Y-78492621D01*
X178548399Y-78246644D01*
X178599357Y-78232893D01*
X179319237Y-78060218D01*
X179980228Y-77944706D01*
X180616750Y-77883105D01*
X181263222Y-77872163D01*
X181954064Y-77908628D01*
G37*
D13*
%TO.C,C6*%
X197054500Y-106265080D02*
X197054500Y-105983920D01*
X198074500Y-106265080D02*
X198074500Y-105983920D01*
%TO.C,C5*%
X141228500Y-100904500D02*
X141228500Y-99104500D01*
X140328500Y-100004500D02*
X142128500Y-100004500D01*
X141748500Y-94754500D02*
X159908500Y-94754500D01*
X141748500Y-94714500D02*
X159908500Y-94714500D01*
X141748500Y-94674500D02*
X159908500Y-94674500D01*
X141749500Y-94634500D02*
X159907500Y-94634500D01*
X141749500Y-94594500D02*
X159907500Y-94594500D01*
X141750500Y-94554500D02*
X159906500Y-94554500D01*
X141751500Y-94514500D02*
X159905500Y-94514500D01*
X141752500Y-94474500D02*
X159904500Y-94474500D01*
X141754500Y-94434500D02*
X159902500Y-94434500D01*
X141755500Y-94394500D02*
X159901500Y-94394500D01*
X141757500Y-94354500D02*
X159899500Y-94354500D01*
X141759500Y-94314500D02*
X159897500Y-94314500D01*
X141761500Y-94274500D02*
X159895500Y-94274500D01*
X141763500Y-94234500D02*
X159893500Y-94234500D01*
X141765500Y-94194500D02*
X159891500Y-94194500D01*
X141768500Y-94154500D02*
X159888500Y-94154500D01*
X141770500Y-94114500D02*
X159886500Y-94114500D01*
X141773500Y-94074500D02*
X159883500Y-94074500D01*
X141776500Y-94034500D02*
X159880500Y-94034500D01*
X141780500Y-93994500D02*
X159876500Y-93994500D01*
X141783500Y-93954500D02*
X159873500Y-93954500D01*
X141787500Y-93914500D02*
X159869500Y-93914500D01*
X141791500Y-93874500D02*
X159865500Y-93874500D01*
X141795500Y-93834500D02*
X159861500Y-93834500D01*
X141799500Y-93794500D02*
X159857500Y-93794500D01*
X141803500Y-93754500D02*
X159853500Y-93754500D01*
X141807500Y-93714500D02*
X159849500Y-93714500D01*
X141812500Y-93674500D02*
X159844500Y-93674500D01*
X141817500Y-93634500D02*
X159839500Y-93634500D01*
X141822500Y-93594500D02*
X159834500Y-93594500D01*
X141827500Y-93554500D02*
X159829500Y-93554500D01*
X141833500Y-93514500D02*
X159823500Y-93514500D01*
X141838500Y-93474500D02*
X159818500Y-93474500D01*
X141844500Y-93434500D02*
X159812500Y-93434500D01*
X141850500Y-93394500D02*
X159806500Y-93394500D01*
X141856500Y-93354500D02*
X159800500Y-93354500D01*
X141862500Y-93314500D02*
X159794500Y-93314500D01*
X141869500Y-93274500D02*
X159787500Y-93274500D01*
X141876500Y-93234500D02*
X159780500Y-93234500D01*
X141882500Y-93194500D02*
X159774500Y-93194500D01*
X141889500Y-93154500D02*
X159767500Y-93154500D01*
X141897500Y-93114500D02*
X159759500Y-93114500D01*
X141904500Y-93074500D02*
X159752500Y-93074500D01*
X141912500Y-93034500D02*
X159744500Y-93034500D01*
X141919500Y-92994500D02*
X159737500Y-92994500D01*
X141927500Y-92954500D02*
X159729500Y-92954500D01*
X141936500Y-92914500D02*
X159720500Y-92914500D01*
X141944500Y-92874500D02*
X159712500Y-92874500D01*
X141952500Y-92834500D02*
X159704500Y-92834500D01*
X141961500Y-92794500D02*
X159695500Y-92794500D01*
X141970500Y-92754500D02*
X159686500Y-92754500D01*
X141979500Y-92714500D02*
X159677500Y-92714500D01*
X141988500Y-92674500D02*
X159668500Y-92674500D01*
X141998500Y-92634500D02*
X159658500Y-92634500D01*
X142007500Y-92594500D02*
X159649500Y-92594500D01*
X142017500Y-92554500D02*
X159639500Y-92554500D01*
X142027500Y-92514500D02*
X159629500Y-92514500D01*
X142038500Y-92474500D02*
X159618500Y-92474500D01*
X142048500Y-92434500D02*
X149388500Y-92434500D01*
X152268500Y-92434500D02*
X159608500Y-92434500D01*
X142059500Y-92394500D02*
X149388500Y-92394500D01*
X152268500Y-92394500D02*
X159597500Y-92394500D01*
X142069500Y-92354500D02*
X149388500Y-92354500D01*
X152268500Y-92354500D02*
X159587500Y-92354500D01*
X142080500Y-92314500D02*
X149388500Y-92314500D01*
X152268500Y-92314500D02*
X159576500Y-92314500D01*
X142092500Y-92274500D02*
X149388500Y-92274500D01*
X152268500Y-92274500D02*
X159564500Y-92274500D01*
X142103500Y-92234500D02*
X149388500Y-92234500D01*
X152268500Y-92234500D02*
X159553500Y-92234500D01*
X142115500Y-92194500D02*
X149388500Y-92194500D01*
X152268500Y-92194500D02*
X159541500Y-92194500D01*
X142126500Y-92154500D02*
X149388500Y-92154500D01*
X152268500Y-92154500D02*
X159530500Y-92154500D01*
X142138500Y-92114500D02*
X149388500Y-92114500D01*
X152268500Y-92114500D02*
X159518500Y-92114500D01*
X142151500Y-92074500D02*
X149388500Y-92074500D01*
X152268500Y-92074500D02*
X159505500Y-92074500D01*
X142163500Y-92034500D02*
X149388500Y-92034500D01*
X152268500Y-92034500D02*
X159493500Y-92034500D01*
X142176500Y-91994500D02*
X149388500Y-91994500D01*
X152268500Y-91994500D02*
X159480500Y-91994500D01*
X142188500Y-91954500D02*
X149388500Y-91954500D01*
X152268500Y-91954500D02*
X159468500Y-91954500D01*
X142201500Y-91914500D02*
X149388500Y-91914500D01*
X152268500Y-91914500D02*
X159455500Y-91914500D01*
X142215500Y-91874500D02*
X149388500Y-91874500D01*
X152268500Y-91874500D02*
X159441500Y-91874500D01*
X142228500Y-91834500D02*
X149388500Y-91834500D01*
X152268500Y-91834500D02*
X159428500Y-91834500D01*
X142242500Y-91794500D02*
X149388500Y-91794500D01*
X152268500Y-91794500D02*
X159414500Y-91794500D01*
X142256500Y-91754500D02*
X149388500Y-91754500D01*
X152268500Y-91754500D02*
X159400500Y-91754500D01*
X142270500Y-91714500D02*
X149388500Y-91714500D01*
X152268500Y-91714500D02*
X159386500Y-91714500D01*
X142284500Y-91674500D02*
X149388500Y-91674500D01*
X152268500Y-91674500D02*
X159372500Y-91674500D01*
X142298500Y-91634500D02*
X149388500Y-91634500D01*
X152268500Y-91634500D02*
X159358500Y-91634500D01*
X142313500Y-91594500D02*
X149388500Y-91594500D01*
X152268500Y-91594500D02*
X159343500Y-91594500D01*
X142328500Y-91554500D02*
X149388500Y-91554500D01*
X152268500Y-91554500D02*
X159328500Y-91554500D01*
X142343500Y-91514500D02*
X149388500Y-91514500D01*
X152268500Y-91514500D02*
X159313500Y-91514500D01*
X142358500Y-91474500D02*
X149388500Y-91474500D01*
X152268500Y-91474500D02*
X159298500Y-91474500D01*
X142374500Y-91434500D02*
X149388500Y-91434500D01*
X152268500Y-91434500D02*
X159282500Y-91434500D01*
X142390500Y-91394500D02*
X149388500Y-91394500D01*
X152268500Y-91394500D02*
X159266500Y-91394500D01*
X142405500Y-91354500D02*
X149388500Y-91354500D01*
X152268500Y-91354500D02*
X159251500Y-91354500D01*
X142422500Y-91314500D02*
X149388500Y-91314500D01*
X152268500Y-91314500D02*
X159234500Y-91314500D01*
X142438500Y-91274500D02*
X149388500Y-91274500D01*
X152268500Y-91274500D02*
X159218500Y-91274500D01*
X142455500Y-91234500D02*
X149388500Y-91234500D01*
X152268500Y-91234500D02*
X159201500Y-91234500D01*
X142472500Y-91194500D02*
X149388500Y-91194500D01*
X152268500Y-91194500D02*
X159184500Y-91194500D01*
X142489500Y-91154500D02*
X149388500Y-91154500D01*
X152268500Y-91154500D02*
X159167500Y-91154500D01*
X142506500Y-91114500D02*
X149388500Y-91114500D01*
X152268500Y-91114500D02*
X159150500Y-91114500D01*
X142523500Y-91074500D02*
X149388500Y-91074500D01*
X152268500Y-91074500D02*
X159133500Y-91074500D01*
X142541500Y-91034500D02*
X149388500Y-91034500D01*
X152268500Y-91034500D02*
X159115500Y-91034500D01*
X142559500Y-90994500D02*
X149388500Y-90994500D01*
X152268500Y-90994500D02*
X159097500Y-90994500D01*
X142577500Y-90954500D02*
X149388500Y-90954500D01*
X152268500Y-90954500D02*
X159079500Y-90954500D01*
X142596500Y-90914500D02*
X149388500Y-90914500D01*
X152268500Y-90914500D02*
X159060500Y-90914500D01*
X142615500Y-90874500D02*
X149388500Y-90874500D01*
X152268500Y-90874500D02*
X159041500Y-90874500D01*
X142633500Y-90834500D02*
X149388500Y-90834500D01*
X152268500Y-90834500D02*
X159023500Y-90834500D01*
X142653500Y-90794500D02*
X149388500Y-90794500D01*
X152268500Y-90794500D02*
X159003500Y-90794500D01*
X142672500Y-90754500D02*
X149388500Y-90754500D01*
X152268500Y-90754500D02*
X158984500Y-90754500D01*
X142692500Y-90714500D02*
X149388500Y-90714500D01*
X152268500Y-90714500D02*
X158964500Y-90714500D01*
X142712500Y-90674500D02*
X149388500Y-90674500D01*
X152268500Y-90674500D02*
X158944500Y-90674500D01*
X142732500Y-90634500D02*
X149388500Y-90634500D01*
X152268500Y-90634500D02*
X158924500Y-90634500D01*
X142752500Y-90594500D02*
X149388500Y-90594500D01*
X152268500Y-90594500D02*
X158904500Y-90594500D01*
X142773500Y-90554500D02*
X149388500Y-90554500D01*
X152268500Y-90554500D02*
X158883500Y-90554500D01*
X142794500Y-90514500D02*
X149388500Y-90514500D01*
X152268500Y-90514500D02*
X158862500Y-90514500D01*
X142815500Y-90474500D02*
X149388500Y-90474500D01*
X152268500Y-90474500D02*
X158841500Y-90474500D01*
X142836500Y-90434500D02*
X149388500Y-90434500D01*
X152268500Y-90434500D02*
X158820500Y-90434500D01*
X142858500Y-90394500D02*
X149388500Y-90394500D01*
X152268500Y-90394500D02*
X158798500Y-90394500D01*
X142880500Y-90354500D02*
X149388500Y-90354500D01*
X152268500Y-90354500D02*
X158776500Y-90354500D01*
X142902500Y-90314500D02*
X149388500Y-90314500D01*
X152268500Y-90314500D02*
X158754500Y-90314500D01*
X142924500Y-90274500D02*
X149388500Y-90274500D01*
X152268500Y-90274500D02*
X158732500Y-90274500D01*
X142947500Y-90234500D02*
X149388500Y-90234500D01*
X152268500Y-90234500D02*
X158709500Y-90234500D01*
X142970500Y-90194500D02*
X149388500Y-90194500D01*
X152268500Y-90194500D02*
X158686500Y-90194500D01*
X142993500Y-90154500D02*
X149388500Y-90154500D01*
X152268500Y-90154500D02*
X158663500Y-90154500D01*
X143017500Y-90114500D02*
X149388500Y-90114500D01*
X152268500Y-90114500D02*
X158639500Y-90114500D01*
X143040500Y-90074500D02*
X149388500Y-90074500D01*
X152268500Y-90074500D02*
X158616500Y-90074500D01*
X143064500Y-90034500D02*
X149388500Y-90034500D01*
X152268500Y-90034500D02*
X158592500Y-90034500D01*
X143089500Y-89994500D02*
X149388500Y-89994500D01*
X152268500Y-89994500D02*
X158567500Y-89994500D01*
X143113500Y-89954500D02*
X149388500Y-89954500D01*
X152268500Y-89954500D02*
X158543500Y-89954500D01*
X143138500Y-89914500D02*
X149388500Y-89914500D01*
X152268500Y-89914500D02*
X158518500Y-89914500D01*
X143163500Y-89874500D02*
X149388500Y-89874500D01*
X152268500Y-89874500D02*
X158493500Y-89874500D01*
X143189500Y-89834500D02*
X149388500Y-89834500D01*
X152268500Y-89834500D02*
X158467500Y-89834500D01*
X143215500Y-89794500D02*
X149388500Y-89794500D01*
X152268500Y-89794500D02*
X158441500Y-89794500D01*
X143241500Y-89754500D02*
X149388500Y-89754500D01*
X152268500Y-89754500D02*
X158415500Y-89754500D01*
X143267500Y-89714500D02*
X149388500Y-89714500D01*
X152268500Y-89714500D02*
X158389500Y-89714500D01*
X143294500Y-89674500D02*
X149388500Y-89674500D01*
X152268500Y-89674500D02*
X158362500Y-89674500D01*
X143321500Y-89634500D02*
X149388500Y-89634500D01*
X152268500Y-89634500D02*
X158335500Y-89634500D01*
X143348500Y-89594500D02*
X149388500Y-89594500D01*
X152268500Y-89594500D02*
X158308500Y-89594500D01*
X143376500Y-89554500D02*
X158280500Y-89554500D01*
X143404500Y-89514500D02*
X158252500Y-89514500D01*
X143432500Y-89474500D02*
X158224500Y-89474500D01*
X143460500Y-89434500D02*
X158196500Y-89434500D01*
X143489500Y-89394500D02*
X158167500Y-89394500D01*
X143519500Y-89354500D02*
X158137500Y-89354500D01*
X143548500Y-89314500D02*
X158108500Y-89314500D01*
X143578500Y-89274500D02*
X158078500Y-89274500D01*
X143608500Y-89234500D02*
X158048500Y-89234500D01*
X143639500Y-89194500D02*
X158017500Y-89194500D01*
X143670500Y-89154500D02*
X157986500Y-89154500D01*
X143701500Y-89114500D02*
X157955500Y-89114500D01*
X143733500Y-89074500D02*
X157923500Y-89074500D01*
X143765500Y-89034500D02*
X157891500Y-89034500D01*
X143797500Y-88994500D02*
X157859500Y-88994500D01*
X143830500Y-88954500D02*
X157826500Y-88954500D01*
X143863500Y-88914500D02*
X157793500Y-88914500D01*
X143897500Y-88874500D02*
X157759500Y-88874500D01*
X143931500Y-88834500D02*
X157725500Y-88834500D01*
X143965500Y-88794500D02*
X157691500Y-88794500D01*
X144000500Y-88754500D02*
X157656500Y-88754500D01*
X144035500Y-88714500D02*
X157621500Y-88714500D01*
X144070500Y-88674500D02*
X157586500Y-88674500D01*
X144106500Y-88634500D02*
X157550500Y-88634500D01*
X144143500Y-88594500D02*
X157513500Y-88594500D01*
X144180500Y-88554500D02*
X157476500Y-88554500D01*
X144217500Y-88514500D02*
X157439500Y-88514500D01*
X144255500Y-88474500D02*
X157401500Y-88474500D01*
X144293500Y-88434500D02*
X157363500Y-88434500D01*
X144332500Y-88394500D02*
X157324500Y-88394500D01*
X144371500Y-88354500D02*
X157285500Y-88354500D01*
X144410500Y-88314500D02*
X157246500Y-88314500D01*
X144451500Y-88274500D02*
X157205500Y-88274500D01*
X144491500Y-88234500D02*
X157165500Y-88234500D01*
X144532500Y-88194500D02*
X157124500Y-88194500D01*
X144574500Y-88154500D02*
X157082500Y-88154500D01*
X144616500Y-88114500D02*
X157040500Y-88114500D01*
X144659500Y-88074500D02*
X156997500Y-88074500D01*
X144702500Y-88034500D02*
X156954500Y-88034500D01*
X144746500Y-87994500D02*
X156910500Y-87994500D01*
X144791500Y-87954500D02*
X156865500Y-87954500D01*
X144836500Y-87914500D02*
X156820500Y-87914500D01*
X144881500Y-87874500D02*
X156775500Y-87874500D01*
X144928500Y-87834500D02*
X156728500Y-87834500D01*
X144975500Y-87794500D02*
X156681500Y-87794500D01*
X145022500Y-87754500D02*
X156634500Y-87754500D01*
X145070500Y-87714500D02*
X156586500Y-87714500D01*
X145119500Y-87674500D02*
X156537500Y-87674500D01*
X145169500Y-87634500D02*
X156487500Y-87634500D01*
X145219500Y-87594500D02*
X156437500Y-87594500D01*
X145270500Y-87554500D02*
X156386500Y-87554500D01*
X145322500Y-87514500D02*
X156334500Y-87514500D01*
X145375500Y-87474500D02*
X156281500Y-87474500D01*
X145428500Y-87434500D02*
X156228500Y-87434500D01*
X145482500Y-87394500D02*
X156174500Y-87394500D01*
X145537500Y-87354500D02*
X156119500Y-87354500D01*
X145593500Y-87314500D02*
X156063500Y-87314500D01*
X145650500Y-87274500D02*
X156006500Y-87274500D01*
X145708500Y-87234500D02*
X155948500Y-87234500D01*
X145767500Y-87194500D02*
X155889500Y-87194500D01*
X145827500Y-87154500D02*
X155829500Y-87154500D01*
X145888500Y-87114500D02*
X155768500Y-87114500D01*
X145949500Y-87074500D02*
X155707500Y-87074500D01*
X146012500Y-87034500D02*
X155644500Y-87034500D01*
X146077500Y-86994500D02*
X155579500Y-86994500D01*
X146142500Y-86954500D02*
X155514500Y-86954500D01*
X146209500Y-86914500D02*
X155447500Y-86914500D01*
X146277500Y-86874500D02*
X155379500Y-86874500D01*
X146346500Y-86834500D02*
X155310500Y-86834500D01*
X146417500Y-86794500D02*
X155239500Y-86794500D01*
X146489500Y-86754500D02*
X155167500Y-86754500D01*
X146563500Y-86714500D02*
X155093500Y-86714500D01*
X146639500Y-86674500D02*
X155017500Y-86674500D01*
X146716500Y-86634500D02*
X154940500Y-86634500D01*
X146795500Y-86594500D02*
X154861500Y-86594500D01*
X146876500Y-86554500D02*
X154780500Y-86554500D01*
X146959500Y-86514500D02*
X154697500Y-86514500D01*
X147045500Y-86474500D02*
X154611500Y-86474500D01*
X147133500Y-86434500D02*
X154523500Y-86434500D01*
X147223500Y-86394500D02*
X154433500Y-86394500D01*
X147316500Y-86354500D02*
X154340500Y-86354500D01*
X147412500Y-86314500D02*
X154244500Y-86314500D01*
X147512500Y-86274500D02*
X154144500Y-86274500D01*
X147615500Y-86234500D02*
X154041500Y-86234500D01*
X147721500Y-86194500D02*
X153935500Y-86194500D01*
X147832500Y-86154500D02*
X153824500Y-86154500D01*
X147948500Y-86114500D02*
X153708500Y-86114500D01*
X148069500Y-86074500D02*
X153587500Y-86074500D01*
X148197500Y-86034500D02*
X153459500Y-86034500D01*
X148331500Y-85994500D02*
X153325500Y-85994500D01*
X148473500Y-85954500D02*
X153183500Y-85954500D01*
X148626500Y-85914500D02*
X153030500Y-85914500D01*
X148790500Y-85874500D02*
X152866500Y-85874500D01*
X148969500Y-85834500D02*
X152687500Y-85834500D01*
X149167500Y-85794500D02*
X152489500Y-85794500D01*
X149393500Y-85754500D02*
X152263500Y-85754500D01*
X149663500Y-85714500D02*
X151993500Y-85714500D01*
X150015500Y-85674500D02*
X151641500Y-85674500D01*
X150868500Y-85634500D02*
X150788500Y-85634500D01*
X159948500Y-94754500D02*
G75*
G02*
X141708500Y-94754500I-9120000J0D01*
G01*
X141708500Y-94754500D02*
G75*
G02*
X159948500Y-94754500I9120000J0D01*
G01*
%TO.C,C1*%
X161016920Y-97994500D02*
X161298080Y-97994500D01*
X161016920Y-99014500D02*
X161298080Y-99014500D01*
%TO.C,U1*%
X159817500Y-105676500D02*
X159487500Y-105916500D01*
X159487500Y-105436500D01*
X159817500Y-105676500D01*
G36*
X159817500Y-105676500D02*
G01*
X159487500Y-105916500D01*
X159487500Y-105436500D01*
X159817500Y-105676500D01*
G37*
X164847500Y-101016500D02*
X164847500Y-105136500D01*
X164752500Y-101016500D02*
X164847500Y-101016500D01*
X159727500Y-101016500D02*
X159822500Y-101016500D01*
X164847500Y-105136500D02*
X164752500Y-105136500D01*
X159822500Y-105136500D02*
X159727500Y-105136500D01*
X159727500Y-105136500D02*
X159727500Y-101016500D01*
%TO.C,D3*%
X140042500Y-102854500D02*
X140042500Y-108664500D01*
X144342500Y-102854500D02*
X144342500Y-108664500D01*
X144342500Y-102854500D02*
X140042500Y-102854500D01*
%TO.C,J8*%
X155544500Y-78328500D02*
X156924500Y-78328500D01*
X155544500Y-79708500D02*
X155544500Y-78328500D01*
X155544500Y-80978500D02*
X155544500Y-81088500D01*
X155544500Y-80978500D02*
X158304500Y-80978500D01*
X155544500Y-81088500D02*
X158304500Y-81088500D01*
X158304500Y-80978500D02*
X158304500Y-81088500D01*
%TO.C,C4*%
X172755500Y-106713500D02*
X175105500Y-106713500D01*
X172755500Y-112469063D02*
X172755500Y-106713500D01*
X173819937Y-113533500D02*
X172755500Y-112469063D01*
X173819937Y-113533500D02*
X175105500Y-113533500D01*
X173924250Y-114167250D02*
X174711750Y-114167250D01*
X174318000Y-114561000D02*
X174318000Y-113773500D01*
X178511063Y-113533500D02*
X177225500Y-113533500D01*
X178511063Y-113533500D02*
X179575500Y-112469063D01*
X179575500Y-106713500D02*
X177225500Y-106713500D01*
X179575500Y-112469063D02*
X179575500Y-106713500D01*
%TO.C,R4*%
X195455000Y-98867758D02*
X195455000Y-98393242D01*
X196500000Y-98867758D02*
X196500000Y-98393242D01*
%TO.C,J10*%
X203296500Y-102712500D02*
X204676500Y-102712500D01*
X203296500Y-104092500D02*
X203296500Y-102712500D01*
X203296500Y-105362500D02*
X203296500Y-105472500D01*
X203296500Y-105362500D02*
X206056500Y-105362500D01*
X203296500Y-105472500D02*
X206056500Y-105472500D01*
X206056500Y-105362500D02*
X206056500Y-105472500D01*
%TO.C,F006*%
X114636500Y-103864500D02*
X137236500Y-103864500D01*
X114636500Y-106664500D02*
X114636500Y-103864500D01*
X114636500Y-113464500D02*
X114636500Y-110664500D01*
X114636500Y-113464500D02*
X137236500Y-113464500D01*
X137236500Y-106664500D02*
X137236500Y-103864500D01*
X137236500Y-113464500D02*
X137236500Y-110664500D01*
%TO.C,J4*%
X109316500Y-97124500D02*
X110696500Y-97124500D01*
X109316500Y-98504500D02*
X109316500Y-97124500D01*
X109316500Y-99774500D02*
X109316500Y-99884500D01*
X109316500Y-99774500D02*
X112076500Y-99774500D01*
X109316500Y-99884500D02*
X112076500Y-99884500D01*
X112076500Y-99774500D02*
X112076500Y-99884500D01*
%TO.C,R2*%
X184223500Y-97353500D02*
X189443500Y-97353500D01*
X184223500Y-99083500D02*
X184223500Y-97353500D01*
X184223500Y-102573500D02*
X184223500Y-100843500D01*
X189443500Y-97353500D02*
X189443500Y-97933500D01*
X189443500Y-99693500D02*
X189443500Y-100233500D01*
X189443500Y-101993500D02*
X189443500Y-102573500D01*
X189443500Y-102573500D02*
X184223500Y-102573500D01*
%TO.C,J11*%
X203296500Y-96616500D02*
X204676500Y-96616500D01*
X203296500Y-97996500D02*
X203296500Y-96616500D01*
X203296500Y-99266500D02*
X203296500Y-99376500D01*
X203296500Y-99266500D02*
X206056500Y-99266500D01*
X203296500Y-99376500D02*
X206056500Y-99376500D01*
X206056500Y-99266500D02*
X206056500Y-99376500D01*
%TO.C,J3*%
X144876500Y-78328500D02*
X146256500Y-78328500D01*
X144876500Y-79708500D02*
X144876500Y-78328500D01*
X144876500Y-80978500D02*
X144876500Y-81088500D01*
X144876500Y-80978500D02*
X147636500Y-80978500D01*
X144876500Y-81088500D02*
X147636500Y-81088500D01*
X147636500Y-80978500D02*
X147636500Y-81088500D01*
%TO.C,J5*%
X130144500Y-117444500D02*
X131524500Y-117444500D01*
X130144500Y-118824500D02*
X130144500Y-117444500D01*
X130144500Y-120094500D02*
X130144500Y-120204500D01*
X130144500Y-120094500D02*
X132904500Y-120094500D01*
X130144500Y-120204500D02*
X132904500Y-120204500D01*
X132904500Y-120094500D02*
X132904500Y-120204500D01*
%TO.C,R7*%
X192090000Y-109378242D02*
X192090000Y-109852758D01*
X193135000Y-109378242D02*
X193135000Y-109852758D01*
%TO.C,D2*%
X196958500Y-110725500D02*
X201368500Y-110725500D01*
X201368500Y-108505500D02*
X196958500Y-108505500D01*
X201368500Y-110725500D02*
X201368500Y-108505500D01*
%TO.C,R6*%
X184223500Y-105741500D02*
X189443500Y-105741500D01*
X184223500Y-107471500D02*
X184223500Y-105741500D01*
X184223500Y-110961500D02*
X184223500Y-109231500D01*
X189443500Y-105741500D02*
X189443500Y-106321500D01*
X189443500Y-108081500D02*
X189443500Y-108621500D01*
X189443500Y-110381500D02*
X189443500Y-110961500D01*
X189443500Y-110961500D02*
X184223500Y-110961500D01*
%TO.C,J6*%
X109316500Y-106776500D02*
X110696500Y-106776500D01*
X109316500Y-108156500D02*
X109316500Y-106776500D01*
X109316500Y-109426500D02*
X109316500Y-109536500D01*
X109316500Y-109426500D02*
X112076500Y-109426500D01*
X109316500Y-109536500D02*
X112076500Y-109536500D01*
X112076500Y-109426500D02*
X112076500Y-109536500D01*
%TO.C,C3*%
X172755500Y-96553500D02*
X175105500Y-96553500D01*
X172755500Y-102309063D02*
X172755500Y-96553500D01*
X173819937Y-103373500D02*
X172755500Y-102309063D01*
X173819937Y-103373500D02*
X175105500Y-103373500D01*
X173924250Y-104007250D02*
X174711750Y-104007250D01*
X174318000Y-104401000D02*
X174318000Y-103613500D01*
X178511063Y-103373500D02*
X177225500Y-103373500D01*
X178511063Y-103373500D02*
X179575500Y-102309063D01*
X179575500Y-96553500D02*
X177225500Y-96553500D01*
X179575500Y-102309063D02*
X179575500Y-96553500D01*
%TO.C,C2*%
X161016920Y-107138500D02*
X161298080Y-107138500D01*
X161016920Y-108158500D02*
X161298080Y-108158500D01*
%TO.C,J1*%
X135732500Y-78328500D02*
X137112500Y-78328500D01*
X135732500Y-79708500D02*
X135732500Y-78328500D01*
X135732500Y-80978500D02*
X135732500Y-81088500D01*
X135732500Y-80978500D02*
X138492500Y-80978500D01*
X135732500Y-81088500D02*
X138492500Y-81088500D01*
X138492500Y-80978500D02*
X138492500Y-81088500D01*
%TO.C,R3*%
X193106000Y-98867758D02*
X193106000Y-98393242D01*
X194151000Y-98867758D02*
X194151000Y-98393242D01*
%TO.C,F002*%
X114636500Y-83544500D02*
X137236500Y-83544500D01*
X114636500Y-86344500D02*
X114636500Y-83544500D01*
X114636500Y-93144500D02*
X114636500Y-90344500D01*
X114636500Y-93144500D02*
X137236500Y-93144500D01*
X137236500Y-86344500D02*
X137236500Y-83544500D01*
X137236500Y-93144500D02*
X137236500Y-90344500D01*
%TO.C,D1*%
X197974500Y-99549500D02*
X202384500Y-99549500D01*
X202384500Y-97329500D02*
X197974500Y-97329500D01*
X202384500Y-99549500D02*
X202384500Y-97329500D01*
%TO.C,F003*%
X114636500Y-93704500D02*
X137236500Y-93704500D01*
X114636500Y-96504500D02*
X114636500Y-93704500D01*
X114636500Y-103304500D02*
X114636500Y-100504500D01*
X114636500Y-103304500D02*
X137236500Y-103304500D01*
X137236500Y-96504500D02*
X137236500Y-93704500D01*
X137236500Y-103304500D02*
X137236500Y-100504500D01*
%TO.C,R5*%
X180723000Y-106844242D02*
X180723000Y-107318758D01*
X181768000Y-106844242D02*
X181768000Y-107318758D01*
%TO.C,J7*%
X155544500Y-117444500D02*
X156924500Y-117444500D01*
X155544500Y-118824500D02*
X155544500Y-117444500D01*
X155544500Y-120094500D02*
X155544500Y-120204500D01*
X155544500Y-120094500D02*
X158304500Y-120094500D01*
X155544500Y-120204500D02*
X158304500Y-120204500D01*
X158304500Y-120094500D02*
X158304500Y-120204500D01*
%TO.C,J9*%
X203296500Y-108808500D02*
X204676500Y-108808500D01*
X203296500Y-110188500D02*
X203296500Y-108808500D01*
X203296500Y-111458500D02*
X203296500Y-111568500D01*
X203296500Y-111458500D02*
X206056500Y-111458500D01*
X203296500Y-111568500D02*
X206056500Y-111568500D01*
X206056500Y-111458500D02*
X206056500Y-111568500D01*
%TO.C,R8*%
X194439000Y-109378242D02*
X194439000Y-109852758D01*
X195484000Y-109378242D02*
X195484000Y-109852758D01*
%TO.C,J2*%
X109316500Y-86964500D02*
X110696500Y-86964500D01*
X109316500Y-88344500D02*
X109316500Y-86964500D01*
X109316500Y-89614500D02*
X109316500Y-89724500D01*
X109316500Y-89614500D02*
X112076500Y-89614500D01*
X109316500Y-89724500D02*
X112076500Y-89724500D01*
X112076500Y-89614500D02*
X112076500Y-89724500D01*
%TO.C,R1*%
X180723000Y-98456242D02*
X180723000Y-98930758D01*
X181768000Y-98456242D02*
X181768000Y-98930758D01*
%TO.C,U2*%
X191067500Y-101967500D02*
X191162500Y-101967500D01*
X191067500Y-106087500D02*
X191067500Y-101967500D01*
X191162500Y-106087500D02*
X191067500Y-106087500D01*
X196092500Y-101967500D02*
X196187500Y-101967500D01*
X196187500Y-101967500D02*
X196187500Y-106087500D01*
X196187500Y-106087500D02*
X196092500Y-106087500D01*
X196427500Y-101667500D02*
X196097500Y-101427500D01*
X196427500Y-101187500D01*
X196427500Y-101667500D01*
G36*
X196427500Y-101667500D02*
G01*
X196097500Y-101427500D01*
X196427500Y-101187500D01*
X196427500Y-101667500D01*
G37*
%TD*%
M02*
