%TF.GenerationSoftware,KiCad,Pcbnew,9.0.6-1.fc43app1*%
%TF.CreationDate,2025-12-27T19:53:39+01:00*%
%TF.ProjectId,VuMeterBoard,56754d65-7465-4724-926f-6172642e6b69,rev?*%
%TF.SameCoordinates,Original*%
%TF.FileFunction,Copper,L1,Top*%
%TF.FilePolarity,Positive*%
%FSLAX46Y46*%
G04 Gerber Fmt 4.6, Leading zero omitted, Abs format (unit mm)*
G04 Created by KiCad (PCBNEW 9.0.6-1.fc43app1) date 2025-12-27 19:53:39*
%MOMM*%
%LPD*%
G01*
G04 APERTURE LIST*
G04 Aperture macros list*
%AMRoundRect*
0 Rectangle with rounded corners*
0 $1 Rounding radius*
0 $2 $3 $4 $5 $6 $7 $8 $9 X,Y pos of 4 corners*
0 Add a 4 corners polygon primitive as box body*
4,1,4,$2,$3,$4,$5,$6,$7,$8,$9,$2,$3,0*
0 Add four circle primitives for the rounded corners*
1,1,$1+$1,$2,$3*
1,1,$1+$1,$4,$5*
1,1,$1+$1,$6,$7*
1,1,$1+$1,$8,$9*
0 Add four rect primitives between the rounded corners*
20,1,$1+$1,$2,$3,$4,$5,0*
20,1,$1+$1,$4,$5,$6,$7,0*
20,1,$1+$1,$6,$7,$8,$9,0*
20,1,$1+$1,$8,$9,$2,$3,0*%
G04 Aperture macros list end*
%TA.AperFunction,SMDPad,CuDef*%
%ADD10RoundRect,0.225000X0.250000X-0.225000X0.250000X0.225000X-0.250000X0.225000X-0.250000X-0.225000X0*%
%TD*%
%TA.AperFunction,ComponentPad*%
%ADD11C,0.800000*%
%TD*%
%TA.AperFunction,ComponentPad*%
%ADD12C,6.400000*%
%TD*%
%TA.AperFunction,ComponentPad*%
%ADD13RoundRect,0.250001X0.949999X-0.949999X0.949999X0.949999X-0.949999X0.949999X-0.949999X-0.949999X0*%
%TD*%
%TA.AperFunction,ComponentPad*%
%ADD14C,2.400000*%
%TD*%
%TA.AperFunction,SMDPad,CuDef*%
%ADD15RoundRect,0.225000X-0.225000X-0.250000X0.225000X-0.250000X0.225000X0.250000X-0.225000X0.250000X0*%
%TD*%
%TA.AperFunction,SMDPad,CuDef*%
%ADD16RoundRect,0.150000X0.150000X-0.825000X0.150000X0.825000X-0.150000X0.825000X-0.150000X-0.825000X0*%
%TD*%
%TA.AperFunction,SMDPad,CuDef*%
%ADD17RoundRect,0.250000X-0.900000X1.000000X-0.900000X-1.000000X0.900000X-1.000000X0.900000X1.000000X0*%
%TD*%
%TA.AperFunction,ComponentPad*%
%ADD18R,1.700000X1.700000*%
%TD*%
%TA.AperFunction,SMDPad,CuDef*%
%ADD19RoundRect,0.250000X0.550000X-1.500000X0.550000X1.500000X-0.550000X1.500000X-0.550000X-1.500000X0*%
%TD*%
%TA.AperFunction,SMDPad,CuDef*%
%ADD20RoundRect,0.200000X0.275000X-0.200000X0.275000X0.200000X-0.275000X0.200000X-0.275000X-0.200000X0*%
%TD*%
%TA.AperFunction,ComponentPad*%
%ADD21C,3.000000*%
%TD*%
%TA.AperFunction,SMDPad,CuDef*%
%ADD22RoundRect,0.250000X-0.400000X-0.400000X0.400000X-0.400000X0.400000X0.400000X-0.400000X0.400000X0*%
%TD*%
%TA.AperFunction,SMDPad,CuDef*%
%ADD23RoundRect,0.250000X-0.750000X-0.400000X0.750000X-0.400000X0.750000X0.400000X-0.750000X0.400000X0*%
%TD*%
%TA.AperFunction,SMDPad,CuDef*%
%ADD24RoundRect,0.200000X-0.275000X0.200000X-0.275000X-0.200000X0.275000X-0.200000X0.275000X0.200000X0*%
%TD*%
%TA.AperFunction,SMDPad,CuDef*%
%ADD25RoundRect,0.250000X0.400000X0.600000X-0.400000X0.600000X-0.400000X-0.600000X0.400000X-0.600000X0*%
%TD*%
%TA.AperFunction,SMDPad,CuDef*%
%ADD26RoundRect,0.150000X-0.150000X0.825000X-0.150000X-0.825000X0.150000X-0.825000X0.150000X0.825000X0*%
%TD*%
%TA.AperFunction,ViaPad*%
%ADD27C,1.200000*%
%TD*%
%TA.AperFunction,Conductor*%
%ADD28C,0.508000*%
%TD*%
%TA.AperFunction,Conductor*%
%ADD29C,1.016000*%
%TD*%
%TA.AperFunction,Conductor*%
%ADD30C,2.032000*%
%TD*%
G04 APERTURE END LIST*
D10*
%TO.P,C6,1*%
%TO.N,+5V*%
X197564500Y-106899500D03*
%TO.P,C6,2*%
%TO.N,GND*%
X197564500Y-105349500D03*
%TD*%
D11*
%TO.P,H4,1,1*%
%TO.N,GND*%
X214436500Y-122216500D03*
X215139444Y-120519444D03*
X215139444Y-123913556D03*
X216836500Y-119816500D03*
D12*
X216836500Y-122216500D03*
D11*
X216836500Y-124616500D03*
X218533556Y-120519444D03*
X218533556Y-123913556D03*
X219236500Y-122216500D03*
%TD*%
%TO.P,H3,1,1*%
%TO.N,GND*%
X108436500Y-122216500D03*
X109139444Y-120519444D03*
X109139444Y-123913556D03*
X110836500Y-119816500D03*
D12*
X110836500Y-122216500D03*
D11*
X110836500Y-124616500D03*
X112533556Y-120519444D03*
X112533556Y-123913556D03*
X113236500Y-122216500D03*
%TD*%
%TO.P,H2,1,1*%
%TO.N,GND*%
X214436500Y-80216500D03*
X215139444Y-78519444D03*
X215139444Y-81913556D03*
X216836500Y-77816500D03*
D12*
X216836500Y-80216500D03*
D11*
X216836500Y-82616500D03*
X218533556Y-78519444D03*
X218533556Y-81913556D03*
X219236500Y-80216500D03*
%TD*%
%TO.P,H1,1,1*%
%TO.N,GND*%
X108436500Y-80216500D03*
X109139444Y-78519444D03*
X109139444Y-81913556D03*
X110836500Y-77816500D03*
D12*
X110836500Y-80216500D03*
D11*
X110836500Y-82616500D03*
X112533556Y-78519444D03*
X112533556Y-81913556D03*
X113236500Y-80216500D03*
%TD*%
D13*
%TO.P,C5,1*%
%TO.N,Net-(D3-K)*%
X150828500Y-98504500D03*
D14*
%TO.P,C5,2*%
%TO.N,GND*%
X150828500Y-91004500D03*
%TD*%
D15*
%TO.P,C1,1*%
%TO.N,Net-(D3-K)*%
X160382500Y-98504500D03*
%TO.P,C1,2*%
%TO.N,GND*%
X161932500Y-98504500D03*
%TD*%
D16*
%TO.P,U1,8,IN*%
%TO.N,Net-(D3-K)*%
X160382500Y-100601500D03*
%TO.P,U1,7,GND*%
%TO.N,GND*%
X161652500Y-100601500D03*
%TO.P,U1,6,GND*%
X162922500Y-100601500D03*
%TO.P,U1,5,NC*%
%TO.N,unconnected-(U1-NC-Pad5)*%
X164192500Y-100601500D03*
%TO.P,U1,4,NC*%
%TO.N,unconnected-(U1-NC-Pad4)*%
X164192500Y-105551500D03*
%TO.P,U1,3,GND*%
%TO.N,GND*%
X162922500Y-105551500D03*
%TO.P,U1,2,GND*%
X161652500Y-105551500D03*
%TO.P,U1,1,OUT*%
%TO.N,+5V*%
X160382500Y-105551500D03*
%TD*%
D17*
%TO.P,D3,2,A*%
%TO.N,Net-(D3-A)*%
X142192500Y-108664500D03*
%TO.P,D3,1,K*%
%TO.N,Net-(D3-K)*%
X142192500Y-104364500D03*
%TD*%
D18*
%TO.P,J8,1,Pin_1*%
%TO.N,Net-(J8-Pin_1)*%
X156924500Y-79708500D03*
%TD*%
D19*
%TO.P,C4,1*%
%TO.N,Net-(J7-Pin_1)*%
X176165500Y-112823500D03*
%TO.P,C4,2*%
%TO.N,Net-(C4-Pad2)*%
X176165500Y-107423500D03*
%TD*%
D20*
%TO.P,R4,1*%
%TO.N,Net-(R3-Pad2)*%
X195977500Y-99455500D03*
%TO.P,R4,2*%
%TO.N,Net-(D1-A)*%
X195977500Y-97805500D03*
%TD*%
D18*
%TO.P,J10,1,Pin_1*%
%TO.N,GND*%
X204676500Y-104092500D03*
%TD*%
D21*
%TO.P,F006,1*%
%TO.N,Net-(J6-Pin_1)*%
X114636500Y-108664500D03*
%TO.P,F006,2*%
%TO.N,Net-(D3-A)*%
X137236500Y-108664500D03*
%TD*%
D18*
%TO.P,J4,1,Pin_1*%
%TO.N,Net-(J4-Pin_1)*%
X110696500Y-98504500D03*
%TD*%
D22*
%TO.P,R2,1,1*%
%TO.N,Net-(R1-Pad2)*%
X189583500Y-98813500D03*
D23*
%TO.P,R2,2,2*%
X184083500Y-99963500D03*
D22*
%TO.P,R2,3,3*%
%TO.N,Net-(U2A--)*%
X189583500Y-101113500D03*
%TD*%
D18*
%TO.P,J11,1,Pin_1*%
%TO.N,Net-(D1-K)*%
X204676500Y-97996500D03*
%TD*%
%TO.P,J3,1,Pin_1*%
%TO.N,Net-(J3-Pin_1)*%
X146256500Y-79708500D03*
%TD*%
%TO.P,J5,1,Pin_1*%
%TO.N,Net-(D3-A)*%
X131524500Y-118824500D03*
%TD*%
D24*
%TO.P,R7,1*%
%TO.N,Net-(U2B--)*%
X192612500Y-108790500D03*
%TO.P,R7,2*%
%TO.N,Net-(R7-Pad2)*%
X192612500Y-110440500D03*
%TD*%
D25*
%TO.P,D2,1,K*%
%TO.N,Net-(D2-K)*%
X200458500Y-109615500D03*
%TO.P,D2,2,A*%
%TO.N,Net-(D2-A)*%
X196958500Y-109615500D03*
%TD*%
D22*
%TO.P,R6,1,1*%
%TO.N,Net-(R5-Pad2)*%
X189583500Y-107201500D03*
D23*
%TO.P,R6,2,2*%
X184083500Y-108351500D03*
D22*
%TO.P,R6,3,3*%
%TO.N,Net-(U2B--)*%
X189583500Y-109501500D03*
%TD*%
D18*
%TO.P,J6,1,Pin_1*%
%TO.N,Net-(J6-Pin_1)*%
X110696500Y-108156500D03*
%TD*%
D19*
%TO.P,C3,1*%
%TO.N,Net-(J8-Pin_1)*%
X176165500Y-102663500D03*
%TO.P,C3,2*%
%TO.N,Net-(C3-Pad2)*%
X176165500Y-97263500D03*
%TD*%
D15*
%TO.P,C2,1*%
%TO.N,+5V*%
X160382500Y-107648500D03*
%TO.P,C2,2*%
%TO.N,GND*%
X161932500Y-107648500D03*
%TD*%
D18*
%TO.P,J1,1,Pin_1*%
%TO.N,Net-(J1-Pin_1)*%
X137112500Y-79708500D03*
%TD*%
D20*
%TO.P,R3,1*%
%TO.N,Net-(U2A--)*%
X193628500Y-99455500D03*
%TO.P,R3,2*%
%TO.N,Net-(R3-Pad2)*%
X193628500Y-97805500D03*
%TD*%
D21*
%TO.P,F002,1*%
%TO.N,Net-(J2-Pin_1)*%
X114636500Y-88344500D03*
%TO.P,F002,2*%
%TO.N,Net-(J1-Pin_1)*%
X137236500Y-88344500D03*
%TD*%
D25*
%TO.P,D1,1,K*%
%TO.N,Net-(D1-K)*%
X201474500Y-98439500D03*
%TO.P,D1,2,A*%
%TO.N,Net-(D1-A)*%
X197974500Y-98439500D03*
%TD*%
D21*
%TO.P,F003,1*%
%TO.N,Net-(J4-Pin_1)*%
X114636500Y-98504500D03*
%TO.P,F003,2*%
%TO.N,Net-(J3-Pin_1)*%
X137236500Y-98504500D03*
%TD*%
D24*
%TO.P,R5,1*%
%TO.N,Net-(C4-Pad2)*%
X181245500Y-106256500D03*
%TO.P,R5,2*%
%TO.N,Net-(R5-Pad2)*%
X181245500Y-107906500D03*
%TD*%
D18*
%TO.P,J7,1,Pin_1*%
%TO.N,Net-(J7-Pin_1)*%
X156924500Y-118824500D03*
%TD*%
%TO.P,J9,1,Pin_1*%
%TO.N,Net-(D2-K)*%
X204676500Y-110188500D03*
%TD*%
D24*
%TO.P,R8,1*%
%TO.N,Net-(R7-Pad2)*%
X194961500Y-108790500D03*
%TO.P,R8,2*%
%TO.N,Net-(D2-A)*%
X194961500Y-110440500D03*
%TD*%
D18*
%TO.P,J2,1,Pin_1*%
%TO.N,Net-(J2-Pin_1)*%
X110696500Y-88344500D03*
%TD*%
D24*
%TO.P,R1,1*%
%TO.N,Net-(C3-Pad2)*%
X181245500Y-97868500D03*
%TO.P,R1,2*%
%TO.N,Net-(R1-Pad2)*%
X181245500Y-99518500D03*
%TD*%
D26*
%TO.P,U2,1*%
%TO.N,Net-(R3-Pad2)*%
X195532500Y-101552500D03*
%TO.P,U2,2,-*%
%TO.N,Net-(U2A--)*%
X194262500Y-101552500D03*
%TO.P,U2,3,+*%
%TO.N,GND*%
X192992500Y-101552500D03*
%TO.P,U2,4,V-*%
X191722500Y-101552500D03*
%TO.P,U2,5,+*%
X191722500Y-106502500D03*
%TO.P,U2,6,-*%
%TO.N,Net-(U2B--)*%
X192992500Y-106502500D03*
%TO.P,U2,7*%
%TO.N,Net-(R7-Pad2)*%
X194262500Y-106502500D03*
%TO.P,U2,8,V+*%
%TO.N,+5V*%
X195532500Y-106502500D03*
%TD*%
D27*
%TO.N,+5V*%
X199088500Y-107140500D03*
X158956500Y-107648500D03*
%TD*%
D28*
%TO.N,Net-(U2A--)*%
X193628500Y-99455500D02*
X191241500Y-99455500D01*
X191241500Y-99455500D02*
X189583500Y-101113500D01*
%TO.N,Net-(D2-A)*%
X194961500Y-110440500D02*
X196133500Y-110440500D01*
X196133500Y-110440500D02*
X196958500Y-109615500D01*
%TO.N,Net-(U2B--)*%
X192612500Y-108790500D02*
X191850500Y-108790500D01*
X191850500Y-108790500D02*
X191139500Y-109501500D01*
X191139500Y-109501500D02*
X189583500Y-109501500D01*
%TO.N,Net-(R5-Pad2)*%
X189583500Y-107201500D02*
X184295500Y-107201500D01*
X184295500Y-107201500D02*
X184083500Y-107413500D01*
X184083500Y-107413500D02*
X184083500Y-108351500D01*
D29*
%TO.N,Net-(J8-Pin_1)*%
X176165500Y-102663500D02*
X173275500Y-102663500D01*
X173275500Y-102663500D02*
X156924500Y-86312500D01*
X156924500Y-86312500D02*
X156924500Y-79708500D01*
%TO.N,Net-(J7-Pin_1)*%
X156924500Y-118824500D02*
X173688500Y-118824500D01*
X173688500Y-118824500D02*
X176165500Y-116347500D01*
X176165500Y-116347500D02*
X176165500Y-112823500D01*
%TO.N,+5V*%
X197564500Y-106899500D02*
X195929500Y-106899500D01*
D28*
X195929500Y-106899500D02*
X195532500Y-106502500D01*
D29*
X160382500Y-107648500D02*
X158956500Y-107648500D01*
%TO.N,Net-(D1-K)*%
X201474500Y-98439500D02*
X204233500Y-98439500D01*
X204233500Y-98439500D02*
X204676500Y-97996500D01*
%TO.N,Net-(D2-K)*%
X200458500Y-109615500D02*
X204103500Y-109615500D01*
X204103500Y-109615500D02*
X204676500Y-110188500D01*
%TO.N,+5V*%
X160382500Y-105551500D02*
X160382500Y-107648500D01*
%TO.N,Net-(D3-K)*%
X160382500Y-100601500D02*
X160382500Y-98504500D01*
X160382500Y-98504500D02*
X150828500Y-98504500D01*
D30*
X142192500Y-104364500D02*
X144968500Y-104364500D01*
X144968500Y-104364500D02*
X150828500Y-98504500D01*
%TO.N,Net-(D3-A)*%
X137236500Y-108664500D02*
X142192500Y-108664500D01*
%TO.N,Net-(J3-Pin_1)*%
X137236500Y-98504500D02*
X137236500Y-96348500D01*
X137236500Y-96348500D02*
X146256500Y-87328500D01*
X146256500Y-87328500D02*
X146256500Y-79708500D01*
%TO.N,Net-(D3-A)*%
X137236500Y-108664500D02*
X137236500Y-113112500D01*
X137236500Y-113112500D02*
X131524500Y-118824500D01*
%TO.N,Net-(J6-Pin_1)*%
X110696500Y-108156500D02*
X114128500Y-108156500D01*
X114128500Y-108156500D02*
X114636500Y-108664500D01*
%TO.N,Net-(J4-Pin_1)*%
X110696500Y-98504500D02*
X114636500Y-98504500D01*
%TO.N,Net-(J2-Pin_1)*%
X110696500Y-88344500D02*
X114636500Y-88344500D01*
%TO.N,Net-(J1-Pin_1)*%
X137236500Y-88344500D02*
X137236500Y-79832500D01*
X137236500Y-79832500D02*
X137112500Y-79708500D01*
D28*
%TO.N,Net-(C3-Pad2)*%
X176165500Y-97263500D02*
X180640500Y-97263500D01*
X180640500Y-97263500D02*
X181245500Y-97868500D01*
%TO.N,Net-(C4-Pad2)*%
X177332500Y-106256500D02*
X176165500Y-107423500D01*
X181245500Y-106256500D02*
X177332500Y-106256500D01*
%TO.N,Net-(D1-A)*%
X197340500Y-97805500D02*
X197974500Y-98439500D01*
X195977500Y-97805500D02*
X197340500Y-97805500D01*
%TO.N,Net-(R1-Pad2)*%
X189583500Y-98813500D02*
X185233500Y-98813500D01*
X181690500Y-99963500D02*
X181245500Y-99518500D01*
X184083500Y-99963500D02*
X181690500Y-99963500D01*
X185233500Y-98813500D02*
X184083500Y-99963500D01*
%TO.N,Net-(U2A--)*%
X193628500Y-99455500D02*
X194262500Y-100089500D01*
X194262500Y-100089500D02*
X194262500Y-101552500D01*
%TO.N,Net-(R3-Pad2)*%
X193628500Y-97805500D02*
X193819500Y-97805500D01*
X195469500Y-99455500D02*
X195977500Y-99455500D01*
X195532500Y-99900500D02*
X195977500Y-99455500D01*
X195532500Y-101552500D02*
X195532500Y-99900500D01*
X193819500Y-97805500D02*
X195469500Y-99455500D01*
%TO.N,Net-(R5-Pad2)*%
X184083500Y-108351500D02*
X181690500Y-108351500D01*
X181690500Y-108351500D02*
X181245500Y-107906500D01*
%TO.N,Net-(U2B--)*%
X192992500Y-106502500D02*
X192992500Y-108410500D01*
X192992500Y-108410500D02*
X192612500Y-108790500D01*
%TO.N,Net-(R7-Pad2)*%
X194770500Y-108790500D02*
X194961500Y-108790500D01*
X193120500Y-110440500D02*
X194770500Y-108790500D01*
X192612500Y-110440500D02*
X193120500Y-110440500D01*
X194262500Y-108091500D02*
X194961500Y-108790500D01*
X194262500Y-106502500D02*
X194262500Y-108091500D01*
D29*
%TO.N,+5V*%
X199088500Y-107140500D02*
X197805500Y-107140500D01*
X197805500Y-107140500D02*
X197564500Y-106899500D01*
%TD*%
%TA.AperFunction,Conductor*%
%TO.N,GND*%
G36*
X216871355Y-76145132D02*
G01*
X217238450Y-76162103D01*
X217249847Y-76163159D01*
X217610972Y-76213534D01*
X217622208Y-76215635D01*
X217977148Y-76299116D01*
X217988138Y-76302243D01*
X218333877Y-76418123D01*
X218344531Y-76422251D01*
X218678089Y-76569531D01*
X218688316Y-76574623D01*
X218936161Y-76712672D01*
X219006856Y-76752049D01*
X219016594Y-76758078D01*
X219275370Y-76935344D01*
X219317402Y-76964136D01*
X219326542Y-76971039D01*
X219607041Y-77203962D01*
X219615505Y-77211678D01*
X219873321Y-77469494D01*
X219881037Y-77477958D01*
X220113960Y-77758457D01*
X220120863Y-77767597D01*
X220326921Y-78068405D01*
X220332950Y-78078143D01*
X220396368Y-78192000D01*
X220492399Y-78364409D01*
X220510369Y-78396670D01*
X220515472Y-78406919D01*
X220556992Y-78500952D01*
X220662743Y-78740455D01*
X220666881Y-78751135D01*
X220782752Y-79096848D01*
X220785886Y-79107864D01*
X220869361Y-79462778D01*
X220871466Y-79474037D01*
X220921839Y-79835150D01*
X220922896Y-79846554D01*
X220939868Y-80213644D01*
X220940000Y-80219371D01*
X220940000Y-122377628D01*
X220939868Y-122383355D01*
X220922896Y-122750445D01*
X220921839Y-122761849D01*
X220871466Y-123122962D01*
X220869361Y-123134221D01*
X220785886Y-123489135D01*
X220782752Y-123500151D01*
X220666881Y-123845864D01*
X220662743Y-123856544D01*
X220515474Y-124190076D01*
X220510369Y-124200329D01*
X220332950Y-124518856D01*
X220326921Y-124528594D01*
X220120863Y-124829402D01*
X220113960Y-124838542D01*
X219881037Y-125119041D01*
X219873321Y-125127505D01*
X219615505Y-125385321D01*
X219607041Y-125393037D01*
X219326542Y-125625960D01*
X219317402Y-125632863D01*
X219016594Y-125838921D01*
X219006856Y-125844950D01*
X218688329Y-126022369D01*
X218678076Y-126027474D01*
X218344544Y-126174743D01*
X218333864Y-126178881D01*
X217988151Y-126294752D01*
X217977135Y-126297886D01*
X217622221Y-126381361D01*
X217610962Y-126383466D01*
X217249849Y-126433839D01*
X217238445Y-126434896D01*
X216871355Y-126451868D01*
X216865628Y-126452000D01*
X110699372Y-126452000D01*
X110693645Y-126451868D01*
X110326554Y-126434896D01*
X110315150Y-126433839D01*
X109954037Y-126383466D01*
X109942778Y-126381361D01*
X109587864Y-126297886D01*
X109576848Y-126294752D01*
X109231135Y-126178881D01*
X109220455Y-126174743D01*
X108886923Y-126027474D01*
X108876675Y-126022371D01*
X108773079Y-125964669D01*
X108558143Y-125844950D01*
X108548405Y-125838921D01*
X108247597Y-125632863D01*
X108238457Y-125625960D01*
X107957958Y-125393037D01*
X107949494Y-125385321D01*
X107691678Y-125127505D01*
X107683962Y-125119041D01*
X107451039Y-124838542D01*
X107444136Y-124829402D01*
X107238078Y-124528594D01*
X107232049Y-124518856D01*
X107068913Y-124225971D01*
X107054623Y-124200316D01*
X107049531Y-124190089D01*
X106902251Y-123856531D01*
X106898123Y-123845877D01*
X106782243Y-123500138D01*
X106779116Y-123489148D01*
X106695635Y-123134208D01*
X106693534Y-123122972D01*
X106643159Y-122761847D01*
X106642103Y-122750445D01*
X106625132Y-122383355D01*
X106625000Y-122377628D01*
X106625000Y-118705143D01*
X130008001Y-118705143D01*
X130008001Y-118943856D01*
X130045341Y-119179615D01*
X130119105Y-119406633D01*
X130119108Y-119406640D01*
X130160485Y-119487847D01*
X130174000Y-119544140D01*
X130174000Y-119722369D01*
X130174001Y-119722376D01*
X130180408Y-119781983D01*
X130230702Y-119916828D01*
X130230706Y-119916835D01*
X130316952Y-120032044D01*
X130316955Y-120032047D01*
X130432164Y-120118293D01*
X130432171Y-120118297D01*
X130477118Y-120135061D01*
X130567017Y-120168591D01*
X130626627Y-120175000D01*
X130804856Y-120174999D01*
X130861152Y-120188514D01*
X130942362Y-120229893D01*
X130942364Y-120229893D01*
X130942367Y-120229895D01*
X131064053Y-120269433D01*
X131169384Y-120303658D01*
X131405144Y-120340999D01*
X131405149Y-120340999D01*
X131643856Y-120340999D01*
X131879615Y-120303658D01*
X132106633Y-120229895D01*
X132187847Y-120188513D01*
X132244142Y-120174999D01*
X132422371Y-120174999D01*
X132422372Y-120174999D01*
X132481983Y-120168591D01*
X132616831Y-120118296D01*
X132732046Y-120032046D01*
X132818296Y-119916831D01*
X132868591Y-119781983D01*
X132875000Y-119722373D01*
X132874999Y-119670015D01*
X132894682Y-119602977D01*
X132911313Y-119582339D01*
X134567018Y-117926635D01*
X155574000Y-117926635D01*
X155574000Y-119722370D01*
X155574001Y-119722376D01*
X155580408Y-119781983D01*
X155630702Y-119916828D01*
X155630706Y-119916835D01*
X155716952Y-120032044D01*
X155716955Y-120032047D01*
X155832164Y-120118293D01*
X155832171Y-120118297D01*
X155967017Y-120168591D01*
X155967016Y-120168591D01*
X155973944Y-120169335D01*
X156026627Y-120175000D01*
X157754610Y-120174999D01*
X157767577Y-120176998D01*
X157776531Y-120177089D01*
X157830591Y-120174742D01*
X157835166Y-120173623D01*
X157881983Y-120168591D01*
X157925040Y-120152531D01*
X157938922Y-120148262D01*
X157970357Y-120140579D01*
X158712535Y-119841962D01*
X158758821Y-119833000D01*
X173787830Y-119833000D01*
X173787831Y-119832999D01*
X173982669Y-119794244D01*
X174166204Y-119718221D01*
X174331381Y-119607853D01*
X174471853Y-119467381D01*
X176948853Y-116990381D01*
X177059221Y-116825204D01*
X177135244Y-116641668D01*
X177174000Y-116446829D01*
X177174000Y-116248171D01*
X177174000Y-115479238D01*
X177178781Y-115445137D01*
X177431243Y-114562507D01*
X177440915Y-114522641D01*
X177440914Y-114522641D01*
X177441833Y-114518858D01*
X177444625Y-114509110D01*
X177455499Y-114476297D01*
X177466000Y-114373509D01*
X177465999Y-111273492D01*
X177455499Y-111170703D01*
X177400314Y-111004166D01*
X177308212Y-110854844D01*
X177184156Y-110730788D01*
X177077496Y-110665000D01*
X177034836Y-110638687D01*
X177034831Y-110638685D01*
X176998886Y-110626774D01*
X176868297Y-110583501D01*
X176868295Y-110583500D01*
X176765510Y-110573000D01*
X175565498Y-110573000D01*
X175565481Y-110573001D01*
X175462703Y-110583500D01*
X175462700Y-110583501D01*
X175296168Y-110638685D01*
X175296163Y-110638687D01*
X175146842Y-110730789D01*
X175022789Y-110854842D01*
X174930687Y-111004163D01*
X174930685Y-111004168D01*
X174922087Y-111030116D01*
X174875501Y-111170703D01*
X174875501Y-111170704D01*
X174875500Y-111170704D01*
X174865000Y-111273483D01*
X174865000Y-114373501D01*
X174865001Y-114373518D01*
X174875501Y-114476298D01*
X174893128Y-114529494D01*
X174898279Y-114551701D01*
X174899754Y-114562497D01*
X174899755Y-114562501D01*
X175152219Y-115445137D01*
X175157000Y-115479238D01*
X175157000Y-115878404D01*
X175137315Y-115945443D01*
X175120681Y-115966085D01*
X173307085Y-117779681D01*
X173245762Y-117813166D01*
X173219404Y-117816000D01*
X158758821Y-117816000D01*
X158712535Y-117807038D01*
X157970356Y-117508420D01*
X157970350Y-117508418D01*
X157970347Y-117508417D01*
X157922029Y-117494155D01*
X157922027Y-117494154D01*
X157906742Y-117489643D01*
X157881983Y-117480409D01*
X157822373Y-117474000D01*
X157726420Y-117474000D01*
X157723616Y-117473898D01*
X157723215Y-117474000D01*
X157722427Y-117474000D01*
X157720229Y-117473778D01*
X157716062Y-117474000D01*
X156026629Y-117474000D01*
X156026623Y-117474001D01*
X155967016Y-117480408D01*
X155832171Y-117530702D01*
X155832164Y-117530706D01*
X155716955Y-117616952D01*
X155716952Y-117616955D01*
X155630706Y-117732164D01*
X155630702Y-117732171D01*
X155580408Y-117867017D01*
X155574001Y-117926616D01*
X155574000Y-117926635D01*
X134567018Y-117926635D01*
X138393221Y-114100433D01*
X138533527Y-113907319D01*
X138641895Y-113694634D01*
X138647123Y-113678542D01*
X138659985Y-113638958D01*
X138659985Y-113638955D01*
X138715659Y-113467615D01*
X138734329Y-113349733D01*
X138753000Y-113231851D01*
X138753000Y-110305000D01*
X138772685Y-110237961D01*
X138825489Y-110192206D01*
X138877000Y-110181000D01*
X140696270Y-110181000D01*
X140763309Y-110200685D01*
X140783951Y-110217319D01*
X140823844Y-110257212D01*
X140973166Y-110349314D01*
X141139703Y-110404499D01*
X141242491Y-110415000D01*
X143142508Y-110414999D01*
X143245297Y-110404499D01*
X143411834Y-110349314D01*
X143561156Y-110257212D01*
X143685212Y-110133156D01*
X143777314Y-109983834D01*
X143832499Y-109817297D01*
X143843000Y-109714509D01*
X143842999Y-107614492D01*
X143837626Y-107561889D01*
X157856000Y-107561889D01*
X157856000Y-107735111D01*
X157883098Y-107906201D01*
X157928589Y-108046208D01*
X157936628Y-108070947D01*
X157976280Y-108148770D01*
X158015268Y-108225288D01*
X158117086Y-108365428D01*
X158239572Y-108487914D01*
X158379712Y-108589732D01*
X158534055Y-108668373D01*
X158698799Y-108721902D01*
X158869889Y-108749000D01*
X158869890Y-108749000D01*
X159043110Y-108749000D01*
X159043111Y-108749000D01*
X159091423Y-108741347D01*
X159119224Y-108740106D01*
X159121726Y-108740276D01*
X160172007Y-108661392D01*
X160205091Y-108657745D01*
X160218670Y-108657000D01*
X160481831Y-108657000D01*
X160548271Y-108643783D01*
X160636087Y-108626316D01*
X160653973Y-108624094D01*
X160655831Y-108623999D01*
X160655844Y-108623999D01*
X160755208Y-108613849D01*
X160916197Y-108560503D01*
X161060544Y-108471468D01*
X161070168Y-108461843D01*
X161131487Y-108428356D01*
X161201179Y-108433335D01*
X161245534Y-108461839D01*
X161254767Y-108471072D01*
X161254771Y-108471075D01*
X161399007Y-108560042D01*
X161399018Y-108560047D01*
X161559893Y-108613355D01*
X161659183Y-108623499D01*
X162182500Y-108623499D01*
X162205808Y-108623499D01*
X162205822Y-108623498D01*
X162305107Y-108613355D01*
X162465981Y-108560047D01*
X162465992Y-108560042D01*
X162610228Y-108471075D01*
X162610232Y-108471072D01*
X162730072Y-108351232D01*
X162730075Y-108351228D01*
X162819042Y-108206992D01*
X162819047Y-108206981D01*
X162872355Y-108046106D01*
X162882499Y-107946822D01*
X162882500Y-107946809D01*
X162882500Y-107898500D01*
X162182500Y-107898500D01*
X162182500Y-108623499D01*
X161659183Y-108623499D01*
X161682500Y-108623498D01*
X161682500Y-107772500D01*
X161702185Y-107705461D01*
X161754989Y-107659706D01*
X161806500Y-107648500D01*
X161932500Y-107648500D01*
X161932500Y-107522500D01*
X161952185Y-107455461D01*
X162004989Y-107409706D01*
X162056500Y-107398500D01*
X162882499Y-107398500D01*
X162882499Y-107350192D01*
X162882498Y-107350177D01*
X162872355Y-107250892D01*
X162841077Y-107156500D01*
X162796500Y-107156500D01*
X162729461Y-107136815D01*
X162683706Y-107084011D01*
X162672500Y-107032500D01*
X162672500Y-105801500D01*
X161776500Y-105801500D01*
X161709461Y-105781815D01*
X161663706Y-105729011D01*
X161652500Y-105677500D01*
X161652500Y-105551500D01*
X161526500Y-105551500D01*
X161459461Y-105531815D01*
X161413706Y-105479011D01*
X161402500Y-105427500D01*
X161402500Y-104079203D01*
X161902500Y-104079203D01*
X161902500Y-105301500D01*
X162672500Y-105301500D01*
X162672500Y-104079203D01*
X163172500Y-104079203D01*
X163172500Y-107023795D01*
X163172501Y-107023795D01*
X163174986Y-107023600D01*
X163332698Y-106977781D01*
X163474050Y-106894186D01*
X163480217Y-106889403D01*
X163482130Y-106891869D01*
X163530722Y-106865302D01*
X163600417Y-106870249D01*
X163633262Y-106891353D01*
X163634469Y-106889798D01*
X163640632Y-106894578D01*
X163640635Y-106894581D01*
X163782102Y-106978244D01*
X163787069Y-106979687D01*
X163939926Y-107024097D01*
X163939929Y-107024097D01*
X163939931Y-107024098D01*
X163976806Y-107027000D01*
X163976814Y-107027000D01*
X164408186Y-107027000D01*
X164408194Y-107027000D01*
X164445069Y-107024098D01*
X164445071Y-107024097D01*
X164445073Y-107024097D01*
X164536357Y-106997576D01*
X164602898Y-106978244D01*
X164744365Y-106894581D01*
X164860581Y-106778365D01*
X164944244Y-106636898D01*
X164986546Y-106491294D01*
X164990097Y-106479073D01*
X164990098Y-106479067D01*
X164990951Y-106468233D01*
X164993000Y-106442194D01*
X164993000Y-105873483D01*
X174865000Y-105873483D01*
X174865000Y-108973501D01*
X174865001Y-108973518D01*
X174875500Y-109076296D01*
X174875501Y-109076299D01*
X174926770Y-109231016D01*
X174930686Y-109242834D01*
X175022788Y-109392156D01*
X175146844Y-109516212D01*
X175296166Y-109608314D01*
X175462703Y-109663499D01*
X175565491Y-109674000D01*
X176765508Y-109673999D01*
X176868297Y-109663499D01*
X177034834Y-109608314D01*
X177184156Y-109516212D01*
X177308212Y-109392156D01*
X177400314Y-109242834D01*
X177455499Y-109076297D01*
X177466000Y-108973509D01*
X177465999Y-107964268D01*
X177479104Y-107908785D01*
X177894025Y-107079515D01*
X177941627Y-107028369D01*
X178004919Y-107011000D01*
X180273043Y-107011000D01*
X180303096Y-107014697D01*
X180339515Y-107023795D01*
X180385458Y-107035272D01*
X180445727Y-107070618D01*
X180477320Y-107132937D01*
X180470205Y-107202443D01*
X180443087Y-107243255D01*
X180415029Y-107271313D01*
X180327022Y-107416893D01*
X180276413Y-107579307D01*
X180270000Y-107649886D01*
X180270000Y-108163113D01*
X180276413Y-108233692D01*
X180276413Y-108233694D01*
X180276414Y-108233696D01*
X180327022Y-108396106D01*
X180410007Y-108533380D01*
X180415030Y-108541688D01*
X180535311Y-108661969D01*
X180535313Y-108661970D01*
X180535315Y-108661972D01*
X180680894Y-108749978D01*
X180843304Y-108800586D01*
X180913884Y-108807000D01*
X181012330Y-108807000D01*
X181016465Y-108807703D01*
X181018727Y-108807165D01*
X181053350Y-108813981D01*
X181076895Y-108822237D01*
X181123543Y-108851568D01*
X181209534Y-108937559D01*
X181333111Y-109020130D01*
X181413545Y-109053446D01*
X181470420Y-109077005D01*
X181494605Y-109081815D01*
X181543494Y-109091540D01*
X181616186Y-109106001D01*
X181616188Y-109106001D01*
X181770926Y-109106001D01*
X181770946Y-109106000D01*
X182282635Y-109106000D01*
X182335257Y-109117719D01*
X183011429Y-109434626D01*
X183014166Y-109436314D01*
X183017381Y-109437379D01*
X183086166Y-109463659D01*
X183086170Y-109463660D01*
X183086180Y-109463664D01*
X183089430Y-109464639D01*
X183089437Y-109464641D01*
X183089438Y-109464641D01*
X183089441Y-109464642D01*
X183100421Y-109466467D01*
X183119085Y-109471080D01*
X183180703Y-109491499D01*
X183283491Y-109502000D01*
X184883508Y-109501999D01*
X184986297Y-109491499D01*
X185152834Y-109436314D01*
X185302156Y-109344212D01*
X185426212Y-109220156D01*
X185518314Y-109070834D01*
X185573499Y-108904297D01*
X185584000Y-108801509D01*
X185583999Y-108079999D01*
X185603683Y-108012961D01*
X185656487Y-107967206D01*
X185707999Y-107956000D01*
X188132635Y-107956000D01*
X188185257Y-107967719D01*
X188776892Y-108245005D01*
X188829240Y-108291278D01*
X188848262Y-108358509D01*
X188827916Y-108425350D01*
X188789365Y-108462822D01*
X188714847Y-108508785D01*
X188714843Y-108508788D01*
X188590789Y-108632842D01*
X188498687Y-108782163D01*
X188498685Y-108782168D01*
X188494225Y-108795627D01*
X188443501Y-108948703D01*
X188443501Y-108948704D01*
X188443500Y-108948704D01*
X188433000Y-109051483D01*
X188433000Y-109951501D01*
X188433001Y-109951519D01*
X188443500Y-110054296D01*
X188443501Y-110054299D01*
X188498685Y-110220831D01*
X188498687Y-110220836D01*
X188526237Y-110265501D01*
X188590788Y-110370156D01*
X188714844Y-110494212D01*
X188864166Y-110586314D01*
X189030703Y-110641499D01*
X189133491Y-110652000D01*
X190033508Y-110651999D01*
X190033516Y-110651998D01*
X190033519Y-110651998D01*
X190114897Y-110643685D01*
X190136297Y-110641499D01*
X190302834Y-110586314D01*
X190302834Y-110586313D01*
X190302837Y-110586313D01*
X190306246Y-110584723D01*
X190312011Y-110581606D01*
X190981742Y-110267719D01*
X190992863Y-110265243D01*
X190999430Y-110261023D01*
X191034365Y-110256000D01*
X191059054Y-110256000D01*
X191059074Y-110256001D01*
X191065188Y-110256001D01*
X191213813Y-110256001D01*
X191243377Y-110250119D01*
X191344161Y-110230072D01*
X191359580Y-110227005D01*
X191435311Y-110195636D01*
X191465553Y-110183109D01*
X191535019Y-110175643D01*
X191597497Y-110206918D01*
X191633149Y-110267008D01*
X191637000Y-110297672D01*
X191637000Y-110697113D01*
X191643413Y-110767692D01*
X191643413Y-110767694D01*
X191643414Y-110767696D01*
X191694022Y-110930106D01*
X191777322Y-111067901D01*
X191782030Y-111075688D01*
X191902311Y-111195969D01*
X191902313Y-111195970D01*
X191902315Y-111195972D01*
X192047894Y-111283978D01*
X192210304Y-111334586D01*
X192280884Y-111341000D01*
X192280887Y-111341000D01*
X192944113Y-111341000D01*
X192944116Y-111341000D01*
X193014696Y-111334586D01*
X193177106Y-111283978D01*
X193322685Y-111195972D01*
X193343748Y-111174908D01*
X193383978Y-111148028D01*
X193395313Y-111143333D01*
X193399837Y-111141460D01*
X193417515Y-111134136D01*
X193477889Y-111109130D01*
X193601466Y-111026559D01*
X193815993Y-110812030D01*
X193877312Y-110778548D01*
X193947004Y-110783532D01*
X194002938Y-110825403D01*
X194022055Y-110862821D01*
X194043022Y-110930106D01*
X194126322Y-111067901D01*
X194131030Y-111075688D01*
X194251311Y-111195969D01*
X194251313Y-111195970D01*
X194251315Y-111195972D01*
X194396894Y-111283978D01*
X194559304Y-111334586D01*
X194629884Y-111341000D01*
X194629887Y-111341000D01*
X195293113Y-111341000D01*
X195293116Y-111341000D01*
X195363696Y-111334586D01*
X195411678Y-111319634D01*
X195435929Y-111314667D01*
X195442316Y-111314014D01*
X195903902Y-111198697D01*
X195933957Y-111195000D01*
X196053054Y-111195000D01*
X196053074Y-111195001D01*
X196059188Y-111195001D01*
X196207814Y-111195001D01*
X196256329Y-111185349D01*
X196329394Y-111170815D01*
X196353580Y-111166005D01*
X196412829Y-111141463D01*
X196490889Y-111109130D01*
X196490892Y-111109127D01*
X196490894Y-111109127D01*
X196552592Y-111067901D01*
X196581617Y-111048506D01*
X196625693Y-111030117D01*
X196927397Y-110968506D01*
X196952207Y-110965999D01*
X197408502Y-110965999D01*
X197408508Y-110965999D01*
X197511297Y-110955499D01*
X197677834Y-110900314D01*
X197827156Y-110808212D01*
X197951212Y-110684156D01*
X198043314Y-110534834D01*
X198098499Y-110368297D01*
X198109000Y-110265509D01*
X198108999Y-108965492D01*
X198108998Y-108965483D01*
X199308000Y-108965483D01*
X199308000Y-110265501D01*
X199308001Y-110265518D01*
X199318500Y-110368296D01*
X199318501Y-110368299D01*
X199360225Y-110494212D01*
X199373686Y-110534834D01*
X199465788Y-110684156D01*
X199589844Y-110808212D01*
X199739166Y-110900314D01*
X199905703Y-110955499D01*
X200008491Y-110966000D01*
X200908508Y-110965999D01*
X200908516Y-110965998D01*
X200908519Y-110965998D01*
X200964802Y-110960248D01*
X201011297Y-110955499D01*
X201177834Y-110900314D01*
X201327156Y-110808212D01*
X201396650Y-110738716D01*
X201457973Y-110705232D01*
X201458248Y-110705172D01*
X201822607Y-110626774D01*
X201848691Y-110624000D01*
X202750595Y-110624000D01*
X202817634Y-110643685D01*
X202827727Y-110650909D01*
X203280729Y-111010787D01*
X203320976Y-111067901D01*
X203326886Y-111094623D01*
X203332407Y-111145979D01*
X203382702Y-111280828D01*
X203382706Y-111280835D01*
X203468952Y-111396044D01*
X203468955Y-111396047D01*
X203584164Y-111482293D01*
X203584171Y-111482297D01*
X203719017Y-111532591D01*
X203719016Y-111532591D01*
X203725944Y-111533335D01*
X203778627Y-111539000D01*
X205574372Y-111538999D01*
X205633983Y-111532591D01*
X205768831Y-111482296D01*
X205884046Y-111396046D01*
X205970296Y-111280831D01*
X206020591Y-111145983D01*
X206027000Y-111086373D01*
X206026999Y-109290628D01*
X206020591Y-109231017D01*
X206016540Y-109220157D01*
X205970297Y-109096171D01*
X205970293Y-109096164D01*
X205884047Y-108980955D01*
X205884044Y-108980952D01*
X205768835Y-108894706D01*
X205768828Y-108894702D01*
X205633982Y-108844408D01*
X205633983Y-108844408D01*
X205574383Y-108838001D01*
X205574381Y-108838000D01*
X205574373Y-108838000D01*
X205574365Y-108838000D01*
X204892893Y-108838000D01*
X204877068Y-108836986D01*
X204870201Y-108836102D01*
X204867724Y-108835423D01*
X204753147Y-108821040D01*
X204753048Y-108821028D01*
X204751630Y-108820405D01*
X204699982Y-108801144D01*
X204691704Y-108795613D01*
X204623407Y-108749978D01*
X204581209Y-108721782D01*
X204581206Y-108721780D01*
X204581204Y-108721779D01*
X204578600Y-108720700D01*
X204578599Y-108720699D01*
X204578599Y-108720700D01*
X204397669Y-108645756D01*
X204397661Y-108645754D01*
X204202833Y-108607000D01*
X204202829Y-108607000D01*
X203046355Y-108607000D01*
X203020986Y-108604622D01*
X203019537Y-108604532D01*
X202934154Y-108606458D01*
X202932031Y-108607000D01*
X201848692Y-108607000D01*
X201822608Y-108604225D01*
X201458246Y-108525825D01*
X201396847Y-108492479D01*
X201327157Y-108422789D01*
X201327156Y-108422788D01*
X201212023Y-108351774D01*
X201177836Y-108330687D01*
X201177831Y-108330685D01*
X201121926Y-108312160D01*
X201011297Y-108275501D01*
X201011295Y-108275500D01*
X200908510Y-108265000D01*
X200008498Y-108265000D01*
X200008480Y-108265001D01*
X199905703Y-108275500D01*
X199905700Y-108275501D01*
X199739168Y-108330685D01*
X199739163Y-108330687D01*
X199589842Y-108422789D01*
X199465789Y-108546842D01*
X199373687Y-108696163D01*
X199373685Y-108696168D01*
X199355855Y-108749977D01*
X199318501Y-108862703D01*
X199318501Y-108862704D01*
X199318500Y-108862704D01*
X199308000Y-108965483D01*
X198108998Y-108965483D01*
X198098499Y-108862703D01*
X198043314Y-108696166D01*
X197951212Y-108546844D01*
X197827156Y-108422788D01*
X197755415Y-108378538D01*
X197754616Y-108377650D01*
X197753474Y-108377315D01*
X197731343Y-108351774D01*
X197708692Y-108326591D01*
X197708500Y-108325412D01*
X197707719Y-108324511D01*
X197702905Y-108291032D01*
X197697469Y-108257628D01*
X197697944Y-108256533D01*
X197697775Y-108255353D01*
X197711828Y-108224579D01*
X197725313Y-108193546D01*
X197726304Y-108192882D01*
X197726800Y-108191797D01*
X197755261Y-108173505D01*
X197783381Y-108154690D01*
X197784903Y-108154456D01*
X197785578Y-108154023D01*
X197820513Y-108149000D01*
X197839589Y-108149000D01*
X197866376Y-108151928D01*
X197867312Y-108152135D01*
X197872993Y-108153392D01*
X198923273Y-108232276D01*
X198946274Y-108233478D01*
X198946276Y-108233477D01*
X198951409Y-108233746D01*
X198951381Y-108234270D01*
X198964607Y-108235094D01*
X199001889Y-108241000D01*
X199001892Y-108241000D01*
X199175110Y-108241000D01*
X199175111Y-108241000D01*
X199346201Y-108213902D01*
X199510945Y-108160373D01*
X199665288Y-108081732D01*
X199805428Y-107979914D01*
X199927914Y-107857428D01*
X200029732Y-107717288D01*
X200108373Y-107562945D01*
X200161902Y-107398201D01*
X200189000Y-107227111D01*
X200189000Y-107053889D01*
X200161902Y-106882799D01*
X200108373Y-106718055D01*
X200029732Y-106563712D01*
X199927914Y-106423572D01*
X199805428Y-106301086D01*
X199665288Y-106199268D01*
X199510945Y-106120627D01*
X199346201Y-106067098D01*
X199346199Y-106067097D01*
X199346198Y-106067097D01*
X199214771Y-106046281D01*
X199175111Y-106040000D01*
X199001889Y-106040000D01*
X199001885Y-106040000D01*
X198953580Y-106047651D01*
X198925781Y-106048893D01*
X198923280Y-106048723D01*
X198923277Y-106048723D01*
X198923274Y-106048723D01*
X198784125Y-106059174D01*
X198589607Y-106073783D01*
X198521281Y-106059174D01*
X198471700Y-106009945D01*
X198456605Y-105941726D01*
X198473296Y-105889673D01*
X198472993Y-105889532D01*
X198474108Y-105887138D01*
X198474787Y-105885024D01*
X198476047Y-105882980D01*
X198529355Y-105722106D01*
X198539499Y-105622822D01*
X198539500Y-105622809D01*
X198539500Y-105599500D01*
X196589501Y-105599500D01*
X196589501Y-105622822D01*
X196599644Y-105722109D01*
X196601596Y-105728000D01*
X196603996Y-105797828D01*
X196568262Y-105857869D01*
X196505741Y-105889059D01*
X196483889Y-105891000D01*
X196457000Y-105891000D01*
X196389961Y-105871315D01*
X196344206Y-105818511D01*
X196333000Y-105767000D01*
X196333000Y-105611813D01*
X196332999Y-105611798D01*
X196332398Y-105604166D01*
X196330098Y-105574931D01*
X196325883Y-105560424D01*
X196284245Y-105417106D01*
X196284244Y-105417103D01*
X196284244Y-105417102D01*
X196200581Y-105275635D01*
X196200579Y-105275633D01*
X196200576Y-105275629D01*
X196084370Y-105159423D01*
X196084362Y-105159417D01*
X195983047Y-105099500D01*
X195943610Y-105076177D01*
X196589500Y-105076177D01*
X196589500Y-105099500D01*
X197314500Y-105099500D01*
X197814500Y-105099500D01*
X198539499Y-105099500D01*
X198539499Y-105076192D01*
X198539498Y-105076177D01*
X198529355Y-104976892D01*
X198476047Y-104816018D01*
X198476042Y-104816007D01*
X198387075Y-104671771D01*
X198387072Y-104671767D01*
X198267232Y-104551927D01*
X198267228Y-104551924D01*
X198122992Y-104462957D01*
X198122981Y-104462952D01*
X197962107Y-104409644D01*
X197862822Y-104399500D01*
X197814500Y-104399500D01*
X197814500Y-105099500D01*
X197314500Y-105099500D01*
X197314500Y-104399500D01*
X197314499Y-104399499D01*
X197266193Y-104399500D01*
X197266175Y-104399501D01*
X197166892Y-104409644D01*
X197006018Y-104462952D01*
X197006007Y-104462957D01*
X196861771Y-104551924D01*
X196861767Y-104551927D01*
X196741927Y-104671767D01*
X196741924Y-104671771D01*
X196652957Y-104816007D01*
X196652952Y-104816018D01*
X196599644Y-104976893D01*
X196589500Y-105076177D01*
X195943610Y-105076177D01*
X195942898Y-105075756D01*
X195942897Y-105075755D01*
X195942896Y-105075755D01*
X195942893Y-105075754D01*
X195785073Y-105029902D01*
X195785067Y-105029901D01*
X195748201Y-105027000D01*
X195748194Y-105027000D01*
X195316806Y-105027000D01*
X195316798Y-105027000D01*
X195279932Y-105029901D01*
X195279926Y-105029902D01*
X195122106Y-105075754D01*
X195122103Y-105075755D01*
X194980637Y-105159417D01*
X194974469Y-105164202D01*
X194972572Y-105161756D01*
X194923858Y-105188357D01*
X194854166Y-105183373D01*
X194821796Y-105162569D01*
X194820531Y-105164202D01*
X194814362Y-105159417D01*
X194713047Y-105099500D01*
X194672898Y-105075756D01*
X194672897Y-105075755D01*
X194672896Y-105075755D01*
X194672893Y-105075754D01*
X194515073Y-105029902D01*
X194515067Y-105029901D01*
X194478201Y-105027000D01*
X194478194Y-105027000D01*
X194046806Y-105027000D01*
X194046798Y-105027000D01*
X194009932Y-105029901D01*
X194009926Y-105029902D01*
X193852106Y-105075754D01*
X193852103Y-105075755D01*
X193710637Y-105159417D01*
X193704469Y-105164202D01*
X193702572Y-105161756D01*
X193653858Y-105188357D01*
X193584166Y-105183373D01*
X193551796Y-105162569D01*
X193550531Y-105164202D01*
X193544362Y-105159417D01*
X193443047Y-105099500D01*
X193402898Y-105075756D01*
X193402897Y-105075755D01*
X193402896Y-105075755D01*
X193402893Y-105075754D01*
X193245073Y-105029902D01*
X193245067Y-105029901D01*
X193208201Y-105027000D01*
X193208194Y-105027000D01*
X192776806Y-105027000D01*
X192776798Y-105027000D01*
X192739932Y-105029901D01*
X192739926Y-105029902D01*
X192582106Y-105075754D01*
X192582103Y-105075755D01*
X192440640Y-105159415D01*
X192434474Y-105164199D01*
X192432674Y-105161879D01*
X192383413Y-105188730D01*
X192313725Y-105183693D01*
X192281492Y-105162961D01*
X192280222Y-105164600D01*
X192274052Y-105159814D01*
X192132696Y-105076217D01*
X192132693Y-105076216D01*
X191974994Y-105030400D01*
X191974997Y-105030400D01*
X191972500Y-105030203D01*
X191972500Y-106378500D01*
X191952815Y-106445539D01*
X191900011Y-106491294D01*
X191848500Y-106502500D01*
X191722500Y-106502500D01*
X191722500Y-106628500D01*
X191702815Y-106695539D01*
X191650011Y-106741294D01*
X191598500Y-106752500D01*
X190911206Y-106752500D01*
X190874757Y-106772402D01*
X190805066Y-106767416D01*
X190749133Y-106725543D01*
X190725044Y-106663835D01*
X190723499Y-106648703D01*
X190668314Y-106482166D01*
X190576212Y-106332844D01*
X190452156Y-106208788D01*
X190359388Y-106151569D01*
X190302836Y-106116687D01*
X190302831Y-106116685D01*
X190266053Y-106104498D01*
X190136297Y-106061501D01*
X190136295Y-106061500D01*
X190033510Y-106051000D01*
X189133498Y-106051000D01*
X189133480Y-106051001D01*
X189030703Y-106061500D01*
X189030700Y-106061501D01*
X188864166Y-106116685D01*
X188860756Y-106118275D01*
X188855011Y-106121380D01*
X188340077Y-106362718D01*
X188210237Y-106423572D01*
X188185256Y-106435280D01*
X188132633Y-106447000D01*
X184221183Y-106447000D01*
X184075427Y-106475993D01*
X184075419Y-106475995D01*
X183938108Y-106532871D01*
X183814539Y-106615437D01*
X183814530Y-106615444D01*
X183751312Y-106678660D01*
X183748727Y-106681244D01*
X183721450Y-106705499D01*
X183705036Y-106724937D01*
X183701340Y-106728634D01*
X183701338Y-106728636D01*
X183497443Y-106932530D01*
X183497442Y-106932531D01*
X183414869Y-107056112D01*
X183412100Y-107062798D01*
X183411114Y-107064416D01*
X183410985Y-107065405D01*
X183392284Y-107095338D01*
X183337228Y-107160542D01*
X183278938Y-107199065D01*
X183255087Y-107203902D01*
X183180702Y-107211501D01*
X183180700Y-107211501D01*
X183014165Y-107266685D01*
X183010775Y-107268266D01*
X183005017Y-107271377D01*
X182360305Y-107573539D01*
X182291248Y-107584165D01*
X182227409Y-107555769D01*
X182189297Y-107498149D01*
X182163978Y-107416894D01*
X182075972Y-107271315D01*
X182075970Y-107271313D01*
X182075969Y-107271311D01*
X181973839Y-107169181D01*
X181940354Y-107107858D01*
X181945338Y-107038166D01*
X181973839Y-106993819D01*
X182075968Y-106891689D01*
X182075969Y-106891688D01*
X182075972Y-106891685D01*
X182163978Y-106746106D01*
X182214586Y-106583696D01*
X182221000Y-106513116D01*
X182221000Y-105999884D01*
X182214586Y-105929304D01*
X182163978Y-105766894D01*
X182075972Y-105621315D01*
X182075971Y-105621314D01*
X182075968Y-105621310D01*
X182066508Y-105611850D01*
X190922500Y-105611850D01*
X190922500Y-106252500D01*
X191472500Y-106252500D01*
X191472500Y-105030203D01*
X191470003Y-105030400D01*
X191312306Y-105076216D01*
X191312303Y-105076217D01*
X191170947Y-105159814D01*
X191170938Y-105159821D01*
X191054821Y-105275938D01*
X191054814Y-105275947D01*
X190971217Y-105417303D01*
X190971216Y-105417306D01*
X190925400Y-105575004D01*
X190925399Y-105575010D01*
X190922500Y-105611850D01*
X182066508Y-105611850D01*
X181955688Y-105501030D01*
X181948133Y-105496463D01*
X181810106Y-105413022D01*
X181647696Y-105362414D01*
X181647694Y-105362413D01*
X181647692Y-105362413D01*
X181598278Y-105357923D01*
X181577116Y-105356000D01*
X180913884Y-105356000D01*
X180860949Y-105360810D01*
X180843303Y-105362414D01*
X180843297Y-105362415D01*
X180795332Y-105377361D01*
X180771081Y-105382329D01*
X180764694Y-105382983D01*
X180764682Y-105382985D01*
X180303092Y-105498303D01*
X180273037Y-105502000D01*
X177724777Y-105502000D01*
X177688138Y-105496463D01*
X177226626Y-105353723D01*
X177186355Y-105332527D01*
X177184157Y-105330789D01*
X177184156Y-105330788D01*
X177034834Y-105238686D01*
X176868297Y-105183501D01*
X176868295Y-105183500D01*
X176765510Y-105173000D01*
X175565498Y-105173000D01*
X175565481Y-105173001D01*
X175462703Y-105183500D01*
X175462700Y-105183501D01*
X175296168Y-105238685D01*
X175296163Y-105238687D01*
X175146842Y-105330789D01*
X175022789Y-105454842D01*
X174930687Y-105604163D01*
X174930685Y-105604168D01*
X174925003Y-105621315D01*
X174875501Y-105770703D01*
X174875501Y-105770704D01*
X174875500Y-105770704D01*
X174865000Y-105873483D01*
X164993000Y-105873483D01*
X164993000Y-104660806D01*
X164990098Y-104623931D01*
X164980966Y-104592500D01*
X164944245Y-104466106D01*
X164944244Y-104466103D01*
X164944244Y-104466102D01*
X164860581Y-104324635D01*
X164860579Y-104324633D01*
X164860576Y-104324629D01*
X164744370Y-104208423D01*
X164744362Y-104208417D01*
X164659662Y-104158326D01*
X164602898Y-104124756D01*
X164602897Y-104124755D01*
X164602896Y-104124755D01*
X164602893Y-104124754D01*
X164445073Y-104078902D01*
X164445067Y-104078901D01*
X164408201Y-104076000D01*
X164408194Y-104076000D01*
X163976806Y-104076000D01*
X163976798Y-104076000D01*
X163939932Y-104078901D01*
X163939926Y-104078902D01*
X163782106Y-104124754D01*
X163782103Y-104124755D01*
X163640640Y-104208415D01*
X163634474Y-104213199D01*
X163632674Y-104210879D01*
X163583413Y-104237730D01*
X163513725Y-104232693D01*
X163481492Y-104211961D01*
X163480222Y-104213600D01*
X163474052Y-104208814D01*
X163332696Y-104125217D01*
X163332693Y-104125216D01*
X163174994Y-104079400D01*
X163174997Y-104079400D01*
X163172500Y-104079203D01*
X162672500Y-104079203D01*
X162670003Y-104079400D01*
X162512306Y-104125216D01*
X162512303Y-104125217D01*
X162370947Y-104208814D01*
X162364778Y-104213600D01*
X162362957Y-104211253D01*
X162313858Y-104238064D01*
X162244166Y-104233080D01*
X162211430Y-104212041D01*
X162210222Y-104213600D01*
X162204052Y-104208814D01*
X162062696Y-104125217D01*
X162062693Y-104125216D01*
X161904994Y-104079400D01*
X161904997Y-104079400D01*
X161902500Y-104079203D01*
X161402500Y-104079203D01*
X161400003Y-104079400D01*
X161242306Y-104125216D01*
X161242303Y-104125217D01*
X161100949Y-104208813D01*
X161094783Y-104213597D01*
X161092889Y-104211155D01*
X161044080Y-104237739D01*
X160974394Y-104232679D01*
X160941727Y-104211659D01*
X160940531Y-104213202D01*
X160934362Y-104208417D01*
X160849662Y-104158326D01*
X160792898Y-104124756D01*
X160792897Y-104124755D01*
X160792896Y-104124755D01*
X160792893Y-104124754D01*
X160635073Y-104078902D01*
X160635067Y-104078901D01*
X160598201Y-104076000D01*
X160598194Y-104076000D01*
X160166806Y-104076000D01*
X160166798Y-104076000D01*
X160129932Y-104078901D01*
X160129926Y-104078902D01*
X159972106Y-104124754D01*
X159972103Y-104124755D01*
X159830637Y-104208417D01*
X159830629Y-104208423D01*
X159714423Y-104324629D01*
X159714417Y-104324637D01*
X159630755Y-104466103D01*
X159630754Y-104466106D01*
X159584902Y-104623926D01*
X159584901Y-104623932D01*
X159582000Y-104660798D01*
X159582000Y-104896665D01*
X159562315Y-104963704D01*
X159561102Y-104965556D01*
X159488782Y-105073789D01*
X159488777Y-105073798D01*
X159412756Y-105257330D01*
X159412754Y-105257338D01*
X159374000Y-105452166D01*
X159374000Y-106442007D01*
X159370224Y-106454865D01*
X159371195Y-106468233D01*
X159360571Y-106487738D01*
X159354315Y-106509046D01*
X159344187Y-106517821D01*
X159337777Y-106529592D01*
X159318294Y-106540258D01*
X159301511Y-106554801D01*
X159286899Y-106557445D01*
X159276491Y-106563144D01*
X159242033Y-106565566D01*
X159241289Y-106565701D01*
X159240896Y-106565673D01*
X159121724Y-106556723D01*
X159098690Y-106555520D01*
X159097936Y-106555605D01*
X159091067Y-106555122D01*
X159089348Y-106554483D01*
X159080383Y-106553902D01*
X159043113Y-106548000D01*
X159043111Y-106548000D01*
X158869889Y-106548000D01*
X158832625Y-106553902D01*
X158698802Y-106575097D01*
X158534052Y-106628628D01*
X158379711Y-106707268D01*
X158299756Y-106765359D01*
X158239572Y-106809086D01*
X158239570Y-106809088D01*
X158239569Y-106809088D01*
X158117088Y-106931569D01*
X158117088Y-106931570D01*
X158117086Y-106931572D01*
X158083513Y-106977781D01*
X158015268Y-107071711D01*
X157936628Y-107226052D01*
X157883097Y-107390802D01*
X157862187Y-107522825D01*
X157856000Y-107561889D01*
X143837626Y-107561889D01*
X143832499Y-107511703D01*
X143777314Y-107345166D01*
X143685212Y-107195844D01*
X143561156Y-107071788D01*
X143462602Y-107011000D01*
X143411836Y-106979687D01*
X143411831Y-106979685D01*
X143406085Y-106977781D01*
X143245297Y-106924501D01*
X143245295Y-106924500D01*
X143142510Y-106914000D01*
X141242498Y-106914000D01*
X141242481Y-106914001D01*
X141139703Y-106924500D01*
X141139700Y-106924501D01*
X140973168Y-106979685D01*
X140973163Y-106979687D01*
X140823842Y-107071789D01*
X140783951Y-107111681D01*
X140722628Y-107145166D01*
X140696270Y-107148000D01*
X138588431Y-107148000D01*
X138521392Y-107128315D01*
X138512944Y-107122376D01*
X138447018Y-107071789D01*
X138369064Y-107011972D01*
X138350298Y-106997572D01*
X138123200Y-106866458D01*
X138123190Y-106866453D01*
X137880928Y-106766105D01*
X137880921Y-106766103D01*
X137880919Y-106766102D01*
X137627616Y-106698230D01*
X137569839Y-106690623D01*
X137367627Y-106664000D01*
X137367620Y-106664000D01*
X137105380Y-106664000D01*
X137105372Y-106664000D01*
X136874272Y-106694426D01*
X136845384Y-106698230D01*
X136648051Y-106751105D01*
X136592081Y-106766102D01*
X136592071Y-106766105D01*
X136349809Y-106866453D01*
X136349799Y-106866458D01*
X136122696Y-106997575D01*
X135914648Y-107157218D01*
X135729218Y-107342648D01*
X135569575Y-107550696D01*
X135438458Y-107777799D01*
X135438453Y-107777809D01*
X135338105Y-108020071D01*
X135338102Y-108020081D01*
X135270230Y-108273384D01*
X135269951Y-108275501D01*
X135236000Y-108533372D01*
X135236000Y-108795627D01*
X135259419Y-108973501D01*
X135270230Y-109055616D01*
X135338102Y-109308918D01*
X135338105Y-109308928D01*
X135438453Y-109551190D01*
X135438458Y-109551200D01*
X135569575Y-109778303D01*
X135694375Y-109940942D01*
X135719570Y-110006111D01*
X135720000Y-110016429D01*
X135720000Y-112432982D01*
X135700315Y-112500021D01*
X135683681Y-112520663D01*
X130766662Y-117437681D01*
X130705339Y-117471166D01*
X130678983Y-117474000D01*
X130626630Y-117474000D01*
X130626623Y-117474001D01*
X130567016Y-117480408D01*
X130432171Y-117530702D01*
X130432164Y-117530706D01*
X130316955Y-117616952D01*
X130316952Y-117616955D01*
X130230706Y-117732164D01*
X130230702Y-117732171D01*
X130180408Y-117867017D01*
X130174001Y-117926616D01*
X130174000Y-117926635D01*
X130174000Y-118104858D01*
X130160485Y-118161152D01*
X130119108Y-118242359D01*
X130119105Y-118242366D01*
X130045341Y-118469384D01*
X130008001Y-118705143D01*
X106625000Y-118705143D01*
X106625000Y-108037149D01*
X109180000Y-108037149D01*
X109180000Y-108275851D01*
X109185335Y-108309534D01*
X109217341Y-108511611D01*
X109217341Y-108511612D01*
X109291104Y-108738633D01*
X109332485Y-108819848D01*
X109346000Y-108876141D01*
X109346000Y-109054369D01*
X109346001Y-109054376D01*
X109352408Y-109113983D01*
X109402702Y-109248828D01*
X109402706Y-109248835D01*
X109488952Y-109364044D01*
X109488955Y-109364047D01*
X109604164Y-109450293D01*
X109604171Y-109450297D01*
X109639997Y-109463659D01*
X109739017Y-109500591D01*
X109798627Y-109507000D01*
X109976855Y-109506999D01*
X110033151Y-109520514D01*
X110063981Y-109536222D01*
X110114366Y-109561895D01*
X110341385Y-109635658D01*
X110577149Y-109673000D01*
X112837188Y-109673000D01*
X112904227Y-109692685D01*
X112944576Y-109735001D01*
X112969577Y-109778305D01*
X113129218Y-109986351D01*
X113129226Y-109986360D01*
X113314640Y-110171774D01*
X113314648Y-110171781D01*
X113522696Y-110331424D01*
X113749799Y-110462541D01*
X113749809Y-110462546D01*
X113924333Y-110534836D01*
X113992081Y-110562898D01*
X114245384Y-110630770D01*
X114505380Y-110665000D01*
X114505387Y-110665000D01*
X114767613Y-110665000D01*
X114767620Y-110665000D01*
X115027616Y-110630770D01*
X115280919Y-110562898D01*
X115523197Y-110462543D01*
X115750303Y-110331424D01*
X115958351Y-110171782D01*
X115958355Y-110171777D01*
X115958360Y-110171774D01*
X116143774Y-109986360D01*
X116143777Y-109986355D01*
X116143782Y-109986351D01*
X116303424Y-109778303D01*
X116434543Y-109551197D01*
X116534898Y-109308919D01*
X116602770Y-109055616D01*
X116637000Y-108795620D01*
X116637000Y-108533380D01*
X116602770Y-108273384D01*
X116534898Y-108020081D01*
X116534894Y-108020071D01*
X116434546Y-107777809D01*
X116434541Y-107777799D01*
X116303424Y-107550696D01*
X116143781Y-107342648D01*
X116143774Y-107342640D01*
X115958360Y-107157226D01*
X115958351Y-107157218D01*
X115750303Y-106997575D01*
X115523200Y-106866458D01*
X115523190Y-106866453D01*
X115280928Y-106766105D01*
X115280921Y-106766103D01*
X115280919Y-106766102D01*
X115027616Y-106698230D01*
X114969839Y-106690623D01*
X114767627Y-106664000D01*
X114767620Y-106664000D01*
X114505380Y-106664000D01*
X114465316Y-106669274D01*
X114429736Y-106668807D01*
X114247856Y-106640000D01*
X114247851Y-106640000D01*
X110577149Y-106640000D01*
X110522495Y-106648656D01*
X110341388Y-106677341D01*
X110341387Y-106677341D01*
X110114369Y-106751103D01*
X110033149Y-106792486D01*
X109976857Y-106806000D01*
X109798630Y-106806000D01*
X109798623Y-106806001D01*
X109739016Y-106812408D01*
X109604171Y-106862702D01*
X109604164Y-106862706D01*
X109488955Y-106948952D01*
X109488952Y-106948955D01*
X109402706Y-107064164D01*
X109402702Y-107064171D01*
X109352408Y-107199017D01*
X109346001Y-107258616D01*
X109346000Y-107258635D01*
X109346000Y-107436857D01*
X109332485Y-107493151D01*
X109291104Y-107574366D01*
X109217341Y-107801387D01*
X109217341Y-107801388D01*
X109183831Y-108012961D01*
X109180000Y-108037149D01*
X106625000Y-108037149D01*
X106625000Y-103314483D01*
X140542000Y-103314483D01*
X140542000Y-105414501D01*
X140542001Y-105414518D01*
X140552500Y-105517296D01*
X140552501Y-105517299D01*
X140600294Y-105661526D01*
X140607686Y-105683834D01*
X140699788Y-105833156D01*
X140823844Y-105957212D01*
X140973166Y-106049314D01*
X141139703Y-106104499D01*
X141242491Y-106115000D01*
X143142508Y-106114999D01*
X143245297Y-106104499D01*
X143411834Y-106049314D01*
X143561156Y-105957212D01*
X143601049Y-105917319D01*
X143662372Y-105883834D01*
X143688730Y-105881000D01*
X145087850Y-105881000D01*
X145087851Y-105881000D01*
X145323615Y-105843658D01*
X145550634Y-105769895D01*
X145763319Y-105661527D01*
X145902474Y-105560425D01*
X145956434Y-105521221D01*
X151236336Y-100241319D01*
X151297659Y-100207834D01*
X151324017Y-100205000D01*
X151828503Y-100205000D01*
X151828508Y-100205000D01*
X151931297Y-100194499D01*
X152097834Y-100139314D01*
X152247155Y-100047211D01*
X152371211Y-99923155D01*
X152377153Y-99913520D01*
X152428385Y-99867139D01*
X153129632Y-99525523D01*
X153183938Y-99513000D01*
X159250000Y-99513000D01*
X159317039Y-99532685D01*
X159362794Y-99585489D01*
X159374000Y-99637000D01*
X159374000Y-100700833D01*
X159412754Y-100895661D01*
X159412756Y-100895669D01*
X159488777Y-101079201D01*
X159561102Y-101187442D01*
X159581980Y-101254119D01*
X159582000Y-101256333D01*
X159582000Y-101492201D01*
X159584901Y-101529067D01*
X159584902Y-101529073D01*
X159630754Y-101686893D01*
X159630755Y-101686896D01*
X159714417Y-101828362D01*
X159714423Y-101828370D01*
X159830629Y-101944576D01*
X159830633Y-101944579D01*
X159830635Y-101944581D01*
X159972102Y-102028244D01*
X160013724Y-102040336D01*
X160129926Y-102074097D01*
X160129929Y-102074097D01*
X160129931Y-102074098D01*
X160166806Y-102077000D01*
X160166814Y-102077000D01*
X160598186Y-102077000D01*
X160598194Y-102077000D01*
X160635069Y-102074098D01*
X160635071Y-102074097D01*
X160635073Y-102074097D01*
X160676691Y-102062005D01*
X160792898Y-102028244D01*
X160934365Y-101944581D01*
X160934370Y-101944576D01*
X160940526Y-101939801D01*
X160942339Y-101942138D01*
X160991449Y-101915298D01*
X161061143Y-101920256D01*
X161093496Y-101941051D01*
X161094778Y-101939400D01*
X161100947Y-101944185D01*
X161242301Y-102027781D01*
X161400014Y-102073600D01*
X161400011Y-102073600D01*
X161402498Y-102073795D01*
X161402500Y-102073795D01*
X161902500Y-102073795D01*
X161902501Y-102073795D01*
X161904986Y-102073600D01*
X162062698Y-102027781D01*
X162204052Y-101944185D01*
X162210222Y-101939400D01*
X162212046Y-101941752D01*
X162261095Y-101914945D01*
X162330788Y-101919902D01*
X162363563Y-101940965D01*
X162364778Y-101939400D01*
X162370947Y-101944185D01*
X162512301Y-102027781D01*
X162670014Y-102073600D01*
X162670011Y-102073600D01*
X162672498Y-102073795D01*
X162672500Y-102073795D01*
X162672500Y-100851500D01*
X161902500Y-100851500D01*
X161902500Y-102073795D01*
X161402500Y-102073795D01*
X161402500Y-100725500D01*
X161422185Y-100658461D01*
X161474989Y-100612706D01*
X161526500Y-100601500D01*
X161652500Y-100601500D01*
X161652500Y-100475500D01*
X161672185Y-100408461D01*
X161724989Y-100362706D01*
X161776500Y-100351500D01*
X162672500Y-100351500D01*
X162672500Y-99129203D01*
X163172500Y-99129203D01*
X163172500Y-102073795D01*
X163172501Y-102073795D01*
X163174986Y-102073600D01*
X163332698Y-102027781D01*
X163474050Y-101944186D01*
X163480217Y-101939403D01*
X163482130Y-101941869D01*
X163530722Y-101915302D01*
X163600417Y-101920249D01*
X163633262Y-101941353D01*
X163634469Y-101939798D01*
X163640632Y-101944578D01*
X163640635Y-101944581D01*
X163782102Y-102028244D01*
X163823724Y-102040336D01*
X163939926Y-102074097D01*
X163939929Y-102074097D01*
X163939931Y-102074098D01*
X163976806Y-102077000D01*
X163976814Y-102077000D01*
X164408186Y-102077000D01*
X164408194Y-102077000D01*
X164445069Y-102074098D01*
X164445071Y-102074097D01*
X164445073Y-102074097D01*
X164486691Y-102062005D01*
X164602898Y-102028244D01*
X164744365Y-101944581D01*
X164860581Y-101828365D01*
X164944244Y-101686898D01*
X164980092Y-101563508D01*
X164990097Y-101529073D01*
X164990098Y-101529067D01*
X164992999Y-101492201D01*
X164993000Y-101492194D01*
X164993000Y-99710806D01*
X164990098Y-99673931D01*
X164983820Y-99652323D01*
X164944245Y-99516106D01*
X164944244Y-99516103D01*
X164944244Y-99516102D01*
X164860581Y-99374635D01*
X164860579Y-99374633D01*
X164860576Y-99374629D01*
X164744370Y-99258423D01*
X164744362Y-99258417D01*
X164652425Y-99204046D01*
X164602898Y-99174756D01*
X164602897Y-99174755D01*
X164602896Y-99174755D01*
X164602893Y-99174754D01*
X164445073Y-99128902D01*
X164445067Y-99128901D01*
X164408201Y-99126000D01*
X164408194Y-99126000D01*
X163976806Y-99126000D01*
X163976798Y-99126000D01*
X163939932Y-99128901D01*
X163939926Y-99128902D01*
X163782106Y-99174754D01*
X163782103Y-99174755D01*
X163640640Y-99258415D01*
X163634474Y-99263199D01*
X163632674Y-99260879D01*
X163583413Y-99287730D01*
X163513725Y-99282693D01*
X163481492Y-99261961D01*
X163480222Y-99263600D01*
X163474052Y-99258814D01*
X163332696Y-99175217D01*
X163332693Y-99175216D01*
X163174994Y-99129400D01*
X163174997Y-99129400D01*
X163172500Y-99129203D01*
X162672500Y-99129203D01*
X162672500Y-99120500D01*
X162692185Y-99053461D01*
X162744989Y-99007706D01*
X162759968Y-99002004D01*
X162848274Y-98974779D01*
X162872354Y-98902110D01*
X162872356Y-98902100D01*
X162882499Y-98802822D01*
X162882500Y-98802809D01*
X162882500Y-98754500D01*
X162056500Y-98754500D01*
X161989461Y-98734815D01*
X161943706Y-98682011D01*
X161932500Y-98630500D01*
X161932500Y-98504500D01*
X161806500Y-98504500D01*
X161739461Y-98484815D01*
X161693706Y-98432011D01*
X161682500Y-98380500D01*
X161682500Y-98254500D01*
X162182500Y-98254500D01*
X162882499Y-98254500D01*
X162882499Y-98206192D01*
X162882498Y-98206177D01*
X162872355Y-98106892D01*
X162819047Y-97946018D01*
X162819042Y-97946007D01*
X162730075Y-97801771D01*
X162730072Y-97801767D01*
X162610232Y-97681927D01*
X162610228Y-97681924D01*
X162465992Y-97592957D01*
X162465981Y-97592952D01*
X162305106Y-97539644D01*
X162205822Y-97529500D01*
X162182500Y-97529500D01*
X162182500Y-98254500D01*
X161682500Y-98254500D01*
X161682500Y-97529499D01*
X161659193Y-97529500D01*
X161659174Y-97529501D01*
X161559892Y-97539644D01*
X161399018Y-97592952D01*
X161399007Y-97592957D01*
X161254771Y-97681924D01*
X161254765Y-97681928D01*
X161245531Y-97691163D01*
X161184207Y-97724646D01*
X161114515Y-97719659D01*
X161070172Y-97691160D01*
X161060544Y-97681532D01*
X161060540Y-97681529D01*
X160916205Y-97592501D01*
X160916199Y-97592498D01*
X160916197Y-97592497D01*
X160784581Y-97548884D01*
X160755209Y-97539151D01*
X160655836Y-97528998D01*
X160653953Y-97528903D01*
X160636073Y-97526681D01*
X160481831Y-97496000D01*
X160481829Y-97496000D01*
X153183941Y-97496000D01*
X153129635Y-97483476D01*
X152428386Y-97141859D01*
X152377154Y-97095481D01*
X152371211Y-97085845D01*
X152247155Y-96961789D01*
X152247151Y-96961786D01*
X152097837Y-96869687D01*
X152097835Y-96869686D01*
X152014565Y-96842093D01*
X151931297Y-96814501D01*
X151931295Y-96814500D01*
X151828515Y-96804000D01*
X151828508Y-96804000D01*
X149828492Y-96804000D01*
X149828484Y-96804000D01*
X149725704Y-96814500D01*
X149725703Y-96814501D01*
X149559164Y-96869686D01*
X149559162Y-96869687D01*
X149409848Y-96961786D01*
X149409844Y-96961789D01*
X149285789Y-97085844D01*
X149285786Y-97085848D01*
X149193687Y-97235162D01*
X149193686Y-97235164D01*
X149138501Y-97401703D01*
X149138500Y-97401704D01*
X149128000Y-97504484D01*
X149128000Y-98008983D01*
X149108315Y-98076022D01*
X149091681Y-98096664D01*
X144376664Y-102811681D01*
X144315341Y-102845166D01*
X144288983Y-102848000D01*
X143688730Y-102848000D01*
X143621691Y-102828315D01*
X143601049Y-102811681D01*
X143561157Y-102771789D01*
X143561156Y-102771788D01*
X143411834Y-102679686D01*
X143245297Y-102624501D01*
X143245295Y-102624500D01*
X143142510Y-102614000D01*
X141242498Y-102614000D01*
X141242481Y-102614001D01*
X141139703Y-102624500D01*
X141139700Y-102624501D01*
X140973168Y-102679685D01*
X140973163Y-102679687D01*
X140823842Y-102771789D01*
X140699789Y-102895842D01*
X140607687Y-103045163D01*
X140607686Y-103045166D01*
X140552501Y-103211703D01*
X140552501Y-103211704D01*
X140552500Y-103211704D01*
X140542000Y-103314483D01*
X106625000Y-103314483D01*
X106625000Y-98385149D01*
X109180000Y-98385149D01*
X109180000Y-98623850D01*
X109217341Y-98859611D01*
X109217341Y-98859612D01*
X109291104Y-99086633D01*
X109332485Y-99167848D01*
X109346000Y-99224141D01*
X109346000Y-99402369D01*
X109346001Y-99402376D01*
X109352408Y-99461983D01*
X109402702Y-99596828D01*
X109402706Y-99596835D01*
X109488952Y-99712044D01*
X109488955Y-99712047D01*
X109604164Y-99798293D01*
X109604171Y-99798297D01*
X109649118Y-99815061D01*
X109739017Y-99848591D01*
X109798627Y-99855000D01*
X109976855Y-99854999D01*
X110033151Y-99868514D01*
X110061376Y-99882895D01*
X110114366Y-99909895D01*
X110341385Y-99983658D01*
X110577149Y-100021000D01*
X113284569Y-100021000D01*
X113351608Y-100040685D01*
X113360051Y-100046620D01*
X113480851Y-100139314D01*
X113522701Y-100171427D01*
X113749799Y-100302541D01*
X113749809Y-100302546D01*
X113971000Y-100394166D01*
X113992081Y-100402898D01*
X114245384Y-100470770D01*
X114505380Y-100505000D01*
X114505387Y-100505000D01*
X114767613Y-100505000D01*
X114767620Y-100505000D01*
X115027616Y-100470770D01*
X115280919Y-100402898D01*
X115523197Y-100302543D01*
X115750303Y-100171424D01*
X115958351Y-100011782D01*
X115958355Y-100011777D01*
X115958360Y-100011774D01*
X116143774Y-99826360D01*
X116143777Y-99826355D01*
X116143782Y-99826351D01*
X116303424Y-99618303D01*
X116434543Y-99391197D01*
X116443841Y-99368751D01*
X116476339Y-99290293D01*
X116534898Y-99148919D01*
X116602770Y-98895616D01*
X116637000Y-98635620D01*
X116637000Y-98373380D01*
X116636999Y-98373372D01*
X135236000Y-98373372D01*
X135236000Y-98635627D01*
X135260736Y-98823501D01*
X135270230Y-98895616D01*
X135332819Y-99129203D01*
X135338102Y-99148918D01*
X135338105Y-99148928D01*
X135438453Y-99391190D01*
X135438458Y-99391200D01*
X135569575Y-99618303D01*
X135729218Y-99826351D01*
X135729226Y-99826360D01*
X135914640Y-100011774D01*
X135914648Y-100011781D01*
X136122696Y-100171424D01*
X136349799Y-100302541D01*
X136349809Y-100302546D01*
X136571000Y-100394166D01*
X136592081Y-100402898D01*
X136845384Y-100470770D01*
X137105380Y-100505000D01*
X137105387Y-100505000D01*
X137367613Y-100505000D01*
X137367620Y-100505000D01*
X137627616Y-100470770D01*
X137880919Y-100402898D01*
X138123197Y-100302543D01*
X138350303Y-100171424D01*
X138558351Y-100011782D01*
X138558355Y-100011777D01*
X138558360Y-100011774D01*
X138743774Y-99826360D01*
X138743777Y-99826355D01*
X138743782Y-99826351D01*
X138903424Y-99618303D01*
X139034543Y-99391197D01*
X139043841Y-99368751D01*
X139076339Y-99290293D01*
X139134898Y-99148919D01*
X139202770Y-98895616D01*
X139237000Y-98635620D01*
X139237000Y-98373380D01*
X139202770Y-98113384D01*
X139134898Y-97860081D01*
X139118622Y-97820788D01*
X139034546Y-97617809D01*
X139034541Y-97617799D01*
X138903424Y-97390697D01*
X138778624Y-97228054D01*
X138770381Y-97206733D01*
X138758023Y-97187503D01*
X138755107Y-97167223D01*
X138753430Y-97162885D01*
X138753000Y-97152568D01*
X138753000Y-97028017D01*
X138772685Y-96960978D01*
X138789319Y-96940336D01*
X144836580Y-90893075D01*
X149128500Y-90893075D01*
X149128500Y-91115924D01*
X149157585Y-91336854D01*
X149157588Y-91336867D01*
X149215263Y-91552118D01*
X149300545Y-91758002D01*
X149300554Y-91758020D01*
X149411964Y-91950991D01*
X149411973Y-91951004D01*
X149462540Y-92016903D01*
X149462543Y-92016903D01*
X150263887Y-91215559D01*
X150269389Y-91236091D01*
X150348381Y-91372908D01*
X150460092Y-91484619D01*
X150596909Y-91563611D01*
X150617440Y-91569112D01*
X149816095Y-92370455D01*
X149816095Y-92370456D01*
X149882007Y-92421033D01*
X150074985Y-92532449D01*
X150074997Y-92532454D01*
X150280881Y-92617736D01*
X150496132Y-92675411D01*
X150496145Y-92675414D01*
X150717075Y-92704500D01*
X150939925Y-92704500D01*
X151160854Y-92675414D01*
X151160867Y-92675411D01*
X151376118Y-92617736D01*
X151582002Y-92532454D01*
X151582014Y-92532449D01*
X151774998Y-92421030D01*
X151840903Y-92370457D01*
X151840904Y-92370456D01*
X151039559Y-91569112D01*
X151060091Y-91563611D01*
X151196908Y-91484619D01*
X151308619Y-91372908D01*
X151387611Y-91236091D01*
X151393112Y-91215560D01*
X152194456Y-92016904D01*
X152194457Y-92016903D01*
X152245030Y-91950998D01*
X152356449Y-91758014D01*
X152356454Y-91758002D01*
X152441736Y-91552118D01*
X152499411Y-91336867D01*
X152499414Y-91336854D01*
X152528500Y-91115924D01*
X152528500Y-90893075D01*
X152499414Y-90672145D01*
X152499411Y-90672132D01*
X152441736Y-90456881D01*
X152356454Y-90250997D01*
X152356449Y-90250985D01*
X152245033Y-90058007D01*
X152194456Y-89992095D01*
X152194455Y-89992095D01*
X151393112Y-90793439D01*
X151387611Y-90772909D01*
X151308619Y-90636092D01*
X151196908Y-90524381D01*
X151060091Y-90445389D01*
X151039558Y-90439887D01*
X151840903Y-89638543D01*
X151840903Y-89638540D01*
X151775004Y-89587973D01*
X151774991Y-89587964D01*
X151582020Y-89476554D01*
X151582002Y-89476545D01*
X151376118Y-89391263D01*
X151160867Y-89333588D01*
X151160854Y-89333585D01*
X150939925Y-89304500D01*
X150717075Y-89304500D01*
X150496145Y-89333585D01*
X150496132Y-89333588D01*
X150280881Y-89391263D01*
X150074997Y-89476545D01*
X150074979Y-89476554D01*
X149882011Y-89587962D01*
X149816095Y-89638542D01*
X150617441Y-90439887D01*
X150596909Y-90445389D01*
X150460092Y-90524381D01*
X150348381Y-90636092D01*
X150269389Y-90772909D01*
X150263887Y-90793440D01*
X149462542Y-89992095D01*
X149411962Y-90058011D01*
X149300554Y-90250979D01*
X149300545Y-90250997D01*
X149215263Y-90456881D01*
X149157588Y-90672132D01*
X149157585Y-90672145D01*
X149128500Y-90893075D01*
X144836580Y-90893075D01*
X146130841Y-89598814D01*
X146740737Y-88988918D01*
X147413221Y-88316434D01*
X147553527Y-88123319D01*
X147661895Y-87910634D01*
X147735658Y-87683615D01*
X147756871Y-87549681D01*
X147773000Y-87447851D01*
X147773000Y-80560531D01*
X155571910Y-80560531D01*
X155574257Y-80614592D01*
X155575377Y-80619175D01*
X155576540Y-80629997D01*
X155576544Y-80630053D01*
X155580407Y-80665977D01*
X155580408Y-80665983D01*
X155596464Y-80709031D01*
X155600735Y-80722918D01*
X155608418Y-80754347D01*
X155608419Y-80754350D01*
X155608421Y-80754357D01*
X155907038Y-81496532D01*
X155916000Y-81542818D01*
X155916000Y-86411833D01*
X155954754Y-86606660D01*
X155954756Y-86606668D01*
X156030777Y-86790201D01*
X156030782Y-86790210D01*
X156141146Y-86955380D01*
X156141149Y-86955384D01*
X172492147Y-103306381D01*
X172632619Y-103446853D01*
X172632620Y-103446854D01*
X172797789Y-103557217D01*
X172797795Y-103557220D01*
X172797796Y-103557221D01*
X172981331Y-103633244D01*
X173176166Y-103671999D01*
X173176170Y-103672000D01*
X173176171Y-103672000D01*
X173374829Y-103672000D01*
X174440511Y-103672000D01*
X174483026Y-103679516D01*
X174783517Y-103789195D01*
X174839743Y-103830672D01*
X174864619Y-103895963D01*
X174865000Y-103905678D01*
X174865000Y-104213500D01*
X174865001Y-104213519D01*
X174875500Y-104316296D01*
X174875501Y-104316299D01*
X174925142Y-104466103D01*
X174930686Y-104482834D01*
X175022788Y-104632156D01*
X175146844Y-104756212D01*
X175296166Y-104848314D01*
X175462703Y-104903499D01*
X175565491Y-104914000D01*
X176765508Y-104913999D01*
X176868297Y-104903499D01*
X177034834Y-104848314D01*
X177184156Y-104756212D01*
X177308212Y-104632156D01*
X177400314Y-104482834D01*
X177455499Y-104316297D01*
X177466000Y-104213509D01*
X177465999Y-103194655D01*
X203326500Y-103194655D01*
X203326500Y-103842500D01*
X204243488Y-103842500D01*
X204210575Y-103899507D01*
X204176500Y-104026674D01*
X204176500Y-104158326D01*
X204210575Y-104285493D01*
X204243488Y-104342500D01*
X203326500Y-104342500D01*
X203326500Y-104990344D01*
X203332901Y-105049872D01*
X203332903Y-105049879D01*
X203383145Y-105184586D01*
X203383149Y-105184593D01*
X203469309Y-105299687D01*
X203469312Y-105299690D01*
X203584406Y-105385850D01*
X203584413Y-105385854D01*
X203719120Y-105436096D01*
X203719127Y-105436098D01*
X203778655Y-105442499D01*
X203778672Y-105442500D01*
X204426500Y-105442500D01*
X204426500Y-104525512D01*
X204483507Y-104558425D01*
X204610674Y-104592500D01*
X204742326Y-104592500D01*
X204869493Y-104558425D01*
X204926500Y-104525512D01*
X204926500Y-105442500D01*
X205574328Y-105442500D01*
X205574344Y-105442499D01*
X205633872Y-105436098D01*
X205633879Y-105436096D01*
X205768586Y-105385854D01*
X205768593Y-105385850D01*
X205883687Y-105299690D01*
X205883690Y-105299687D01*
X205969850Y-105184593D01*
X205969854Y-105184586D01*
X206020096Y-105049879D01*
X206020098Y-105049872D01*
X206026499Y-104990344D01*
X206026500Y-104990327D01*
X206026500Y-104342500D01*
X205109512Y-104342500D01*
X205142425Y-104285493D01*
X205176500Y-104158326D01*
X205176500Y-104026674D01*
X205142425Y-103899507D01*
X205109512Y-103842500D01*
X206026500Y-103842500D01*
X206026500Y-103194672D01*
X206026499Y-103194655D01*
X206020098Y-103135127D01*
X206020096Y-103135120D01*
X205969854Y-103000413D01*
X205969850Y-103000406D01*
X205883690Y-102885312D01*
X205883687Y-102885309D01*
X205768593Y-102799149D01*
X205768586Y-102799145D01*
X205633879Y-102748903D01*
X205633872Y-102748901D01*
X205574344Y-102742500D01*
X204926500Y-102742500D01*
X204926500Y-103659488D01*
X204869493Y-103626575D01*
X204742326Y-103592500D01*
X204610674Y-103592500D01*
X204483507Y-103626575D01*
X204426500Y-103659488D01*
X204426500Y-102742500D01*
X203778655Y-102742500D01*
X203719127Y-102748901D01*
X203719120Y-102748903D01*
X203584413Y-102799145D01*
X203584406Y-102799149D01*
X203469312Y-102885309D01*
X203469309Y-102885312D01*
X203383149Y-103000406D01*
X203383145Y-103000413D01*
X203332903Y-103135120D01*
X203332901Y-103135127D01*
X203326500Y-103194655D01*
X177465999Y-103194655D01*
X177465999Y-102637898D01*
X177465999Y-101113498D01*
X177465998Y-101113481D01*
X177455499Y-101010703D01*
X177455498Y-101010700D01*
X177417380Y-100895669D01*
X177400314Y-100844166D01*
X177308212Y-100694844D01*
X177184156Y-100570788D01*
X177077496Y-100505000D01*
X177034836Y-100478687D01*
X177034831Y-100478685D01*
X177010942Y-100470769D01*
X176868297Y-100423501D01*
X176868295Y-100423500D01*
X176765510Y-100413000D01*
X175565498Y-100413000D01*
X175565481Y-100413001D01*
X175462703Y-100423500D01*
X175462700Y-100423501D01*
X175296168Y-100478685D01*
X175296163Y-100478687D01*
X175146842Y-100570789D01*
X175022789Y-100694842D01*
X174930687Y-100844163D01*
X174930685Y-100844168D01*
X174902849Y-100928170D01*
X174875501Y-101010703D01*
X174875501Y-101010704D01*
X174875500Y-101010704D01*
X174865000Y-101113483D01*
X174865000Y-101421320D01*
X174845315Y-101488359D01*
X174792511Y-101534114D01*
X174783517Y-101537803D01*
X174587465Y-101609362D01*
X174483024Y-101647483D01*
X174440509Y-101655000D01*
X173744596Y-101655000D01*
X173677557Y-101635315D01*
X173656915Y-101618681D01*
X167751717Y-95713483D01*
X174865000Y-95713483D01*
X174865000Y-98813501D01*
X174865001Y-98813518D01*
X174875500Y-98916296D01*
X174875501Y-98916299D01*
X174930685Y-99082831D01*
X174930687Y-99082836D01*
X174947533Y-99110148D01*
X175022788Y-99232156D01*
X175146844Y-99356212D01*
X175296166Y-99448314D01*
X175462703Y-99503499D01*
X175565491Y-99514000D01*
X176765508Y-99513999D01*
X176868297Y-99503499D01*
X177034834Y-99448314D01*
X177184156Y-99356212D01*
X177308212Y-99232156D01*
X177400314Y-99082834D01*
X177455499Y-98916297D01*
X177466000Y-98813509D01*
X177465999Y-98399415D01*
X177485683Y-98332377D01*
X177520096Y-98296997D01*
X177897266Y-98039580D01*
X177963735Y-98018048D01*
X177967167Y-98018000D01*
X180147024Y-98018000D01*
X180214063Y-98037685D01*
X180259818Y-98090489D01*
X180270514Y-98130775D01*
X180272206Y-98149387D01*
X180276413Y-98195693D01*
X180276414Y-98195696D01*
X180327022Y-98358106D01*
X180336255Y-98373380D01*
X180415030Y-98503688D01*
X180517161Y-98605819D01*
X180550646Y-98667142D01*
X180545662Y-98736834D01*
X180517161Y-98781181D01*
X180415031Y-98883310D01*
X180415030Y-98883311D01*
X180327022Y-99028893D01*
X180276413Y-99191307D01*
X180272701Y-99232157D01*
X180270000Y-99261884D01*
X180270000Y-99775116D01*
X180270689Y-99782696D01*
X180276413Y-99845692D01*
X180276413Y-99845694D01*
X180276414Y-99845696D01*
X180327022Y-100008106D01*
X180406340Y-100139314D01*
X180415030Y-100153688D01*
X180535311Y-100273969D01*
X180535313Y-100273970D01*
X180535315Y-100273972D01*
X180680894Y-100361978D01*
X180843304Y-100412586D01*
X180913884Y-100419000D01*
X181012330Y-100419000D01*
X181016465Y-100419703D01*
X181018727Y-100419165D01*
X181053350Y-100425981D01*
X181076895Y-100434237D01*
X181123543Y-100463568D01*
X181209534Y-100549559D01*
X181333111Y-100632130D01*
X181408892Y-100663519D01*
X181470420Y-100689005D01*
X181494605Y-100693815D01*
X181544862Y-100703812D01*
X181616186Y-100718001D01*
X181616188Y-100718001D01*
X181770926Y-100718001D01*
X181770946Y-100718000D01*
X182282635Y-100718000D01*
X182335257Y-100729719D01*
X183011429Y-101046626D01*
X183014166Y-101048314D01*
X183017381Y-101049379D01*
X183086166Y-101075659D01*
X183086170Y-101075660D01*
X183086180Y-101075664D01*
X183089430Y-101076639D01*
X183089437Y-101076641D01*
X183089438Y-101076641D01*
X183089441Y-101076642D01*
X183100421Y-101078467D01*
X183119085Y-101083080D01*
X183180703Y-101103499D01*
X183283491Y-101114000D01*
X184883508Y-101113999D01*
X184986297Y-101103499D01*
X185152834Y-101048314D01*
X185302156Y-100956212D01*
X185426212Y-100832156D01*
X185518314Y-100682834D01*
X185573499Y-100516297D01*
X185584000Y-100413509D01*
X185583999Y-100001668D01*
X185590619Y-99961694D01*
X185603745Y-99923154D01*
X185696081Y-99652024D01*
X185736327Y-99594910D01*
X185801062Y-99568621D01*
X185813461Y-99568000D01*
X188132635Y-99568000D01*
X188185257Y-99579719D01*
X188776892Y-99857005D01*
X188829240Y-99903278D01*
X188848262Y-99970509D01*
X188827916Y-100037350D01*
X188789365Y-100074822D01*
X188714847Y-100120785D01*
X188714843Y-100120788D01*
X188590789Y-100244842D01*
X188498687Y-100394163D01*
X188498685Y-100394168D01*
X188471735Y-100475500D01*
X188443501Y-100560703D01*
X188443501Y-100560704D01*
X188443500Y-100560704D01*
X188433000Y-100663483D01*
X188433000Y-101563501D01*
X188433001Y-101563519D01*
X188443500Y-101666296D01*
X188443501Y-101666299D01*
X188498685Y-101832831D01*
X188498687Y-101832836D01*
X188533569Y-101889388D01*
X188590788Y-101982156D01*
X188714844Y-102106212D01*
X188864166Y-102198314D01*
X189030703Y-102253499D01*
X189133491Y-102264000D01*
X190033508Y-102263999D01*
X190033516Y-102263998D01*
X190033519Y-102263998D01*
X190089802Y-102258248D01*
X190136297Y-102253499D01*
X190302834Y-102198314D01*
X190452156Y-102106212D01*
X190576212Y-101982156D01*
X190668314Y-101832834D01*
X190680795Y-101795168D01*
X190720566Y-101737725D01*
X190785082Y-101710902D01*
X190853858Y-101723217D01*
X190905058Y-101770760D01*
X190922500Y-101834174D01*
X190922500Y-102443149D01*
X190925399Y-102479989D01*
X190925400Y-102479995D01*
X190971216Y-102637693D01*
X190971217Y-102637696D01*
X191054814Y-102779052D01*
X191054821Y-102779061D01*
X191170938Y-102895178D01*
X191170947Y-102895185D01*
X191312301Y-102978781D01*
X191470014Y-103024600D01*
X191470011Y-103024600D01*
X191472498Y-103024795D01*
X191472500Y-103024795D01*
X191972500Y-103024795D01*
X191972501Y-103024795D01*
X191974986Y-103024600D01*
X192132698Y-102978781D01*
X192274052Y-102895185D01*
X192280222Y-102890400D01*
X192282046Y-102892752D01*
X192331095Y-102865945D01*
X192400788Y-102870902D01*
X192433563Y-102891965D01*
X192434778Y-102890400D01*
X192440947Y-102895185D01*
X192582301Y-102978781D01*
X192740014Y-103024600D01*
X192740011Y-103024600D01*
X192742498Y-103024795D01*
X192742500Y-103024795D01*
X192742500Y-101802500D01*
X191972500Y-101802500D01*
X191972500Y-103024795D01*
X191472500Y-103024795D01*
X191472500Y-101676500D01*
X191492185Y-101609461D01*
X191544989Y-101563706D01*
X191596500Y-101552500D01*
X191722500Y-101552500D01*
X191722500Y-101426500D01*
X191742185Y-101359461D01*
X191794989Y-101313706D01*
X191846500Y-101302500D01*
X192868500Y-101302500D01*
X192935539Y-101322185D01*
X192981294Y-101374989D01*
X192992500Y-101426500D01*
X192992500Y-101552500D01*
X193118500Y-101552500D01*
X193185539Y-101572185D01*
X193231294Y-101624989D01*
X193242500Y-101676500D01*
X193242500Y-103024795D01*
X193242501Y-103024795D01*
X193244986Y-103024600D01*
X193402698Y-102978781D01*
X193544050Y-102895186D01*
X193550217Y-102890403D01*
X193552130Y-102892869D01*
X193600722Y-102866302D01*
X193670417Y-102871249D01*
X193703262Y-102892353D01*
X193704469Y-102890798D01*
X193710632Y-102895578D01*
X193710635Y-102895581D01*
X193852102Y-102979244D01*
X193893724Y-102991336D01*
X194009926Y-103025097D01*
X194009929Y-103025097D01*
X194009931Y-103025098D01*
X194046806Y-103028000D01*
X194046814Y-103028000D01*
X194478186Y-103028000D01*
X194478194Y-103028000D01*
X194515069Y-103025098D01*
X194515071Y-103025097D01*
X194515073Y-103025097D01*
X194556691Y-103013005D01*
X194672898Y-102979244D01*
X194814365Y-102895581D01*
X194814370Y-102895575D01*
X194820531Y-102890798D01*
X194822433Y-102893250D01*
X194871079Y-102866655D01*
X194940774Y-102871604D01*
X194973195Y-102892440D01*
X194974469Y-102890798D01*
X194980632Y-102895578D01*
X194980635Y-102895581D01*
X195122102Y-102979244D01*
X195163724Y-102991336D01*
X195279926Y-103025097D01*
X195279929Y-103025097D01*
X195279931Y-103025098D01*
X195316806Y-103028000D01*
X195316814Y-103028000D01*
X195748186Y-103028000D01*
X195748194Y-103028000D01*
X195785069Y-103025098D01*
X195785071Y-103025097D01*
X195785073Y-103025097D01*
X195826691Y-103013005D01*
X195942898Y-102979244D01*
X196084365Y-102895581D01*
X196200581Y-102779365D01*
X196284244Y-102637898D01*
X196330098Y-102480069D01*
X196333000Y-102443194D01*
X196333000Y-100801838D01*
X196333703Y-100790444D01*
X196333662Y-100790442D01*
X196333895Y-100786964D01*
X196333931Y-100783549D01*
X196335106Y-100673428D01*
X196316174Y-100488235D01*
X196317685Y-100480104D01*
X196315581Y-100472102D01*
X196323974Y-100446260D01*
X196328938Y-100419545D01*
X196335166Y-100411800D01*
X196337164Y-100405649D01*
X196361023Y-100379646D01*
X196390277Y-100355720D01*
X196431884Y-100333323D01*
X196542106Y-100298978D01*
X196687685Y-100210972D01*
X196807972Y-100090685D01*
X196895978Y-99945106D01*
X196946586Y-99782696D01*
X196949862Y-99746639D01*
X196975532Y-99681658D01*
X197032260Y-99640869D01*
X197102035Y-99637225D01*
X197138449Y-99652323D01*
X197255159Y-99724310D01*
X197255160Y-99724310D01*
X197255166Y-99724314D01*
X197421703Y-99779499D01*
X197524491Y-99790000D01*
X198424508Y-99789999D01*
X198424516Y-99789998D01*
X198424519Y-99789998D01*
X198496039Y-99782692D01*
X198527297Y-99779499D01*
X198693834Y-99724314D01*
X198843156Y-99632212D01*
X198967212Y-99508156D01*
X199059314Y-99358834D01*
X199114499Y-99192297D01*
X199125000Y-99089509D01*
X199124999Y-97789492D01*
X199124998Y-97789483D01*
X200324000Y-97789483D01*
X200324000Y-99089501D01*
X200324001Y-99089518D01*
X200334500Y-99192296D01*
X200334501Y-99192299D01*
X200389685Y-99358831D01*
X200389687Y-99358836D01*
X200409649Y-99391200D01*
X200481788Y-99508156D01*
X200605844Y-99632212D01*
X200755166Y-99724314D01*
X200921703Y-99779499D01*
X201024491Y-99790000D01*
X201924508Y-99789999D01*
X201924516Y-99789998D01*
X201924519Y-99789998D01*
X201996039Y-99782692D01*
X202027297Y-99779499D01*
X202193834Y-99724314D01*
X202343156Y-99632212D01*
X202412650Y-99562716D01*
X202473973Y-99529232D01*
X202474248Y-99529172D01*
X202491203Y-99525524D01*
X202653399Y-99490624D01*
X202838607Y-99450774D01*
X202864691Y-99448000D01*
X202971233Y-99448000D01*
X202982014Y-99448470D01*
X202990264Y-99449190D01*
X203017018Y-99451525D01*
X203076726Y-99448192D01*
X203083635Y-99448000D01*
X204332830Y-99448000D01*
X204332831Y-99447999D01*
X204527669Y-99409244D01*
X204625427Y-99368750D01*
X204628510Y-99368026D01*
X204629886Y-99367003D01*
X204655874Y-99361602D01*
X204664395Y-99359602D01*
X204665117Y-99359552D01*
X204801986Y-99351915D01*
X204820293Y-99350559D01*
X204821127Y-99350482D01*
X204838055Y-99347692D01*
X204843932Y-99347290D01*
X204845265Y-99347584D01*
X204852416Y-99346999D01*
X205574371Y-99346999D01*
X205574372Y-99346999D01*
X205633983Y-99340591D01*
X205768831Y-99290296D01*
X205884046Y-99204046D01*
X205970296Y-99088831D01*
X206020591Y-98953983D01*
X206027000Y-98894373D01*
X206026999Y-97098628D01*
X206020591Y-97039017D01*
X206016488Y-97028017D01*
X205970297Y-96904171D01*
X205970293Y-96904164D01*
X205884047Y-96788955D01*
X205884044Y-96788952D01*
X205768835Y-96702706D01*
X205768828Y-96702702D01*
X205633982Y-96652408D01*
X205633983Y-96652408D01*
X205574383Y-96646001D01*
X205574381Y-96646000D01*
X205574373Y-96646000D01*
X205574364Y-96646000D01*
X203778629Y-96646000D01*
X203778623Y-96646001D01*
X203719016Y-96652408D01*
X203584171Y-96702702D01*
X203584164Y-96702706D01*
X203468955Y-96788952D01*
X203468952Y-96788955D01*
X203382706Y-96904164D01*
X203382703Y-96904169D01*
X203331443Y-97041604D01*
X203289571Y-97097537D01*
X203286107Y-97100039D01*
X202864563Y-97393495D01*
X202798296Y-97415641D01*
X202767633Y-97412952D01*
X202474244Y-97349824D01*
X202412845Y-97316477D01*
X202343157Y-97246789D01*
X202343156Y-97246788D01*
X202219173Y-97170315D01*
X202193836Y-97154687D01*
X202193831Y-97154685D01*
X202187442Y-97152568D01*
X202027297Y-97099501D01*
X202027295Y-97099500D01*
X201924510Y-97089000D01*
X201024498Y-97089000D01*
X201024480Y-97089001D01*
X200921703Y-97099500D01*
X200921700Y-97099501D01*
X200755168Y-97154685D01*
X200755163Y-97154687D01*
X200605842Y-97246789D01*
X200481789Y-97370842D01*
X200389687Y-97520163D01*
X200389685Y-97520168D01*
X200365567Y-97592952D01*
X200334501Y-97686703D01*
X200334501Y-97686704D01*
X200334500Y-97686704D01*
X200324000Y-97789483D01*
X199124998Y-97789483D01*
X199117865Y-97719659D01*
X199114499Y-97686703D01*
X199114498Y-97686700D01*
X199112785Y-97681532D01*
X199059314Y-97520166D01*
X198967212Y-97370844D01*
X198843156Y-97246788D01*
X198719173Y-97170315D01*
X198693836Y-97154687D01*
X198693831Y-97154685D01*
X198687442Y-97152568D01*
X198527297Y-97099501D01*
X198527295Y-97099500D01*
X198424516Y-97089000D01*
X198424509Y-97089000D01*
X197766588Y-97089000D01*
X197759846Y-97088817D01*
X197752100Y-97088395D01*
X197728049Y-97084033D01*
X197556450Y-97077742D01*
X197555342Y-97077682D01*
X197554677Y-97077447D01*
X197537908Y-97075485D01*
X197536405Y-97075186D01*
X197536394Y-97075180D01*
X197536394Y-97075184D01*
X197414814Y-97050999D01*
X197414812Y-97050999D01*
X197266188Y-97050999D01*
X197260074Y-97050999D01*
X197260054Y-97051000D01*
X196949963Y-97051000D01*
X196919908Y-97047303D01*
X196830723Y-97025022D01*
X196458316Y-96931984D01*
X196458312Y-96931983D01*
X196458299Y-96931980D01*
X196437619Y-96928375D01*
X196422027Y-96924604D01*
X196379697Y-96911414D01*
X196362051Y-96909810D01*
X196309116Y-96905000D01*
X195645884Y-96905000D01*
X195626645Y-96906748D01*
X195575307Y-96911413D01*
X195412893Y-96962022D01*
X195267311Y-97050030D01*
X195147030Y-97170311D01*
X195059022Y-97315893D01*
X195008413Y-97478307D01*
X195003761Y-97529501D01*
X195002885Y-97539151D01*
X195002000Y-97548886D01*
X195002000Y-97593353D01*
X194982315Y-97660392D01*
X194929511Y-97706147D01*
X194860353Y-97716091D01*
X194796797Y-97687066D01*
X194784197Y-97674452D01*
X194669081Y-97541304D01*
X194604885Y-97467052D01*
X194580304Y-97422847D01*
X194546978Y-97315894D01*
X194458972Y-97170315D01*
X194458970Y-97170313D01*
X194458969Y-97170311D01*
X194338688Y-97050030D01*
X194320470Y-97039017D01*
X194193106Y-96962022D01*
X194030696Y-96911414D01*
X194030694Y-96911413D01*
X194030692Y-96911413D01*
X193981278Y-96906923D01*
X193960116Y-96905000D01*
X193296884Y-96905000D01*
X193277645Y-96906748D01*
X193226307Y-96911413D01*
X193063893Y-96962022D01*
X192918311Y-97050030D01*
X192798030Y-97170311D01*
X192710022Y-97315893D01*
X192659413Y-97478307D01*
X192654761Y-97529501D01*
X192653885Y-97539151D01*
X192653000Y-97548886D01*
X192653000Y-98062113D01*
X192659413Y-98132692D01*
X192659413Y-98132694D01*
X192659414Y-98132696D01*
X192710022Y-98295106D01*
X192792784Y-98432011D01*
X192798030Y-98440688D01*
X192826084Y-98468742D01*
X192829504Y-98475006D01*
X192835348Y-98479108D01*
X192846028Y-98505266D01*
X192859569Y-98530065D01*
X192859059Y-98537185D01*
X192861758Y-98543794D01*
X192856600Y-98571573D01*
X192854585Y-98599757D01*
X192850307Y-98605471D01*
X192849004Y-98612490D01*
X192829644Y-98633073D01*
X192812713Y-98655690D01*
X192804861Y-98659422D01*
X192801134Y-98663385D01*
X192768459Y-98676725D01*
X192720322Y-98688751D01*
X192686095Y-98697302D01*
X192656041Y-98701000D01*
X191321946Y-98701000D01*
X191321926Y-98700999D01*
X191315812Y-98700999D01*
X191167188Y-98700999D01*
X191167186Y-98700999D01*
X191052801Y-98723752D01*
X191052796Y-98723753D01*
X191045605Y-98725184D01*
X191021420Y-98729995D01*
X190981203Y-98746653D01*
X190976735Y-98748503D01*
X190976734Y-98748504D01*
X190905450Y-98778030D01*
X190835980Y-98785497D01*
X190773502Y-98754221D01*
X190737850Y-98694132D01*
X190733999Y-98663468D01*
X190733999Y-98363498D01*
X190733998Y-98363481D01*
X190723499Y-98260703D01*
X190723498Y-98260700D01*
X190721784Y-98255527D01*
X190668314Y-98094166D01*
X190576212Y-97944844D01*
X190452156Y-97820788D01*
X190359388Y-97763569D01*
X190302836Y-97728687D01*
X190302831Y-97728685D01*
X190275592Y-97719659D01*
X190136297Y-97673501D01*
X190136295Y-97673500D01*
X190033510Y-97663000D01*
X189133498Y-97663000D01*
X189133480Y-97663001D01*
X189030703Y-97673500D01*
X189030700Y-97673501D01*
X188864166Y-97728685D01*
X188860756Y-97730275D01*
X188855011Y-97733380D01*
X188340077Y-97974718D01*
X188266969Y-98008983D01*
X188185256Y-98047280D01*
X188132633Y-98059000D01*
X185313946Y-98059000D01*
X185313926Y-98058999D01*
X185307812Y-98058999D01*
X185159188Y-98058999D01*
X185159187Y-98058999D01*
X185050338Y-98080651D01*
X185050334Y-98080652D01*
X185043282Y-98082055D01*
X185013420Y-98087995D01*
X184968040Y-98106792D01*
X184963426Y-98108702D01*
X184963417Y-98108706D01*
X184876115Y-98144867D01*
X184876106Y-98144872D01*
X184861119Y-98154887D01*
X184861118Y-98154888D01*
X184752535Y-98227440D01*
X184752533Y-98227441D01*
X184737501Y-98242473D01*
X184708150Y-98264213D01*
X183705911Y-98798426D01*
X183647585Y-98813000D01*
X183283498Y-98813000D01*
X183283480Y-98813001D01*
X183180703Y-98823500D01*
X183180700Y-98823501D01*
X183014165Y-98878685D01*
X183010775Y-98880266D01*
X183005017Y-98883377D01*
X182360305Y-99185539D01*
X182291248Y-99196165D01*
X182227409Y-99167769D01*
X182189297Y-99110149D01*
X182163978Y-99028894D01*
X182075972Y-98883315D01*
X182075970Y-98883313D01*
X182075969Y-98883311D01*
X181973839Y-98781181D01*
X181940354Y-98719858D01*
X181945338Y-98650166D01*
X181973839Y-98605819D01*
X182075968Y-98503689D01*
X182075969Y-98503688D01*
X182075972Y-98503685D01*
X182163978Y-98358106D01*
X182214586Y-98195696D01*
X182221000Y-98125116D01*
X182221000Y-97611884D01*
X182214586Y-97541304D01*
X182163978Y-97378894D01*
X182075972Y-97233315D01*
X182075970Y-97233313D01*
X182075969Y-97233311D01*
X181955688Y-97113030D01*
X181934198Y-97100039D01*
X181810106Y-97025022D01*
X181647696Y-96974414D01*
X181647694Y-96974413D01*
X181647692Y-96974413D01*
X181598278Y-96969923D01*
X181577116Y-96968000D01*
X181577113Y-96968000D01*
X181571130Y-96968000D01*
X181511045Y-96952470D01*
X181269509Y-96818677D01*
X181241912Y-96797888D01*
X181121466Y-96677441D01*
X180997889Y-96594870D01*
X180997886Y-96594868D01*
X180997885Y-96594868D01*
X180917455Y-96561553D01*
X180860581Y-96537995D01*
X180852269Y-96536341D01*
X180818793Y-96529683D01*
X180766802Y-96519341D01*
X180714813Y-96508999D01*
X180714812Y-96508999D01*
X180566188Y-96508999D01*
X180560074Y-96508999D01*
X180560054Y-96509000D01*
X177967169Y-96509000D01*
X177900130Y-96489315D01*
X177897298Y-96487440D01*
X177520096Y-96230000D01*
X177475822Y-96175950D01*
X177465999Y-96127581D01*
X177465999Y-95713498D01*
X177465998Y-95713481D01*
X177455499Y-95610703D01*
X177455498Y-95610700D01*
X177436603Y-95553680D01*
X177400314Y-95444166D01*
X177308212Y-95294844D01*
X177184156Y-95170788D01*
X177034834Y-95078686D01*
X176868297Y-95023501D01*
X176868295Y-95023500D01*
X176765510Y-95013000D01*
X175565498Y-95013000D01*
X175565481Y-95013001D01*
X175462703Y-95023500D01*
X175462700Y-95023501D01*
X175296168Y-95078685D01*
X175296163Y-95078687D01*
X175146842Y-95170789D01*
X175022789Y-95294842D01*
X174930687Y-95444163D01*
X174930686Y-95444166D01*
X174875501Y-95610703D01*
X174875501Y-95610704D01*
X174875500Y-95610704D01*
X174865000Y-95713483D01*
X167751717Y-95713483D01*
X157969319Y-85931085D01*
X157935834Y-85869762D01*
X157933000Y-85843404D01*
X157933000Y-81542819D01*
X157941962Y-81496533D01*
X158240579Y-80754357D01*
X158259377Y-80690687D01*
X158268591Y-80665983D01*
X158275000Y-80606373D01*
X158274999Y-80510210D01*
X158275096Y-80507564D01*
X158274999Y-80507186D01*
X158274999Y-80506239D01*
X158275217Y-80504077D01*
X158274999Y-80500007D01*
X158274999Y-78810629D01*
X158274998Y-78810623D01*
X158274997Y-78810616D01*
X158268591Y-78751017D01*
X158218296Y-78616169D01*
X158218295Y-78616168D01*
X158218293Y-78616164D01*
X158132047Y-78500955D01*
X158132044Y-78500952D01*
X158016835Y-78414706D01*
X158016828Y-78414702D01*
X157881982Y-78364408D01*
X157881983Y-78364408D01*
X157822383Y-78358001D01*
X157822381Y-78358000D01*
X157822373Y-78358000D01*
X157822364Y-78358000D01*
X156026629Y-78358000D01*
X156026623Y-78358001D01*
X155967016Y-78364408D01*
X155832171Y-78414702D01*
X155832164Y-78414706D01*
X155716955Y-78500952D01*
X155716952Y-78500955D01*
X155630706Y-78616164D01*
X155630702Y-78616171D01*
X155580408Y-78751017D01*
X155578594Y-78767894D01*
X155574001Y-78810623D01*
X155574000Y-78810635D01*
X155574000Y-80529104D01*
X155573552Y-80534949D01*
X155573731Y-80537268D01*
X155573375Y-80542659D01*
X155572001Y-80551577D01*
X155571910Y-80560531D01*
X147773000Y-80560531D01*
X147773000Y-79589149D01*
X147735658Y-79353385D01*
X147661895Y-79126366D01*
X147646855Y-79096848D01*
X147620514Y-79045149D01*
X147606999Y-78988855D01*
X147606999Y-78810629D01*
X147606998Y-78810623D01*
X147606997Y-78810616D01*
X147600591Y-78751017D01*
X147550296Y-78616169D01*
X147550295Y-78616168D01*
X147550293Y-78616164D01*
X147464047Y-78500955D01*
X147464044Y-78500952D01*
X147348835Y-78414706D01*
X147348828Y-78414702D01*
X147213982Y-78364408D01*
X147213983Y-78364408D01*
X147154383Y-78358001D01*
X147154381Y-78358000D01*
X147154373Y-78358000D01*
X147154365Y-78358000D01*
X146976142Y-78358000D01*
X146919847Y-78344485D01*
X146838636Y-78303106D01*
X146838635Y-78303105D01*
X146838634Y-78303105D01*
X146611615Y-78229342D01*
X146611613Y-78229341D01*
X146611611Y-78229341D01*
X146446998Y-78203268D01*
X146375851Y-78192000D01*
X146137149Y-78192000D01*
X146082495Y-78200656D01*
X145901388Y-78229341D01*
X145901387Y-78229341D01*
X145674369Y-78303103D01*
X145593149Y-78344486D01*
X145536857Y-78358000D01*
X145358630Y-78358000D01*
X145358623Y-78358001D01*
X145299016Y-78364408D01*
X145164171Y-78414702D01*
X145164164Y-78414706D01*
X145048955Y-78500952D01*
X145048952Y-78500955D01*
X144962706Y-78616164D01*
X144962702Y-78616171D01*
X144912408Y-78751017D01*
X144910594Y-78767894D01*
X144906001Y-78810623D01*
X144906000Y-78810635D01*
X144906000Y-78988857D01*
X144892485Y-79045151D01*
X144851104Y-79126366D01*
X144777341Y-79353387D01*
X144777341Y-79353388D01*
X144740000Y-79589149D01*
X144740000Y-86648983D01*
X144720315Y-86716022D01*
X144703681Y-86736664D01*
X136079777Y-95360567D01*
X136079773Y-95360571D01*
X136009626Y-95457123D01*
X136009626Y-95457124D01*
X135939473Y-95553680D01*
X135831106Y-95766363D01*
X135757341Y-95993387D01*
X135757341Y-95993388D01*
X135720000Y-96229149D01*
X135720000Y-97152568D01*
X135700315Y-97219607D01*
X135694376Y-97228054D01*
X135569575Y-97390697D01*
X135438458Y-97617799D01*
X135438453Y-97617809D01*
X135338105Y-97860071D01*
X135338102Y-97860081D01*
X135270230Y-98113384D01*
X135266426Y-98142272D01*
X135236000Y-98373372D01*
X116636999Y-98373372D01*
X116602770Y-98113384D01*
X116534898Y-97860081D01*
X116518622Y-97820788D01*
X116434546Y-97617809D01*
X116434541Y-97617799D01*
X116303424Y-97390696D01*
X116165311Y-97210706D01*
X116143782Y-97182649D01*
X116143781Y-97182648D01*
X116143774Y-97182640D01*
X115958360Y-96997226D01*
X115958351Y-96997218D01*
X115750303Y-96837575D01*
X115523200Y-96706458D01*
X115523190Y-96706453D01*
X115280928Y-96606105D01*
X115280921Y-96606103D01*
X115280919Y-96606102D01*
X115027616Y-96538230D01*
X114969839Y-96530623D01*
X114767627Y-96504000D01*
X114767620Y-96504000D01*
X114505380Y-96504000D01*
X114505372Y-96504000D01*
X114274272Y-96534426D01*
X114245384Y-96538230D01*
X114034007Y-96594868D01*
X113992081Y-96606102D01*
X113992071Y-96606105D01*
X113749809Y-96706453D01*
X113749799Y-96706458D01*
X113522701Y-96837572D01*
X113480849Y-96869687D01*
X113372966Y-96952470D01*
X113360056Y-96962376D01*
X113294887Y-96987570D01*
X113284569Y-96988000D01*
X110577149Y-96988000D01*
X110522495Y-96996656D01*
X110341388Y-97025341D01*
X110341387Y-97025341D01*
X110114369Y-97099103D01*
X110033149Y-97140486D01*
X109976857Y-97154000D01*
X109798630Y-97154000D01*
X109798623Y-97154001D01*
X109739016Y-97160408D01*
X109604171Y-97210702D01*
X109604164Y-97210706D01*
X109488955Y-97296952D01*
X109488952Y-97296955D01*
X109402706Y-97412164D01*
X109402702Y-97412171D01*
X109352408Y-97547017D01*
X109346001Y-97606616D01*
X109346000Y-97606635D01*
X109346000Y-97784857D01*
X109332485Y-97841151D01*
X109291104Y-97922366D01*
X109217341Y-98149387D01*
X109217341Y-98149388D01*
X109180000Y-98385149D01*
X106625000Y-98385149D01*
X106625000Y-88225149D01*
X109180000Y-88225149D01*
X109180000Y-88463850D01*
X109217341Y-88699611D01*
X109217341Y-88699612D01*
X109291104Y-88926633D01*
X109332485Y-89007848D01*
X109346000Y-89064141D01*
X109346000Y-89242369D01*
X109346001Y-89242376D01*
X109352408Y-89301983D01*
X109402702Y-89436828D01*
X109402706Y-89436835D01*
X109488952Y-89552044D01*
X109488955Y-89552047D01*
X109604164Y-89638293D01*
X109604171Y-89638297D01*
X109604831Y-89638543D01*
X109739017Y-89688591D01*
X109798627Y-89695000D01*
X109976855Y-89694999D01*
X110033151Y-89708514D01*
X110063981Y-89724222D01*
X110114366Y-89749895D01*
X110341385Y-89823658D01*
X110577149Y-89861000D01*
X113284569Y-89861000D01*
X113351608Y-89880685D01*
X113360056Y-89886624D01*
X113522701Y-90011427D01*
X113749799Y-90142541D01*
X113749809Y-90142546D01*
X113992071Y-90242894D01*
X113992081Y-90242898D01*
X114245384Y-90310770D01*
X114505380Y-90345000D01*
X114505387Y-90345000D01*
X114767613Y-90345000D01*
X114767620Y-90345000D01*
X115027616Y-90310770D01*
X115280919Y-90242898D01*
X115523197Y-90142543D01*
X115750303Y-90011424D01*
X115958351Y-89851782D01*
X115958355Y-89851777D01*
X115958360Y-89851774D01*
X116143774Y-89666360D01*
X116143777Y-89666355D01*
X116143782Y-89666351D01*
X116303424Y-89458303D01*
X116434543Y-89231197D01*
X116534898Y-88988919D01*
X116602770Y-88735616D01*
X116637000Y-88475620D01*
X116637000Y-88213380D01*
X116636999Y-88213372D01*
X135236000Y-88213372D01*
X135236000Y-88475627D01*
X135262623Y-88677839D01*
X135270230Y-88735616D01*
X135321413Y-88926633D01*
X135338102Y-88988918D01*
X135338105Y-88988928D01*
X135438453Y-89231190D01*
X135438458Y-89231200D01*
X135569575Y-89458303D01*
X135729218Y-89666351D01*
X135729226Y-89666360D01*
X135914640Y-89851774D01*
X135914648Y-89851781D01*
X136122696Y-90011424D01*
X136349799Y-90142541D01*
X136349809Y-90142546D01*
X136592071Y-90242894D01*
X136592081Y-90242898D01*
X136845384Y-90310770D01*
X137105380Y-90345000D01*
X137105387Y-90345000D01*
X137367613Y-90345000D01*
X137367620Y-90345000D01*
X137627616Y-90310770D01*
X137880919Y-90242898D01*
X138123197Y-90142543D01*
X138350303Y-90011424D01*
X138558351Y-89851782D01*
X138558355Y-89851777D01*
X138558360Y-89851774D01*
X138743774Y-89666360D01*
X138743777Y-89666355D01*
X138743782Y-89666351D01*
X138903424Y-89458303D01*
X139034543Y-89231197D01*
X139134898Y-88988919D01*
X139202770Y-88735616D01*
X139237000Y-88475620D01*
X139237000Y-88213380D01*
X139202770Y-87953384D01*
X139134898Y-87700081D01*
X139127057Y-87681151D01*
X139034546Y-87457809D01*
X139034541Y-87457799D01*
X138903424Y-87230697D01*
X138778624Y-87068054D01*
X138753430Y-87002885D01*
X138753000Y-86992568D01*
X138753000Y-79713149D01*
X138715658Y-79477388D01*
X138715658Y-79477387D01*
X138715658Y-79477385D01*
X138641895Y-79250366D01*
X138533527Y-79037681D01*
X138519683Y-79018626D01*
X138486681Y-78973202D01*
X138463201Y-78907396D01*
X138462999Y-78900317D01*
X138462999Y-78810629D01*
X138462998Y-78810623D01*
X138462997Y-78810616D01*
X138456591Y-78751017D01*
X138406296Y-78616169D01*
X138406295Y-78616168D01*
X138406293Y-78616164D01*
X138320047Y-78500955D01*
X138320044Y-78500952D01*
X138204835Y-78414706D01*
X138204828Y-78414702D01*
X138069982Y-78364408D01*
X138069983Y-78364408D01*
X138010383Y-78358001D01*
X138010381Y-78358000D01*
X138010373Y-78358000D01*
X138010365Y-78358000D01*
X137832141Y-78358000D01*
X137775846Y-78344485D01*
X137694637Y-78303106D01*
X137467615Y-78229341D01*
X137231856Y-78192001D01*
X137231851Y-78192001D01*
X136993149Y-78192001D01*
X136993144Y-78192001D01*
X136757383Y-78229342D01*
X136757380Y-78229342D01*
X136530370Y-78303103D01*
X136449150Y-78344486D01*
X136392858Y-78358000D01*
X136214630Y-78358000D01*
X136214623Y-78358001D01*
X136155016Y-78364408D01*
X136020171Y-78414702D01*
X136020164Y-78414706D01*
X135904955Y-78500952D01*
X135904952Y-78500955D01*
X135818706Y-78616164D01*
X135818702Y-78616171D01*
X135768408Y-78751017D01*
X135766594Y-78767894D01*
X135762001Y-78810623D01*
X135762000Y-78810635D01*
X135762000Y-78988858D01*
X135748485Y-79045152D01*
X135707108Y-79126359D01*
X135707105Y-79126366D01*
X135633341Y-79353384D01*
X135596001Y-79589143D01*
X135596001Y-79827856D01*
X135633341Y-80063615D01*
X135661608Y-80150608D01*
X135707105Y-80290633D01*
X135707106Y-80290634D01*
X135708971Y-80295137D01*
X135707957Y-80295556D01*
X135720000Y-80345710D01*
X135720000Y-86992568D01*
X135700315Y-87059607D01*
X135694376Y-87068054D01*
X135569575Y-87230697D01*
X135438458Y-87457799D01*
X135438453Y-87457809D01*
X135338105Y-87700071D01*
X135338102Y-87700081D01*
X135270230Y-87953385D01*
X135236000Y-88213372D01*
X116636999Y-88213372D01*
X116602770Y-87953384D01*
X116534898Y-87700081D01*
X116527057Y-87681151D01*
X116434546Y-87457809D01*
X116434541Y-87457799D01*
X116303424Y-87230696D01*
X116165311Y-87050706D01*
X116143782Y-87022649D01*
X116143781Y-87022648D01*
X116143774Y-87022640D01*
X115958360Y-86837226D01*
X115958351Y-86837218D01*
X115750303Y-86677575D01*
X115523200Y-86546458D01*
X115523190Y-86546453D01*
X115280928Y-86446105D01*
X115280921Y-86446103D01*
X115280919Y-86446102D01*
X115027616Y-86378230D01*
X114969839Y-86370623D01*
X114767627Y-86344000D01*
X114767620Y-86344000D01*
X114505380Y-86344000D01*
X114505372Y-86344000D01*
X114274272Y-86374426D01*
X114245384Y-86378230D01*
X113992081Y-86446102D01*
X113992071Y-86446105D01*
X113749809Y-86546453D01*
X113749799Y-86546458D01*
X113522701Y-86677572D01*
X113399400Y-86772185D01*
X113375919Y-86790204D01*
X113360056Y-86802376D01*
X113294887Y-86827570D01*
X113284569Y-86828000D01*
X110577149Y-86828000D01*
X110522495Y-86836656D01*
X110341388Y-86865341D01*
X110341387Y-86865341D01*
X110114369Y-86939103D01*
X110033149Y-86980486D01*
X109976857Y-86994000D01*
X109798630Y-86994000D01*
X109798623Y-86994001D01*
X109739016Y-87000408D01*
X109604171Y-87050702D01*
X109604164Y-87050706D01*
X109488955Y-87136952D01*
X109488952Y-87136955D01*
X109402706Y-87252164D01*
X109402702Y-87252171D01*
X109352408Y-87387017D01*
X109346001Y-87446616D01*
X109346000Y-87446635D01*
X109346000Y-87624857D01*
X109332485Y-87681151D01*
X109291104Y-87762366D01*
X109217341Y-87989387D01*
X109217341Y-87989388D01*
X109180000Y-88225149D01*
X106625000Y-88225149D01*
X106625000Y-80219371D01*
X106625132Y-80213644D01*
X106642103Y-79846554D01*
X106643160Y-79835150D01*
X106693535Y-79474023D01*
X106695634Y-79462794D01*
X106779118Y-79107845D01*
X106782241Y-79096866D01*
X106898125Y-78751114D01*
X106902248Y-78740475D01*
X107049535Y-78406901D01*
X107054618Y-78396692D01*
X107232052Y-78078137D01*
X107238078Y-78068405D01*
X107293999Y-77986771D01*
X107444146Y-77767583D01*
X107451029Y-77758470D01*
X107683973Y-77477945D01*
X107691667Y-77469505D01*
X107949505Y-77211667D01*
X107957945Y-77203973D01*
X108238470Y-76971029D01*
X108247583Y-76964146D01*
X108548410Y-76758074D01*
X108558137Y-76752052D01*
X108876692Y-76574618D01*
X108886901Y-76569535D01*
X109220475Y-76422248D01*
X109231114Y-76418125D01*
X109576866Y-76302241D01*
X109587845Y-76299118D01*
X109942794Y-76215634D01*
X109954023Y-76213535D01*
X110315154Y-76163159D01*
X110326547Y-76162103D01*
X110693645Y-76145132D01*
X110699372Y-76145000D01*
X110762392Y-76145000D01*
X216802608Y-76145000D01*
X216865628Y-76145000D01*
X216871355Y-76145132D01*
G37*
%TD.AperFunction*%
%TD*%
%TA.AperFunction,Conductor*%
%TO.N,Net-(U2A--)*%
G36*
X193279062Y-99073731D02*
G01*
X193281667Y-99075858D01*
X193405152Y-99210636D01*
X193622258Y-99447596D01*
X193625320Y-99456011D01*
X193622258Y-99463404D01*
X193281668Y-99835140D01*
X193273552Y-99838925D01*
X193270205Y-99838587D01*
X192762364Y-99711714D01*
X192755168Y-99706384D01*
X192753500Y-99700363D01*
X192753500Y-99210636D01*
X192756927Y-99202363D01*
X192762362Y-99199285D01*
X193270205Y-99072412D01*
X193279062Y-99073731D01*
G37*
%TD.AperFunction*%
%TD*%
%TA.AperFunction,Conductor*%
%TO.N,Net-(U2A--)*%
G36*
X190446267Y-99903475D02*
G01*
X190793524Y-100250732D01*
X190796951Y-100259005D01*
X190795705Y-100264260D01*
X190238377Y-101373034D01*
X190231599Y-101378886D01*
X190223460Y-101378594D01*
X189587289Y-101116062D01*
X189580949Y-101109739D01*
X189580937Y-101109710D01*
X189318405Y-100473539D01*
X189318417Y-100464584D01*
X189323963Y-100458623D01*
X190432741Y-99901293D01*
X190441670Y-99900641D01*
X190446267Y-99903475D01*
G37*
%TD.AperFunction*%
%TD*%
%TA.AperFunction,Conductor*%
%TO.N,Net-(D2-A)*%
G36*
X195319793Y-110057411D02*
G01*
X195827637Y-110184285D01*
X195834832Y-110189615D01*
X195836500Y-110195636D01*
X195836500Y-110685363D01*
X195833073Y-110693636D01*
X195827636Y-110696714D01*
X195319794Y-110823587D01*
X195310937Y-110822268D01*
X195308331Y-110820140D01*
X194967740Y-110448402D01*
X194964679Y-110439989D01*
X194967740Y-110432597D01*
X195308333Y-110060857D01*
X195316447Y-110057074D01*
X195319793Y-110057411D01*
G37*
%TD.AperFunction*%
%TD*%
%TA.AperFunction,Conductor*%
%TO.N,Net-(D2-A)*%
G36*
X196318164Y-109276675D02*
G01*
X196952448Y-109611774D01*
X196958163Y-109618669D01*
X196958610Y-109623424D01*
X196865052Y-110457044D01*
X196860724Y-110464883D01*
X196855766Y-110467202D01*
X195756759Y-110691632D01*
X195747967Y-110689930D01*
X195742955Y-110682510D01*
X195742718Y-110680169D01*
X195742718Y-110189825D01*
X195744467Y-110183671D01*
X196302751Y-109280865D01*
X196310016Y-109275633D01*
X196318164Y-109276675D01*
G37*
%TD.AperFunction*%
%TD*%
%TA.AperFunction,Conductor*%
%TO.N,Net-(U2B--)*%
G36*
X192238638Y-108429635D02*
G01*
X192604984Y-108781887D01*
X192608573Y-108790092D01*
X192605512Y-108798213D01*
X192266442Y-109169279D01*
X192258332Y-109173075D01*
X192253431Y-109172239D01*
X191952413Y-109050899D01*
X191948514Y-109048320D01*
X191603364Y-108703170D01*
X191599937Y-108694897D01*
X191603364Y-108686624D01*
X191607151Y-108684092D01*
X192226046Y-108427262D01*
X192234999Y-108427257D01*
X192238638Y-108429635D01*
G37*
%TD.AperFunction*%
%TD*%
%TA.AperFunction,Conductor*%
%TO.N,Net-(U2B--)*%
G36*
X190087581Y-108874471D02*
G01*
X190876765Y-109244343D01*
X190882802Y-109250957D01*
X190883500Y-109254937D01*
X190883500Y-109748062D01*
X190880073Y-109756335D01*
X190876765Y-109758656D01*
X190087583Y-110128527D01*
X190078638Y-110128935D01*
X190073425Y-110125170D01*
X189945220Y-109962299D01*
X189588195Y-109508735D01*
X189585771Y-109500116D01*
X189588195Y-109494264D01*
X190073425Y-108877828D01*
X190081234Y-108873448D01*
X190087581Y-108874471D01*
G37*
%TD.AperFunction*%
%TD*%
%TA.AperFunction,Conductor*%
%TO.N,Net-(R5-Pad2)*%
G36*
X189093574Y-106577829D02*
G01*
X189578803Y-107194263D01*
X189581228Y-107202884D01*
X189578803Y-107208737D01*
X189093574Y-107825170D01*
X189085765Y-107829551D01*
X189079416Y-107828527D01*
X188290235Y-107458656D01*
X188284198Y-107452042D01*
X188283500Y-107448062D01*
X188283500Y-106954937D01*
X188286927Y-106946664D01*
X188290233Y-106944344D01*
X189079418Y-106574471D01*
X189088361Y-106574064D01*
X189093574Y-106577829D01*
G37*
%TD.AperFunction*%
%TD*%
%TA.AperFunction,Conductor*%
%TO.N,Net-(R5-Pad2)*%
G36*
X184124169Y-107030229D02*
G01*
X184124894Y-107030896D01*
X184475100Y-107381102D01*
X184475112Y-107381113D01*
X184852262Y-107698335D01*
X184856388Y-107706283D01*
X184853685Y-107714820D01*
X184852185Y-107716307D01*
X184091788Y-108344772D01*
X184083228Y-108347402D01*
X184075335Y-108343232D01*
X183548326Y-107709037D01*
X183545675Y-107700484D01*
X183548383Y-107694014D01*
X184107683Y-107031619D01*
X184115637Y-107027510D01*
X184124169Y-107030229D01*
G37*
%TD.AperFunction*%
%TD*%
%TA.AperFunction,Conductor*%
%TO.N,Net-(J8-Pin_1)*%
G36*
X175367443Y-101866439D02*
G01*
X175370774Y-101868768D01*
X175657776Y-102155411D01*
X176158211Y-102655222D01*
X176161643Y-102663493D01*
X176158221Y-102671768D01*
X176158211Y-102671778D01*
X175370776Y-103458230D01*
X175362501Y-103461652D01*
X175358496Y-103460943D01*
X174573188Y-103174306D01*
X174566592Y-103168250D01*
X174565500Y-103163315D01*
X174565500Y-102163684D01*
X174568927Y-102155411D01*
X174573184Y-102152695D01*
X175358497Y-101866056D01*
X175367443Y-101866439D01*
G37*
%TD.AperFunction*%
%TD*%
%TA.AperFunction,Conductor*%
%TO.N,Net-(J8-Pin_1)*%
G36*
X156932766Y-79715776D02*
G01*
X157463791Y-80247425D01*
X157769039Y-80553033D01*
X157772461Y-80561308D01*
X157771615Y-80565668D01*
X157435450Y-81401167D01*
X157429183Y-81407563D01*
X157424596Y-81408500D01*
X156424404Y-81408500D01*
X156416131Y-81405073D01*
X156413550Y-81401167D01*
X156077384Y-80565668D01*
X156077475Y-80556714D01*
X156079958Y-80553034D01*
X156916223Y-79715786D01*
X156924493Y-79712355D01*
X156932766Y-79715776D01*
G37*
%TD.AperFunction*%
%TD*%
%TA.AperFunction,Conductor*%
%TO.N,Net-(J7-Pin_1)*%
G36*
X157781667Y-117977383D02*
G01*
X158617167Y-118313549D01*
X158623563Y-118319816D01*
X158624500Y-118324403D01*
X158624500Y-119324596D01*
X158621073Y-119332869D01*
X158617167Y-119335450D01*
X157781668Y-119671615D01*
X157772714Y-119671524D01*
X157769033Y-119669039D01*
X157424184Y-119324596D01*
X156931786Y-118832776D01*
X156928355Y-118824507D01*
X156931776Y-118816233D01*
X157769033Y-117979959D01*
X157777308Y-117976538D01*
X157781667Y-117977383D01*
G37*
%TD.AperFunction*%
%TD*%
%TA.AperFunction,Conductor*%
%TO.N,Net-(J7-Pin_1)*%
G36*
X176170641Y-112838618D02*
G01*
X176176010Y-112843987D01*
X176944495Y-114415133D01*
X176945234Y-114423492D01*
X176675926Y-115365018D01*
X176670356Y-115372029D01*
X176664677Y-115373500D01*
X175666323Y-115373500D01*
X175658050Y-115370073D01*
X175655074Y-115365018D01*
X175621454Y-115247480D01*
X175385765Y-114423489D01*
X175386503Y-114415135D01*
X176154990Y-112843986D01*
X176161703Y-112838061D01*
X176170641Y-112838618D01*
G37*
%TD.AperFunction*%
%TD*%
%TA.AperFunction,Conductor*%
%TO.N,+5V*%
G36*
X195713129Y-106260507D02*
G01*
X196084442Y-106388778D01*
X196091142Y-106394718D01*
X196092321Y-106399836D01*
X196092321Y-107381245D01*
X196088894Y-107389518D01*
X196080621Y-107392945D01*
X196072798Y-107389945D01*
X195365909Y-106754319D01*
X195362048Y-106746239D01*
X195364183Y-106738859D01*
X195531500Y-106502500D01*
X195699762Y-106264803D01*
X195707336Y-106260033D01*
X195713129Y-106260507D01*
G37*
%TD.AperFunction*%
%TD*%
%TA.AperFunction,Conductor*%
%TO.N,+5V*%
G36*
X160134147Y-107139687D02*
G01*
X160142141Y-107143724D01*
X160144971Y-107151354D01*
X160144971Y-108145645D01*
X160141544Y-108153918D01*
X160134147Y-108157312D01*
X159083866Y-108236196D01*
X159075360Y-108233399D01*
X159071519Y-108226831D01*
X158955961Y-107650797D01*
X158955961Y-107646202D01*
X159071520Y-107070167D01*
X159076506Y-107062731D01*
X159083864Y-107060803D01*
X160134147Y-107139687D01*
G37*
%TD.AperFunction*%
%TD*%
%TA.AperFunction,Conductor*%
%TO.N,Net-(D1-K)*%
G36*
X202120831Y-97790850D02*
G01*
X202765261Y-97929512D01*
X202772628Y-97934602D01*
X202774500Y-97940950D01*
X202774500Y-98938049D01*
X202771073Y-98946322D01*
X202765261Y-98949487D01*
X202120834Y-99088148D01*
X202112025Y-99086538D01*
X202110043Y-99084926D01*
X201974508Y-98947500D01*
X201481601Y-98447714D01*
X201478232Y-98439419D01*
X201481601Y-98431285D01*
X202110044Y-97794072D01*
X202118292Y-97790589D01*
X202120831Y-97790850D01*
G37*
%TD.AperFunction*%
%TD*%
%TA.AperFunction,Conductor*%
%TO.N,Net-(D1-K)*%
G36*
X203833288Y-97345015D02*
G01*
X204535285Y-97886752D01*
X204673659Y-97993536D01*
X204678115Y-98001304D01*
X204678116Y-98001313D01*
X204784773Y-98834032D01*
X204782425Y-98842673D01*
X204774654Y-98847123D01*
X204773820Y-98847200D01*
X202988852Y-98946810D01*
X202980401Y-98943849D01*
X202976518Y-98935780D01*
X202976500Y-98935128D01*
X202976500Y-97937610D01*
X202979927Y-97929337D01*
X202981509Y-97928012D01*
X203819460Y-97344676D01*
X203828206Y-97342762D01*
X203833288Y-97345015D01*
G37*
%TD.AperFunction*%
%TD*%
%TA.AperFunction,Conductor*%
%TO.N,Net-(D2-K)*%
G36*
X202989649Y-109109150D02*
G01*
X204804767Y-109336987D01*
X204812547Y-109341417D01*
X204814917Y-109350052D01*
X204814854Y-109350487D01*
X204678284Y-110183711D01*
X204673564Y-110191321D01*
X204673556Y-110191327D01*
X203833678Y-110793613D01*
X203824958Y-110795649D01*
X203819582Y-110793266D01*
X202980922Y-110127012D01*
X202976576Y-110119183D01*
X202976500Y-110117851D01*
X202976500Y-109120760D01*
X202979927Y-109112487D01*
X202988200Y-109109060D01*
X202989649Y-109109150D01*
G37*
%TD.AperFunction*%
%TD*%
%TA.AperFunction,Conductor*%
%TO.N,Net-(D2-K)*%
G36*
X201104831Y-108966850D02*
G01*
X201749261Y-109105512D01*
X201756628Y-109110602D01*
X201758500Y-109116950D01*
X201758500Y-110114049D01*
X201755073Y-110122322D01*
X201749261Y-110125487D01*
X201104834Y-110264148D01*
X201096025Y-110262538D01*
X201094043Y-110260926D01*
X200958508Y-110123500D01*
X200465601Y-109623714D01*
X200462232Y-109615419D01*
X200465601Y-109607285D01*
X201094044Y-108970072D01*
X201102292Y-108966589D01*
X201104831Y-108966850D01*
G37*
%TD.AperFunction*%
%TD*%
%TA.AperFunction,Conductor*%
%TO.N,Net-(D3-K)*%
G36*
X152025383Y-97507827D02*
G01*
X152341333Y-97661743D01*
X153021923Y-97993296D01*
X153027860Y-98000000D01*
X153028499Y-98003814D01*
X153028499Y-99005185D01*
X153025072Y-99013458D01*
X153021923Y-99015703D01*
X152025383Y-99501172D01*
X152016445Y-99501715D01*
X152012736Y-99499615D01*
X150838173Y-98513461D01*
X150834040Y-98505516D01*
X150836735Y-98496977D01*
X150838173Y-98495539D01*
X151423844Y-98003814D01*
X152012737Y-97509383D01*
X152021275Y-97506689D01*
X152025383Y-97507827D01*
G37*
%TD.AperFunction*%
%TD*%
%TA.AperFunction,Conductor*%
%TO.N,Net-(C3-Pad2)*%
G36*
X176973503Y-96468962D02*
G01*
X177760396Y-97006016D01*
X177765297Y-97013510D01*
X177765500Y-97015680D01*
X177765500Y-97511319D01*
X177762073Y-97519592D01*
X177760396Y-97520983D01*
X176973505Y-98058036D01*
X176964739Y-98059869D01*
X176958641Y-98056650D01*
X176422304Y-97520983D01*
X176172787Y-97271777D01*
X176169356Y-97263507D01*
X176172778Y-97255232D01*
X176172788Y-97255222D01*
X176958643Y-96470347D01*
X176966916Y-96466927D01*
X176973503Y-96468962D01*
G37*
%TD.AperFunction*%
%TD*%
%TA.AperFunction,Conductor*%
%TO.N,Net-(C3-Pad2)*%
G36*
X180588141Y-97019120D02*
G01*
X181390514Y-97463577D01*
X181396091Y-97470583D01*
X181395774Y-97477989D01*
X181248720Y-97862690D01*
X181242565Y-97869194D01*
X181240442Y-97869908D01*
X180780011Y-97977006D01*
X180771176Y-97975542D01*
X180766622Y-97970255D01*
X180571735Y-97519723D01*
X180570773Y-97515078D01*
X180570773Y-97029356D01*
X180574200Y-97021083D01*
X180582473Y-97017656D01*
X180588141Y-97019120D01*
G37*
%TD.AperFunction*%
%TD*%
%TA.AperFunction,Conductor*%
%TO.N,Net-(C4-Pad2)*%
G36*
X177605242Y-105999950D02*
G01*
X177612132Y-106005669D01*
X177613484Y-106011128D01*
X177613484Y-106507737D01*
X177612247Y-106512972D01*
X176970637Y-107795312D01*
X176963871Y-107801178D01*
X176955137Y-107800637D01*
X176174929Y-107428474D01*
X176168937Y-107421819D01*
X176169343Y-107413011D01*
X176915536Y-105797259D01*
X176922116Y-105791185D01*
X176929615Y-105790987D01*
X177605242Y-105999950D01*
G37*
%TD.AperFunction*%
%TD*%
%TA.AperFunction,Conductor*%
%TO.N,Net-(C4-Pad2)*%
G36*
X180896062Y-105874731D02*
G01*
X180898667Y-105876858D01*
X181022152Y-106011636D01*
X181239258Y-106248596D01*
X181242320Y-106257011D01*
X181239258Y-106264404D01*
X180898668Y-106636140D01*
X180890552Y-106639925D01*
X180887205Y-106639587D01*
X180379364Y-106512714D01*
X180372168Y-106507384D01*
X180370500Y-106501363D01*
X180370500Y-106011636D01*
X180373927Y-106003363D01*
X180379362Y-106000285D01*
X180887205Y-105873412D01*
X180896062Y-105874731D01*
G37*
%TD.AperFunction*%
%TD*%
%TA.AperFunction,Conductor*%
%TO.N,Net-(D1-A)*%
G36*
X196335793Y-97422411D02*
G01*
X196843637Y-97549285D01*
X196850832Y-97554615D01*
X196852500Y-97560636D01*
X196852500Y-98050363D01*
X196849073Y-98058636D01*
X196843636Y-98061714D01*
X196335794Y-98188587D01*
X196326937Y-98187268D01*
X196324331Y-98185140D01*
X195983740Y-97813402D01*
X195980679Y-97804989D01*
X195983740Y-97797597D01*
X196324333Y-97425857D01*
X196332447Y-97422074D01*
X196335793Y-97422411D01*
G37*
%TD.AperFunction*%
%TD*%
%TA.AperFunction,Conductor*%
%TO.N,Net-(D1-A)*%
G36*
X196693357Y-97551943D02*
G01*
X197709531Y-97589194D01*
X197717673Y-97592921D01*
X197720299Y-97597492D01*
X197972896Y-98430911D01*
X197972016Y-98439823D01*
X197967878Y-98444240D01*
X197333219Y-98838974D01*
X197324384Y-98840434D01*
X197317991Y-98836455D01*
X196683914Y-98062734D01*
X196681263Y-98055318D01*
X196681263Y-97563636D01*
X196684690Y-97555363D01*
X196692963Y-97551936D01*
X196693357Y-97551943D01*
G37*
%TD.AperFunction*%
%TD*%
%TA.AperFunction,Conductor*%
%TO.N,Net-(R1-Pad2)*%
G36*
X189093574Y-98189829D02*
G01*
X189578803Y-98806263D01*
X189581228Y-98814884D01*
X189578803Y-98820737D01*
X189093574Y-99437170D01*
X189085765Y-99441551D01*
X189079416Y-99440527D01*
X188290235Y-99070656D01*
X188284198Y-99064042D01*
X188283500Y-99060062D01*
X188283500Y-98566937D01*
X188286927Y-98558664D01*
X188290233Y-98556344D01*
X189079418Y-98186471D01*
X189088361Y-98186064D01*
X189093574Y-98189829D01*
G37*
%TD.AperFunction*%
%TD*%
%TA.AperFunction,Conductor*%
%TO.N,Net-(R1-Pad2)*%
G36*
X181721021Y-99341017D02*
G01*
X181725744Y-99344883D01*
X181853989Y-99524208D01*
X181984319Y-99706447D01*
X181986502Y-99713253D01*
X181986502Y-100200999D01*
X181983075Y-100209272D01*
X181974802Y-100212699D01*
X181970931Y-100212040D01*
X181144074Y-99922119D01*
X181137400Y-99916148D01*
X181136669Y-99907956D01*
X181242919Y-99524206D01*
X181248429Y-99517149D01*
X181250029Y-99516397D01*
X181712071Y-99340754D01*
X181721021Y-99341017D01*
G37*
%TD.AperFunction*%
%TD*%
%TA.AperFunction,Conductor*%
%TO.N,Net-(R1-Pad2)*%
G36*
X183243441Y-99336712D02*
G01*
X183742547Y-99708664D01*
X184071912Y-99954119D01*
X184076498Y-99961810D01*
X184074302Y-99970491D01*
X184071912Y-99972881D01*
X183243444Y-100590285D01*
X183234763Y-100592481D01*
X183231488Y-100591498D01*
X182440235Y-100220656D01*
X182434198Y-100214042D01*
X182433500Y-100210062D01*
X182433500Y-99716937D01*
X182436927Y-99708664D01*
X182440233Y-99706344D01*
X183231490Y-99335500D01*
X183240433Y-99335093D01*
X183243441Y-99336712D01*
G37*
%TD.AperFunction*%
%TD*%
%TA.AperFunction,Conductor*%
%TO.N,Net-(R1-Pad2)*%
G36*
X185019642Y-98680404D02*
G01*
X185367573Y-99028335D01*
X185371000Y-99036608D01*
X185370375Y-99040380D01*
X185085974Y-99875471D01*
X185080063Y-99882198D01*
X185075848Y-99883360D01*
X184091300Y-99963514D01*
X184082776Y-99960770D01*
X184079537Y-99956317D01*
X183818306Y-99323299D01*
X183818318Y-99314345D01*
X183823616Y-99308514D01*
X185005867Y-98678351D01*
X185014778Y-98677485D01*
X185019642Y-98680404D01*
G37*
%TD.AperFunction*%
%TD*%
%TA.AperFunction,Conductor*%
%TO.N,Net-(U2A--)*%
G36*
X194104041Y-99376052D02*
G01*
X194107527Y-99379939D01*
X194370967Y-99855500D01*
X194506878Y-100100845D01*
X194507889Y-100109743D01*
X194502313Y-100116750D01*
X194496643Y-100118215D01*
X194011151Y-100118215D01*
X194006109Y-100117073D01*
X193468480Y-99860323D01*
X193462491Y-99853665D01*
X193462751Y-99845196D01*
X193626007Y-99460375D01*
X193632392Y-99454099D01*
X193634789Y-99453416D01*
X194095308Y-99374080D01*
X194104041Y-99376052D01*
G37*
%TD.AperFunction*%
%TD*%
%TA.AperFunction,Conductor*%
%TO.N,Net-(U2A--)*%
G36*
X194514208Y-100280927D02*
G01*
X194517574Y-100288010D01*
X194562227Y-100724833D01*
X194561585Y-100730017D01*
X194273497Y-101523221D01*
X194267452Y-101529827D01*
X194258506Y-101530224D01*
X194251900Y-101524179D01*
X194251503Y-101523221D01*
X193963414Y-100730017D01*
X193962772Y-100724835D01*
X194007426Y-100288010D01*
X194011676Y-100280128D01*
X194019065Y-100277500D01*
X194505935Y-100277500D01*
X194514208Y-100280927D01*
G37*
%TD.AperFunction*%
%TD*%
%TA.AperFunction,Conductor*%
%TO.N,Net-(R3-Pad2)*%
G36*
X195394820Y-99016700D02*
G01*
X196029142Y-99054727D01*
X196037194Y-99058643D01*
X196040120Y-99067106D01*
X196039995Y-99068246D01*
X195979086Y-99450686D01*
X195974401Y-99458317D01*
X195973358Y-99458991D01*
X195522211Y-99718128D01*
X195513332Y-99719278D01*
X195509589Y-99717507D01*
X195041635Y-99383622D01*
X195036891Y-99376027D01*
X195038907Y-99367302D01*
X195040152Y-99365831D01*
X195385877Y-99020106D01*
X195394149Y-99016680D01*
X195394820Y-99016700D01*
G37*
%TD.AperFunction*%
%TD*%
%TA.AperFunction,Conductor*%
%TO.N,Net-(R3-Pad2)*%
G36*
X195978800Y-99457889D02*
G01*
X195980973Y-99460664D01*
X196198599Y-99846928D01*
X196199675Y-99855818D01*
X196195813Y-99861728D01*
X195789731Y-100193859D01*
X195782324Y-100196502D01*
X195294343Y-100196502D01*
X195286070Y-100193075D01*
X195282643Y-100184802D01*
X195283161Y-100181360D01*
X195381550Y-99861728D01*
X195500037Y-99476805D01*
X195505746Y-99469907D01*
X195510862Y-99468554D01*
X195970430Y-99454712D01*
X195978800Y-99457889D01*
G37*
%TD.AperFunction*%
%TD*%
%TA.AperFunction,Conductor*%
%TO.N,Net-(R3-Pad2)*%
G36*
X195784208Y-100280927D02*
G01*
X195787574Y-100288010D01*
X195832227Y-100724833D01*
X195831585Y-100730017D01*
X195543497Y-101523221D01*
X195537452Y-101529827D01*
X195528506Y-101530224D01*
X195521900Y-101524179D01*
X195521503Y-101523221D01*
X195233414Y-100730017D01*
X195232772Y-100724835D01*
X195277426Y-100288010D01*
X195281676Y-100280128D01*
X195289065Y-100277500D01*
X195775935Y-100277500D01*
X195784208Y-100280927D01*
G37*
%TD.AperFunction*%
%TD*%
%TA.AperFunction,Conductor*%
%TO.N,Net-(R3-Pad2)*%
G36*
X194105131Y-97663119D02*
G01*
X194108476Y-97665790D01*
X194544894Y-98170570D01*
X194547712Y-98179070D01*
X194544316Y-98186495D01*
X194198650Y-98532161D01*
X194190377Y-98535588D01*
X194185336Y-98534446D01*
X193505621Y-98209931D01*
X193499632Y-98203274D01*
X193499545Y-98195726D01*
X193502574Y-98186495D01*
X193625898Y-97810568D01*
X193631733Y-97803776D01*
X193633607Y-97803023D01*
X194096220Y-97662249D01*
X194105131Y-97663119D01*
G37*
%TD.AperFunction*%
%TD*%
%TA.AperFunction,Conductor*%
%TO.N,Net-(R5-Pad2)*%
G36*
X183243441Y-107724712D02*
G01*
X183742547Y-108096664D01*
X184071912Y-108342119D01*
X184076498Y-108349810D01*
X184074302Y-108358491D01*
X184071912Y-108360881D01*
X183243444Y-108978285D01*
X183234763Y-108980481D01*
X183231488Y-108979498D01*
X182440235Y-108608656D01*
X182434198Y-108602042D01*
X182433500Y-108598062D01*
X182433500Y-108104937D01*
X182436927Y-108096664D01*
X182440233Y-108094344D01*
X183231490Y-107723500D01*
X183240433Y-107723093D01*
X183243441Y-107724712D01*
G37*
%TD.AperFunction*%
%TD*%
%TA.AperFunction,Conductor*%
%TO.N,Net-(R5-Pad2)*%
G36*
X181721021Y-107729017D02*
G01*
X181725744Y-107732883D01*
X181853989Y-107912208D01*
X181984319Y-108094447D01*
X181986502Y-108101253D01*
X181986502Y-108588999D01*
X181983075Y-108597272D01*
X181974802Y-108600699D01*
X181970931Y-108600040D01*
X181144074Y-108310119D01*
X181137400Y-108304148D01*
X181136669Y-108295956D01*
X181242919Y-107912206D01*
X181248429Y-107905149D01*
X181250029Y-107904397D01*
X181712071Y-107728754D01*
X181721021Y-107729017D01*
G37*
%TD.AperFunction*%
%TD*%
%TA.AperFunction,Conductor*%
%TO.N,Net-(U2B--)*%
G36*
X193003100Y-106530820D02*
G01*
X193003497Y-106531778D01*
X193291585Y-107324982D01*
X193292227Y-107330166D01*
X193247574Y-107766990D01*
X193243324Y-107774872D01*
X193235935Y-107777500D01*
X192749065Y-107777500D01*
X192740792Y-107774073D01*
X192737426Y-107766990D01*
X192719383Y-107590495D01*
X192692772Y-107330163D01*
X192693413Y-107324984D01*
X192981503Y-106531777D01*
X192987548Y-106525172D01*
X192996494Y-106524775D01*
X193003100Y-106530820D01*
G37*
%TD.AperFunction*%
%TD*%
%TA.AperFunction,Conductor*%
%TO.N,Net-(U2B--)*%
G36*
X193240165Y-108026002D02*
G01*
X193243592Y-108034275D01*
X193243310Y-108036830D01*
X193089301Y-108725130D01*
X193084150Y-108732455D01*
X193079309Y-108734188D01*
X192619936Y-108790587D01*
X192611307Y-108788194D01*
X192608559Y-108785128D01*
X192369405Y-108398444D01*
X192367968Y-108389606D01*
X192371151Y-108383949D01*
X192724009Y-108036830D01*
X192735085Y-108025933D01*
X192743290Y-108022575D01*
X193231892Y-108022575D01*
X193240165Y-108026002D01*
G37*
%TD.AperFunction*%
%TD*%
%TA.AperFunction,Conductor*%
%TO.N,Net-(R7-Pad2)*%
G36*
X194493778Y-108647248D02*
G01*
X194824357Y-108747845D01*
X194956390Y-108788023D01*
X194963307Y-108793710D01*
X194964101Y-108795569D01*
X195090454Y-109180726D01*
X195089777Y-109189655D01*
X195084378Y-109194931D01*
X194404663Y-109519446D01*
X194395721Y-109519918D01*
X194391349Y-109517161D01*
X194045683Y-109171495D01*
X194042256Y-109163222D01*
X194045105Y-109155570D01*
X194481523Y-108650789D01*
X194489526Y-108646773D01*
X194493778Y-108647248D01*
G37*
%TD.AperFunction*%
%TD*%
%TA.AperFunction,Conductor*%
%TO.N,Net-(R7-Pad2)*%
G36*
X193203613Y-110004627D02*
G01*
X193204123Y-110005107D01*
X193549841Y-110350825D01*
X193553268Y-110359098D01*
X193549841Y-110367371D01*
X193548364Y-110368622D01*
X193080410Y-110702506D01*
X193071685Y-110704522D01*
X193067786Y-110703127D01*
X192616639Y-110443990D01*
X192611172Y-110436898D01*
X192610915Y-110435694D01*
X192550004Y-110053245D01*
X192552087Y-110044537D01*
X192559718Y-110039852D01*
X192560845Y-110039728D01*
X193195152Y-110001701D01*
X193203613Y-110004627D01*
G37*
%TD.AperFunction*%
%TD*%
%TA.AperFunction,Conductor*%
%TO.N,Net-(R7-Pad2)*%
G36*
X194494802Y-107962012D02*
G01*
X195119305Y-108385161D01*
X195124232Y-108392639D01*
X195123561Y-108399301D01*
X194964621Y-108785343D01*
X194958302Y-108791689D01*
X194955976Y-108792385D01*
X194494298Y-108879710D01*
X194485533Y-108877881D01*
X194482246Y-108874484D01*
X194180597Y-108399301D01*
X194132613Y-108323713D01*
X194131073Y-108314894D01*
X194134217Y-108309174D01*
X194479967Y-107963424D01*
X194488239Y-107959998D01*
X194494802Y-107962012D01*
G37*
%TD.AperFunction*%
%TD*%
%TA.AperFunction,Conductor*%
%TO.N,Net-(R7-Pad2)*%
G36*
X194273100Y-106530820D02*
G01*
X194273497Y-106531778D01*
X194561585Y-107324982D01*
X194562227Y-107330166D01*
X194517574Y-107766990D01*
X194513324Y-107774872D01*
X194505935Y-107777500D01*
X194019065Y-107777500D01*
X194010792Y-107774073D01*
X194007426Y-107766990D01*
X193989383Y-107590495D01*
X193962772Y-107330163D01*
X193963413Y-107324984D01*
X194251503Y-106531777D01*
X194257548Y-106525172D01*
X194266494Y-106524775D01*
X194273100Y-106530820D01*
G37*
%TD.AperFunction*%
%TD*%
%TA.AperFunction,Conductor*%
%TO.N,+5V*%
G36*
X198969639Y-106555600D02*
G01*
X198973480Y-106562169D01*
X199089038Y-107138199D01*
X199089038Y-107142801D01*
X198973480Y-107718830D01*
X198968493Y-107726268D01*
X198961133Y-107728196D01*
X197910853Y-107649312D01*
X197902859Y-107645275D01*
X197900029Y-107637645D01*
X197900029Y-106643354D01*
X197903456Y-106635081D01*
X197910852Y-106631687D01*
X198961134Y-106552803D01*
X198969639Y-106555600D01*
G37*
%TD.AperFunction*%
%TD*%
%TA.AperFunction,Conductor*%
%TO.N,+5V*%
G36*
X195718510Y-106324481D02*
G01*
X196017782Y-106398581D01*
X196024988Y-106403895D01*
X196026448Y-106412201D01*
X195931724Y-106892509D01*
X195926761Y-106899963D01*
X195922509Y-106901724D01*
X195442201Y-106996448D01*
X195433421Y-106994687D01*
X195428581Y-106987782D01*
X195354482Y-106688514D01*
X195355820Y-106679663D01*
X195357562Y-106677436D01*
X195707433Y-106327565D01*
X195715705Y-106324139D01*
X195718510Y-106324481D01*
G37*
%TD.AperFunction*%
%TD*%
M02*
